<svg width="92" height="24" viewBox="0 0 92 24" fill="none" xmlns="http://www.w3.org/2000/svg">
<g clip-path="url(#clip0_542_1135)">
<path d="M11.4526 23.9325C5.13761 23.9325 0.000106812 18.795 0.000106812 12.4725C0.000106812 6.14999 5.13761 1.01999 11.4526 1.01999C17.7676 1.01999 22.9051 6.15749 22.9051 12.4725C22.9051 18.7875 17.7676 23.925 11.4526 23.925V23.9325ZM11.4526 7.01999C8.44511 7.01999 6.00011 9.46499 6.00011 12.4725C6.00011 15.48 8.44511 17.925 11.4526 17.925C14.4601 17.925 16.9051 15.48 16.9051 12.4725C16.9051 9.46499 14.4601 7.01999 11.4526 7.01999Z" fill="white"/>
<path d="M21.3376 23.5125C19.8976 23.5125 18.6226 22.47 18.3826 21L16.9501 12.2925C16.6801 10.6575 17.7901 9.1125 19.4251 8.8425C21.0601 8.58 22.6051 9.6825 22.8751 11.3175L24.3076 20.025C24.5776 21.66 23.4676 23.205 21.8326 23.475C21.6676 23.505 21.5026 23.5125 21.3451 23.5125H21.3376Z" fill="white"/>
<path d="M35.7151 23.76C29.4001 23.76 24.2626 18.6225 24.2626 12.3075C24.2626 5.9925 29.3926 0.847504 35.7151 0.847504C39.7276 0.847504 43.5001 3 45.5551 6.4575C46.4026 7.8825 45.9376 9.72 44.5126 10.5675C43.0876 11.415 41.2501 10.9425 40.4026 9.525C39.4051 7.8525 37.6576 6.8475 35.7151 6.8475C32.7076 6.8475 30.2626 9.2925 30.2626 12.3C30.2626 15.3075 32.7076 17.7525 35.7151 17.7525C37.6501 17.7525 39.4051 16.755 40.4026 15.075C41.2501 13.65 43.0876 13.185 44.5126 14.0325C45.9376 14.88 46.4026 16.7175 45.5551 18.1425C43.5001 21.6 39.7276 23.7525 35.7151 23.7525V23.76Z" fill="white"/>
<path d="M81.4426 23.76C75.1276 23.76 69.9901 18.6225 69.9901 12.3075C69.9901 5.9925 75.1276 0.847504 81.4426 0.847504C84.3376 0.847504 87.1051 1.935 89.2276 3.9075C90.0301 4.6575 90.7276 5.5125 91.2826 6.4575C92.1226 7.8675 91.6726 9.69 90.2776 10.545L79.2676 17.3025C79.9351 17.595 80.6701 17.7525 81.4426 17.7525C83.3776 17.7525 85.1326 16.755 86.1301 15.075C86.9776 13.65 88.8151 13.185 90.2401 14.0325C91.6651 14.88 92.1301 16.7175 91.2826 18.1425C89.2201 21.6 85.4551 23.7525 81.4426 23.7525V23.76ZM81.4426 6.8475C78.4426 6.8475 76.0051 9.285 75.9901 12.2775L83.8876 7.425C83.1376 7.0425 82.2976 6.8475 81.4426 6.8475Z" fill="white"/>
<path d="M66.2851 6.97501C63.3526 4.67251 59.1751 5.01001 56.4151 7.26001C56.9251 7.10251 57.4651 7.01251 58.0276 7.01251C61.0351 7.01251 63.4801 9.45751 63.4801 12.465C63.4801 15.4725 61.0351 17.9175 58.0276 17.9175C55.0201 17.9175 52.5751 15.4725 52.5751 12.465C52.5751 11.94 52.6576 11.43 52.7926 10.95C53.8051 5.08501 61.6576 2.19001 66.6676 6.48001C67.9351 7.56001 68.8501 9.00751 69.3076 10.5675C68.4001 5.15251 63.6901 1.01251 58.0201 1.01251C51.7051 1.01251 46.5676 6.15001 46.5676 12.465C46.5676 18.78 51.7051 23.9175 58.0201 23.9175C64.3351 23.9175 69.4726 18.78 69.4726 12.465C69.4726 12.3375 69.4576 12.2175 69.4501 12.09C69.0826 10.0275 67.9126 8.16751 66.2701 6.96751L66.2851 6.97501Z" fill="white"/>
</g>
<defs>
<clipPath id="clip0_542_1135">
<rect width="91.71" height="23.085" fill="white" transform="translate(0 0.847504)"/>
</clipPath>
</defs>
</svg>
