<?xml version="1.0" encoding="UTF-8"?>
<!DOCTYPE svg PUBLIC "-//W3C//DTD SVG 1.1//EN" "http://www.w3.org/Graphics/SVG/1.1/DTD/svg11.dtd">
<svg xmlns="http://www.w3.org/2000/svg" version="1.1" width="535px" height="535px" style="shape-rendering:geometricPrecision; text-rendering:geometricPrecision; image-rendering:optimizeQuality; fill-rule:evenodd; clip-rule:evenodd" xmlns:xlink="http://www.w3.org/1999/xlink">
<g><path style="opacity:0.993" fill="#d46b86" d="M 243.5,0.5 C 341.108,-4.60798 420.274,30.7254 481,106.5C 532.175,178.725 546.175,257.725 523,343.5C 497.858,422.644 447.358,479.144 371.5,513C 280.748,548.059 194.748,539.059 113.5,486C 32.7445,425.635 -4.75546,344.802 1,243.5C 11.7413,149.449 57.9079,78.9495 139.5,32C 172.235,14.6957 206.902,4.19572 243.5,0.5 Z"/></g>
<g><path style="opacity:1" fill="#e2c2c6" d="M 346.5,94.5 C 342.894,96.3029 339.227,98.1363 335.5,100C 337.684,99.3919 339.684,100.059 341.5,102C 339.872,104.65 337.705,105.483 335,104.5C 334.016,106.795 333.183,106.461 332.5,103.5C 335.167,102.5 335.167,101.5 332.5,100.5C 331.692,100.808 331.025,101.308 330.5,102C 331.358,103.57 332.025,105.237 332.5,107C 331.128,107.209 329.961,108.376 329,110.5C 328.203,113.22 327.037,115.72 325.5,118C 326.5,119.667 327.5,121.333 328.5,123C 327.692,123.308 327.025,123.808 326.5,124.5C 328.021,124.88 329.687,125.046 331.5,125C 328.899,127.545 326.399,127.712 324,125.5C 322.086,126.676 322.252,127.676 324.5,128.5C 323.028,131.805 320.695,134.305 317.5,136C 318.458,137.147 318.125,138.147 316.5,139C 317.672,140.868 317.505,142.702 316,144.5C 316.079,139.883 314.246,138.716 310.5,141C 311.978,142.193 313.312,142.693 314.5,142.5C 313.408,143.831 312.074,144.664 310.5,145C 311.167,145.333 311.833,145.667 312.5,146C 311.167,146.667 309.833,146.667 308.5,146C 309.833,145.333 309.833,144.667 308.5,144C 310.932,142.913 310.598,142.413 307.5,142.5C 307.64,144.124 306.973,145.29 305.5,146C 307.797,147.16 307.464,148.16 304.5,149C 305.214,150.343 304.88,151.676 303.5,153C 305.506,155.434 307.34,155.601 309,153.5C 309.925,154.047 310.758,154.713 311.5,155.5C 309.824,156.1 308.157,157.433 306.5,159.5C 307.355,160.293 308.189,159.96 309,158.5C 309.359,161.62 308.192,164.12 305.5,166C 306.252,166.671 306.586,167.504 306.5,168.5C 298.966,164.567 291.3,160.9 283.5,157.5C 277.312,153.241 270.979,149.241 264.5,145.5C 259.748,142.86 254.748,140.527 249.5,138.5C 246.323,134.793 243.157,131.126 240,127.5C 228.467,106.188 234.634,91.6876 258.5,84C 259.91,83.6322 260.91,82.7989 261.5,81.5C 257.521,80.4949 253.521,80.4949 249.5,81.5C 252.868,79.941 256.535,79.1077 260.5,79C 290.48,77.0298 319.147,82.1965 346.5,94.5 Z"/></g>
<g><path style="opacity:1" fill="#d8b7bb" d="M 210.5,102.5 C 199.811,113.877 192.811,127.21 189.5,142.5C 188.222,149.522 188.555,156.522 190.5,163.5C 186.538,159.775 184.872,155.275 185.5,150C 184.335,148.008 183.002,146.175 181.5,144.5C 183.542,136.505 182.709,128.839 179,121.5C 178.812,117.622 178.646,113.956 178.5,110.5C 181.852,106.485 186.185,103.985 191.5,103C 197.825,102.5 204.158,102.334 210.5,102.5 Z"/></g>
<g><path style="opacity:1" fill="#fedce0" d="M 224.5,103.5 C 223.536,107.189 224.203,110.689 226.5,114C 226.316,116.39 226.316,118.724 226.5,121C 227.84,129.624 232.174,136.958 239.5,143C 237.667,145.998 235.334,148.498 232.5,150.5C 230.274,144.94 226.274,140.94 220.5,138.5C 219.914,138.709 219.414,139.043 219,139.5C 217.649,137.981 216.149,136.648 214.5,135.5C 212.191,136.933 210.691,136.266 210,133.5C 207.815,134.928 205.815,136.595 204,138.5C 201.958,146.327 200.792,153.827 200.5,161C 202.016,166.796 203.516,172.296 205,177.5C 206.481,178.471 207.315,179.804 207.5,181.5C 208.087,182.767 208.087,183.767 207.5,184.5C 204.812,181.646 202.312,178.646 200,175.5C 199.719,173.095 200.385,173.095 202,175.5C 201.176,172.199 199.51,169.199 197,166.5C 195.259,163.691 194.092,160.691 193.5,157.5C 193.334,152.821 193.501,148.155 194,143.5C 195.635,137.013 197.635,130.346 200,123.5C 205.913,114.916 212.58,106.916 220,99.5C 221.067,100.191 222.234,100.691 223.5,101C 224.252,101.671 224.586,102.504 224.5,103.5 Z"/></g>
<g><path style="opacity:1" fill="#d6b2b6" d="M 363.5,103.5 C 372.24,108.196 380.24,113.863 387.5,120.5C 386.427,121.251 386.26,122.251 387,123.5C 391.696,129.556 395.363,136.223 398,143.5C 398.938,148.527 398.438,153.36 396.5,158C 396.833,158.333 397.167,158.667 397.5,159C 394.75,163.686 391.416,167.853 387.5,171.5C 385.994,172.747 384.494,172.747 383,171.5C 379.553,175.669 375.053,178.169 369.5,179C 368.185,180.395 368.519,181.395 370.5,182C 369.169,183.659 367.835,185.326 366.5,187C 370.594,188.706 373.928,190.706 376.5,193C 378.608,195.307 379.941,197.64 380.5,200C 379.626,202.035 379.293,204.368 379.5,207C 380.5,207.333 381.5,207.667 382.5,208C 381.797,211.687 381.797,215.187 382.5,218.5C 381.624,222.224 380.624,225.89 379.5,229.5C 376.612,229.22 375.112,230.553 375,233.5C 374.667,233.167 374.333,232.833 374,232.5C 371.937,235.453 369.104,237.286 365.5,238C 356.121,239.486 346.787,239.653 337.5,238.5C 338.598,237.603 338.598,236.77 337.5,236C 340.051,233.9 342.717,232.067 345.5,230.5C 346.721,229.972 347.887,229.305 349,228.5C 350.377,225.216 351.877,222.049 353.5,219C 352.978,218.439 352.645,217.772 352.5,217C 352.979,214.286 353.979,211.453 355.5,208.5C 355.188,205.997 353.855,203.831 351.5,202C 351.944,200.467 352.277,198.967 352.5,197.5C 352.023,196.522 351.357,195.689 350.5,195C 345.983,193.913 342.316,191.58 339.5,188C 335.719,185.775 331.719,184.109 327.5,183C 328.167,182.667 328.833,182.333 329.5,182C 325.626,180.923 324.793,178.756 327,175.5C 329.405,176.274 331.905,176.774 334.5,177C 335.833,177.667 335.833,178.333 334.5,179C 336.433,179.783 337.933,179.283 339,177.5C 339.333,177.833 339.667,178.167 340,178.5C 343.404,177.98 346.571,176.813 349.5,175C 348.446,173.612 348.28,172.112 349,170.5C 349.333,170.833 349.667,171.167 350,171.5C 350.333,169.5 350.667,167.5 351,165.5C 354.11,166.673 354.277,166.173 351.5,164C 353.833,162.757 354.5,161.091 353.5,159C 355.98,156.954 358.147,157.454 360,160.5C 361.273,157.867 362.773,154.867 364.5,151.5C 363.078,151.412 361.578,151.412 360,151.5C 359.333,149.833 359.333,148.167 360,146.5C 360.333,147.5 360.667,148.5 361,149.5C 362.949,149.537 364.782,149.037 366.5,148C 363.724,146.221 364.057,145.221 367.5,145C 367.167,144.667 366.833,144.333 366.5,144C 369.266,143.309 369.933,141.809 368.5,139.5C 369.924,137.709 371.258,135.875 372.5,134C 370.203,132.84 370.536,131.84 373.5,131C 373.167,130.667 372.833,130.333 372.5,130C 373.741,127.437 375.074,124.937 376.5,122.5C 370.301,121.37 370.301,119.536 376.5,117C 373.335,112.437 369.002,108.437 363.5,105C 362.262,104.31 362.262,103.81 363.5,103.5 Z"/></g>
<g><path style="opacity:1" fill="#f0cfd3" d="M 264.5,145.5 C 263.153,144.972 261.819,144.805 260.5,145C 261.971,146.583 262.971,148.417 263.5,150.5C 260.076,149.041 256.576,147.708 253,146.5C 250.054,142.517 246.22,141.517 241.5,143.5C 240.954,138.109 238.787,133.442 235,129.5C 232.808,123.006 230.308,116.673 227.5,110.5C 228.627,108.014 228.461,105.348 227,102.5C 226.329,103.252 225.496,103.586 224.5,103.5C 224.586,102.504 224.252,101.671 223.5,101C 222.234,100.691 221.067,100.191 220,99.5C 212.58,106.916 205.913,114.916 200,123.5C 197.635,130.346 195.635,137.013 194,143.5C 193.501,148.155 193.334,152.821 193.5,157.5C 192.412,152.31 191.079,147.31 189.5,142.5C 192.811,127.21 199.811,113.877 210.5,102.5C 221.316,91.5896 234.316,84.5896 249.5,81.5C 253.521,80.4949 257.521,80.4949 261.5,81.5C 260.91,82.7989 259.91,83.6322 258.5,84C 234.634,91.6876 228.467,106.188 240,127.5C 243.157,131.126 246.323,134.793 249.5,138.5C 254.748,140.527 259.748,142.86 264.5,145.5 Z"/></g>
<g><path style="opacity:1" fill="#dab8bc" d="M 346.5,94.5 C 352.36,97.2616 358.026,100.262 363.5,103.5C 362.262,103.81 362.262,104.31 363.5,105C 369.002,108.437 373.335,112.437 376.5,117C 370.301,119.536 370.301,121.37 376.5,122.5C 375.074,124.937 373.741,127.437 372.5,130C 372.833,130.333 373.167,130.667 373.5,131C 370.536,131.84 370.203,132.84 372.5,134C 371.258,135.875 369.924,137.709 368.5,139.5C 369.933,141.809 369.266,143.309 366.5,144C 366.833,144.333 367.167,144.667 367.5,145C 364.057,145.221 363.724,146.221 366.5,148C 364.782,149.037 362.949,149.537 361,149.5C 360.667,148.5 360.333,147.5 360,146.5C 359.333,148.167 359.333,149.833 360,151.5C 361.578,151.412 363.078,151.412 364.5,151.5C 362.773,154.867 361.273,157.867 360,160.5C 358.147,157.454 355.98,156.954 353.5,159C 354.5,161.091 353.833,162.757 351.5,164C 354.277,166.173 354.11,166.673 351,165.5C 350.667,167.5 350.333,169.5 350,171.5C 349.667,171.167 349.333,170.833 349,170.5C 348.28,172.112 348.446,173.612 349.5,175C 346.571,176.813 343.404,177.98 340,178.5C 339.667,178.167 339.333,177.833 339,177.5C 337.933,179.283 336.433,179.783 334.5,179C 335.833,178.333 335.833,177.667 334.5,177C 331.905,176.774 329.405,176.274 327,175.5C 324.793,178.756 325.626,180.923 329.5,182C 328.833,182.333 328.167,182.667 327.5,183C 331.719,184.109 335.719,185.775 339.5,188C 342.316,191.58 345.983,193.913 350.5,195C 351.357,195.689 352.023,196.522 352.5,197.5C 352.277,198.967 351.944,200.467 351.5,202C 353.855,203.831 355.188,205.997 355.5,208.5C 353.979,211.453 352.979,214.286 352.5,217C 352.645,217.772 352.978,218.439 353.5,219C 351.877,222.049 350.377,225.216 349,228.5C 347.887,229.305 346.721,229.972 345.5,230.5C 345.574,228.589 346.574,227.422 348.5,227C 348.384,225.732 348.051,224.398 347.5,223C 349.004,221.663 350.004,219.996 350.5,218C 349.833,217.333 349.167,216.667 348.5,216C 350.004,214.663 351.004,212.996 351.5,211C 350.717,205.518 348.883,200.351 346,195.5C 333.389,188.683 321.222,181.35 309.5,173.5C 308.752,171.668 307.752,170.001 306.5,168.5C 306.586,167.504 306.252,166.671 305.5,166C 308.192,164.12 309.359,161.62 309,158.5C 308.189,159.96 307.355,160.293 306.5,159.5C 308.157,157.433 309.824,156.1 311.5,155.5C 310.758,154.713 309.925,154.047 309,153.5C 307.34,155.601 305.506,155.434 303.5,153C 304.88,151.676 305.214,150.343 304.5,149C 307.464,148.16 307.797,147.16 305.5,146C 306.973,145.29 307.64,144.124 307.5,142.5C 310.598,142.413 310.932,142.913 308.5,144C 309.833,144.667 309.833,145.333 308.5,146C 309.833,146.667 311.167,146.667 312.5,146C 311.833,145.667 311.167,145.333 310.5,145C 312.074,144.664 313.408,143.831 314.5,142.5C 313.312,142.693 311.978,142.193 310.5,141C 314.246,138.716 316.079,139.883 316,144.5C 317.505,142.702 317.672,140.868 316.5,139C 318.125,138.147 318.458,137.147 317.5,136C 320.695,134.305 323.028,131.805 324.5,128.5C 322.252,127.676 322.086,126.676 324,125.5C 326.399,127.712 328.899,127.545 331.5,125C 329.687,125.046 328.021,124.88 326.5,124.5C 327.025,123.808 327.692,123.308 328.5,123C 327.5,121.333 326.5,119.667 325.5,118C 327.037,115.72 328.203,113.22 329,110.5C 329.961,108.376 331.128,107.209 332.5,107C 332.025,105.237 331.358,103.57 330.5,102C 331.025,101.308 331.692,100.808 332.5,100.5C 335.167,101.5 335.167,102.5 332.5,103.5C 333.183,106.461 334.016,106.795 335,104.5C 337.705,105.483 339.872,104.65 341.5,102C 339.684,100.059 337.684,99.3919 335.5,100C 339.227,98.1363 342.894,96.3029 346.5,94.5 Z"/></g>
<g><path style="opacity:1" fill="#ffe4e9" d="M 232.5,150.5 C 223.412,160.345 216.079,171.345 210.5,183.5C 209.482,182.807 208.482,182.141 207.5,181.5C 207.315,179.804 206.481,178.471 205,177.5C 203.516,172.296 202.016,166.796 200.5,161C 200.792,153.827 201.958,146.327 204,138.5C 205.815,136.595 207.815,134.928 210,133.5C 210.691,136.266 212.191,136.933 214.5,135.5C 216.149,136.648 217.649,137.981 219,139.5C 219.414,139.043 219.914,138.709 220.5,138.5C 226.274,140.94 230.274,144.94 232.5,150.5 Z"/></g>
<g><path style="opacity:1" fill="#be9ea2" d="M 399.5,132.5 C 403.345,137.525 406.678,142.858 409.5,148.5C 408.848,149.449 408.514,150.615 408.5,152C 409.772,158.214 411.106,164.714 412.5,171.5C 411.667,173.5 411.834,175.166 413,176.5C 413.174,182.049 414.007,187.549 415.5,193C 414.795,198.548 413.795,204.048 412.5,209.5C 411.216,213.687 409.382,217.687 407,221.5C 400.956,227.049 394.789,232.383 388.5,237.5C 383.391,239.945 378.058,241.778 372.5,243C 363.557,244.688 354.557,246.022 345.5,247C 350.119,247.519 353.786,248.686 356.5,250.5C 349.661,251.523 342.661,251.523 335.5,250.5C 333.73,249.236 332.063,247.736 330.5,246C 335.833,245.667 341.167,245.333 346.5,245C 358.178,242.741 369.845,240.074 381.5,237C 383.595,236.444 383.762,235.944 382,235.5C 380.535,236.33 379.035,236.496 377.5,236C 394.723,232.133 403.89,221.633 405,204.5C 404.25,203.874 403.416,203.374 402.5,203C 404.158,202.275 404.658,201.108 404,199.5C 403.667,200.167 403.333,200.833 403,201.5C 403.57,199.307 403.236,197.307 402,195.5C 401.667,195.833 401.333,196.167 401,196.5C 399.956,195.377 399.29,194.044 399,192.5C 398.333,191.167 397.667,191.167 397,192.5C 393.613,189.666 391.446,186.5 390.5,183C 394.005,176.316 398.005,169.983 402.5,164C 405.157,156.2 404.49,148.7 400.5,141.5C 400.945,138.782 400.279,136.115 398.5,133.5C 398.624,132.893 398.957,132.56 399.5,132.5 Z"/></g>
<g><path style="opacity:1" fill="#151212" d="M 261.5,162.5 C 269.998,168.921 279.331,174.088 289.5,178C 290.337,179.011 290.67,180.178 290.5,181.5C 289.088,185.245 286.421,187.578 282.5,188.5C 278.484,186.824 274.484,185.157 270.5,183.5C 266.535,181.182 262.535,178.848 258.5,176.5C 254.618,174.066 250.952,171.399 247.5,168.5C 249.477,159.84 254.143,157.84 261.5,162.5 Z"/></g>
<g><path style="opacity:1" fill="#d2acb0" d="M 263.5,150.5 C 266.586,153.223 269.92,155.723 273.5,158C 282.833,162.667 292.167,167.333 301.5,172C 305.795,175.093 307.462,179.26 306.5,184.5C 306.046,181.055 304.712,177.888 302.5,175C 298.797,172.646 294.797,171.146 290.5,170.5C 277.952,165.56 266.285,159.06 255.5,151C 251.572,149.675 247.572,149.342 243.5,150C 234.263,155.306 227.43,162.806 223,172.5C 222.506,174.134 222.34,175.801 222.5,177.5C 216.581,183.223 217.247,187.889 224.5,191.5C 236.557,202.529 250.224,211.195 265.5,217.5C 271.121,220.6 277.121,222.933 283.5,224.5C 286.826,227.031 290.159,227.031 293.5,224.5C 292.986,226.512 292.82,228.512 293,230.5C 295.672,231.282 298.172,232.282 300.5,233.5C 291.059,230.909 281.725,227.909 272.5,224.5C 254.985,216.804 238.318,207.637 222.5,197C 219.066,192.81 215.4,188.81 211.5,185C 215.272,177.29 219.439,169.79 224,162.5C 229.749,155.924 235.583,149.591 241.5,143.5C 246.22,141.517 250.054,142.517 253,146.5C 256.576,147.708 260.076,149.041 263.5,150.5 Z"/></g>
<g><path style="opacity:1" fill="#fee3e7" d="M 247.5,161.5 C 246.377,163.979 246.377,166.312 247.5,168.5C 250.952,171.399 254.618,174.066 258.5,176.5C 258.525,179.179 259.858,180.512 262.5,180.5C 263.052,182.331 263.052,183.997 262.5,185.5C 264.919,188.026 264.253,189.86 260.5,191C 262.781,192.482 262.781,194.149 260.5,196C 260.833,196.333 261.167,196.667 261.5,197C 257.896,198.789 254.396,200.289 251,201.5C 249.667,200.833 248.667,199.833 248,198.5C 247.259,199.641 246.425,199.641 245.5,198.5C 244.808,199.025 244.308,199.692 244,200.5C 236.752,197.697 230.252,193.697 224.5,188.5C 223.926,186.941 223.26,185.441 222.5,184C 223.979,180.636 224.979,177.136 225.5,173.5C 225.857,171.411 226.523,169.411 227.5,167.5C 231.06,163.529 234.727,159.695 238.5,156C 242.596,153.489 246.929,152.989 251.5,154.5C 250.896,157.381 249.562,159.714 247.5,161.5 Z"/></g>
<g><path style="opacity:1" fill="#c9a6aa" d="M 387.5,120.5 C 391.833,124.167 395.833,128.167 399.5,132.5C 398.957,132.56 398.624,132.893 398.5,133.5C 400.279,136.115 400.945,138.782 400.5,141.5C 404.49,148.7 405.157,156.2 402.5,164C 398.005,169.983 394.005,176.316 390.5,183C 391.446,186.5 393.613,189.666 397,192.5C 397.667,191.167 398.333,191.167 399,192.5C 399.29,194.044 399.956,195.377 401,196.5C 401.333,196.167 401.667,195.833 402,195.5C 403.236,197.307 403.57,199.307 403,201.5C 403.333,200.833 403.667,200.167 404,199.5C 404.658,201.108 404.158,202.275 402.5,203C 403.416,203.374 404.25,203.874 405,204.5C 403.89,221.633 394.723,232.133 377.5,236C 379.035,236.496 380.535,236.33 382,235.5C 383.762,235.944 383.595,236.444 381.5,237C 369.845,240.074 358.178,242.741 346.5,245C 341.167,245.333 335.833,245.667 330.5,246C 332.063,247.736 333.73,249.236 335.5,250.5C 323.378,249.681 311.378,248.014 299.5,245.5C 294.722,243.721 289.722,242.387 284.5,241.5C 283.942,240.21 282.942,239.377 281.5,239C 282.337,237.989 282.67,236.822 282.5,235.5C 292.243,238.768 302.243,241.102 312.5,242.5C 326.485,241.737 340.485,241.237 354.5,241C 339.971,240.847 325.638,239.347 311.5,236.5C 307.43,236.568 303.763,235.568 300.5,233.5C 305.889,234.245 311.222,235.245 316.5,236.5C 323.441,237.729 330.441,238.396 337.5,238.5C 346.787,239.653 356.121,239.486 365.5,238C 369.104,237.286 371.937,235.453 374,232.5C 374.333,232.833 374.667,233.167 375,233.5C 375.112,230.553 376.612,229.22 379.5,229.5C 380.624,225.89 381.624,222.224 382.5,218.5C 381.797,215.187 381.797,211.687 382.5,208C 381.5,207.667 380.5,207.333 379.5,207C 379.293,204.368 379.626,202.035 380.5,200C 379.941,197.64 378.608,195.307 376.5,193C 373.928,190.706 370.594,188.706 366.5,187C 367.835,185.326 369.169,183.659 370.5,182C 368.519,181.395 368.185,180.395 369.5,179C 375.053,178.169 379.553,175.669 383,171.5C 384.494,172.747 385.994,172.747 387.5,171.5C 391.416,167.853 394.75,163.686 397.5,159C 397.167,158.667 396.833,158.333 396.5,158C 398.438,153.36 398.938,148.527 398,143.5C 395.363,136.223 391.696,129.556 387,123.5C 386.26,122.251 386.427,121.251 387.5,120.5 Z"/></g>
<g><path style="opacity:1" fill="#e6bdc2" d="M 309.5,173.5 C 321.222,181.35 333.389,188.683 346,195.5C 348.883,200.351 350.717,205.518 351.5,211C 351.004,212.996 350.004,214.663 348.5,216C 349.167,216.667 349.833,217.333 350.5,218C 350.004,219.996 349.004,221.663 347.5,223C 348.051,224.398 348.384,225.732 348.5,227C 346.574,227.422 345.574,228.589 345.5,230.5C 342.717,232.067 340.051,233.9 337.5,236C 338.598,236.77 338.598,237.603 337.5,238.5C 330.441,238.396 323.441,237.729 316.5,236.5C 315.588,235.262 315.421,233.928 316,232.5C 319.14,230.027 321.973,227.194 324.5,224C 324.5,222.667 324.5,221.333 324.5,220C 326.171,216.141 328.171,211.975 330.5,207.5C 328.887,202.45 326.887,197.616 324.5,193C 321.956,191.908 319.289,191.241 316.5,191C 314.242,189.07 311.742,187.57 309,186.5C 309.077,182.195 309.244,177.862 309.5,173.5 Z"/></g>
<g><path style="opacity:1" fill="#fddbe0" d="M 225.5,173.5 C 224.979,177.136 223.979,180.636 222.5,184C 223.26,185.441 223.926,186.941 224.5,188.5C 230.252,193.697 236.752,197.697 244,200.5C 244.308,199.692 244.808,199.025 245.5,198.5C 246.425,199.641 247.259,199.641 248,198.5C 248.667,199.833 249.667,200.833 251,201.5C 254.396,200.289 257.896,198.789 261.5,197C 261.167,196.667 260.833,196.333 260.5,196C 262.781,194.149 262.781,192.482 260.5,191C 264.253,189.86 264.919,188.026 262.5,185.5C 263.052,183.997 263.052,182.331 262.5,180.5C 259.858,180.512 258.525,179.179 258.5,176.5C 262.535,178.848 266.535,181.182 270.5,183.5C 270.539,184.583 270.873,185.583 271.5,186.5C 276.198,187.696 279.532,190.529 281.5,195C 280.269,197.684 278.936,200.184 277.5,202.5C 275.396,202.201 273.396,202.534 271.5,203.5C 268.627,205.422 266.461,207.422 265,209.5C 262.364,209.455 259.53,209.288 256.5,209C 250.735,205.961 244.735,203.294 238.5,201C 233.934,197.586 229.268,194.42 224.5,191.5C 217.247,187.889 216.581,183.223 222.5,177.5C 223.143,175.924 224.143,174.59 225.5,173.5 Z"/></g>
<g><path style="opacity:1" fill="#f0c7cc" d="M 290.5,170.5 C 291.172,171.267 292.005,171.934 293,172.5C 293.498,175.817 293.665,179.15 293.5,182.5C 296.292,182.452 298.125,183.785 299,186.5C 299.399,199.425 296.399,211.425 290,222.5C 288.103,224.016 285.936,224.683 283.5,224.5C 277.121,222.933 271.121,220.6 265.5,217.5C 270.587,217.365 275.421,218.365 280,220.5C 282.202,219.598 284.368,218.598 286.5,217.5C 292.932,210.655 296.599,202.489 297.5,193C 295.875,192.147 295.542,191.147 296.5,190C 294.547,187.047 293.047,183.881 292,180.5C 291.617,181.056 291.117,181.389 290.5,181.5C 290.67,180.178 290.337,179.011 289.5,178C 279.331,174.088 269.998,168.921 261.5,162.5C 261.928,160.595 261.262,158.762 259.5,157C 256.854,156.503 254.187,156.336 251.5,156.5C 251.657,159.344 250.324,161.011 247.5,161.5C 249.562,159.714 250.896,157.381 251.5,154.5C 246.929,152.989 242.596,153.489 238.5,156C 234.727,159.695 231.06,163.529 227.5,167.5C 226.523,169.411 225.857,171.411 225.5,173.5C 224.143,174.59 223.143,175.924 222.5,177.5C 222.34,175.801 222.506,174.134 223,172.5C 227.43,162.806 234.263,155.306 243.5,150C 247.572,149.342 251.572,149.675 255.5,151C 266.285,159.06 277.952,165.56 290.5,170.5 Z"/></g>
<g><path style="opacity:1" fill="#c09fa3" d="M 261.5,162.5 C 254.143,157.84 249.477,159.84 247.5,168.5C 246.377,166.312 246.377,163.979 247.5,161.5C 250.324,161.011 251.657,159.344 251.5,156.5C 254.187,156.336 256.854,156.503 259.5,157C 261.262,158.762 261.928,160.595 261.5,162.5 Z"/></g>
<g><path style="opacity:1" fill="#fedee3" d="M 201.5,192.5 C 207.037,199.203 213.37,205.037 220.5,210C 231.893,216.022 242.893,222.522 253.5,229.5C 253.611,230.117 253.944,230.617 254.5,231C 252.635,232.301 250.635,232.635 248.5,232C 241.722,228.471 235.055,225.138 228.5,222C 236.042,227.272 244.042,231.772 252.5,235.5C 251.375,237.129 250.041,238.629 248.5,240C 248.833,240.333 249.167,240.667 249.5,241C 247.913,241.862 246.246,242.529 244.5,243C 245.815,244.395 245.481,245.395 243.5,246C 243.833,246.333 244.167,246.667 244.5,247C 242.981,248.218 241.814,249.718 241,251.5C 240.508,252.549 240.674,253.549 241.5,254.5C 239.178,255.936 238.511,257.77 239.5,260C 237.699,260.317 237.366,260.984 238.5,262C 237.751,263.734 237.251,265.567 237,267.5C 236.277,270.311 234.444,272.811 231.5,275C 231.957,275.414 232.291,275.914 232.5,276.5C 231.387,279.492 230.054,282.325 228.5,285C 228.833,285.333 229.167,285.667 229.5,286C 227.519,286.605 227.185,287.605 228.5,289C 227.672,289.915 226.672,290.581 225.5,291C 226.337,292.011 226.67,293.178 226.5,294.5C 223.001,294.259 222.668,295.092 225.5,297C 224.167,298.333 222.833,299.667 221.5,301C 221.833,301.333 222.167,301.667 222.5,302C 221.167,304 219.833,306 218.5,308C 219.271,309.998 218.605,311.665 216.5,313C 217.5,315.091 216.833,316.757 214.5,318C 214.833,319 215.167,320 215.5,321C 214.809,322.067 214.309,323.234 214,324.5C 213.667,324.167 213.333,323.833 213,323.5C 211.793,325.44 211.626,327.273 212.5,329C 209.359,329.631 208.359,331.298 209.5,334C 207.147,335.255 206.48,336.922 207.5,339C 206.494,340.338 205.494,341.671 204.5,343C 204.475,345.012 204.475,347.012 204.5,349C 204.047,351.481 203.047,352.814 201.5,353C 201.645,353.772 201.978,354.439 202.5,355C 201.435,356.629 200.101,357.796 198.5,358.5C 199.167,359.167 199.833,359.833 200.5,360.5C 199.359,361.425 199.359,362.259 200.5,363C 199.264,364.388 197.931,365.554 196.5,366.5C 192.049,363.889 187.716,361.056 183.5,358C 178.298,352.63 172.965,347.464 167.5,342.5C 164.899,338.7 162.899,334.533 161.5,330C 162.068,328.128 162.735,326.295 163.5,324.5C 163.291,323.914 162.957,323.414 162.5,323C 163.207,320.457 164.54,318.291 166.5,316.5C 165.975,315.808 165.308,315.308 164.5,315C 165.198,312.546 166.198,310.213 167.5,308C 167.56,305.438 167.227,302.771 166.5,300C 167.968,297.341 168.301,294.674 167.5,292C 168.167,291.667 168.833,291.333 169.5,291C 168.258,287.238 168.925,283.905 171.5,281C 171.507,279.417 171.174,277.751 170.5,276C 173.491,272.882 174.158,269.382 172.5,265.5C 173.552,265.649 174.552,265.483 175.5,265C 174.989,260.511 174.989,255.845 175.5,251C 177.146,249.445 177.479,247.779 176.5,246C 177.921,243.139 178.921,240.139 179.5,237C 179.167,236.667 178.833,236.333 178.5,236C 179.833,231.333 181.167,226.667 182.5,222C 182.167,221.667 181.833,221.333 181.5,221C 184.003,219.216 184.003,217.549 181.5,216C 182.566,212.284 184.566,208.284 187.5,204C 186.692,203.692 186.025,203.192 185.5,202.5C 186.544,201.377 187.21,200.044 187.5,198.5C 186.932,196.796 186.932,195.296 187.5,194C 186.833,193 186.167,192 185.5,191C 186.577,187.842 186.244,184.675 184.5,181.5C 185.355,180.707 186.189,181.04 187,182.5C 193.596,194.091 202.429,203.258 213.5,210C 209.761,206.383 205.928,202.883 202,199.5C 201.508,198.451 201.674,197.451 202.5,196.5C 200.833,194.5 199.167,192.5 197.5,190.5C 197.667,190.167 197.833,189.833 198,189.5C 199.039,190.71 200.206,191.71 201.5,192.5 Z"/></g>
<g><path style="opacity:1" fill="#f9d2d7" d="M 241.5,143.5 C 235.583,149.591 229.749,155.924 224,162.5C 219.439,169.79 215.272,177.29 211.5,185C 215.4,188.81 219.066,192.81 222.5,197C 238.318,207.637 254.985,216.804 272.5,224.5C 272.631,225.239 272.464,225.906 272,226.5C 265.641,223.903 259.141,221.737 252.5,220C 246.777,216.409 240.777,213.575 234.5,211.5C 214.557,200.229 199.891,184.229 190.5,163.5C 188.555,156.522 188.222,149.522 189.5,142.5C 191.079,147.31 192.412,152.31 193.5,157.5C 194.092,160.691 195.259,163.691 197,166.5C 199.51,169.199 201.176,172.199 202,175.5C 200.385,173.095 199.719,173.095 200,175.5C 202.312,178.646 204.812,181.646 207.5,184.5C 208.087,183.767 208.087,182.767 207.5,181.5C 208.482,182.141 209.482,182.807 210.5,183.5C 216.079,171.345 223.412,160.345 232.5,150.5C 235.334,148.498 237.667,145.998 239.5,143C 232.174,136.958 227.84,129.624 226.5,121C 226.316,118.724 226.316,116.39 226.5,114C 224.203,110.689 223.536,107.189 224.5,103.5C 225.496,103.586 226.329,103.252 227,102.5C 228.461,105.348 228.627,108.014 227.5,110.5C 230.308,116.673 232.808,123.006 235,129.5C 238.787,133.442 240.954,138.109 241.5,143.5 Z"/></g>
<g><path style="opacity:1" fill="#fdd4d9" d="M 265.5,217.5 C 250.224,211.195 236.557,202.529 224.5,191.5C 229.268,194.42 233.934,197.586 238.5,201C 244.735,203.294 250.735,205.961 256.5,209C 259.53,209.288 262.364,209.455 265,209.5C 266.461,207.422 268.627,205.422 271.5,203.5C 273.396,202.534 275.396,202.201 277.5,202.5C 278.936,200.184 280.269,197.684 281.5,195C 279.532,190.529 276.198,187.696 271.5,186.5C 270.873,185.583 270.539,184.583 270.5,183.5C 274.484,185.157 278.484,186.824 282.5,188.5C 286.421,187.578 289.088,185.245 290.5,181.5C 291.117,181.389 291.617,181.056 292,180.5C 293.047,183.881 294.547,187.047 296.5,190C 295.542,191.147 295.875,192.147 297.5,193C 296.599,202.489 292.932,210.655 286.5,217.5C 284.368,218.598 282.202,219.598 280,220.5C 275.421,218.365 270.587,217.365 265.5,217.5 Z"/></g>
<g><path style="opacity:1" fill="#f7ccd1" d="M 264.5,145.5 C 270.979,149.241 277.312,153.241 283.5,157.5C 291.3,160.9 298.966,164.567 306.5,168.5C 307.752,170.001 308.752,171.668 309.5,173.5C 309.244,177.862 309.077,182.195 309,186.5C 311.742,187.57 314.242,189.07 316.5,191C 319.289,191.241 321.956,191.908 324.5,193C 326.887,197.616 328.887,202.45 330.5,207.5C 328.171,211.975 326.171,216.141 324.5,220C 324.5,221.333 324.5,222.667 324.5,224C 321.973,227.194 319.14,230.027 316,232.5C 315.421,233.928 315.588,235.262 316.5,236.5C 311.222,235.245 305.889,234.245 300.5,233.5C 298.172,232.282 295.672,231.282 293,230.5C 292.82,228.512 292.986,226.512 293.5,224.5C 298.612,211.495 302.946,198.162 306.5,184.5C 307.462,179.26 305.795,175.093 301.5,172C 292.167,167.333 282.833,162.667 273.5,158C 269.92,155.723 266.586,153.223 263.5,150.5C 262.971,148.417 261.971,146.583 260.5,145C 261.819,144.805 263.153,144.972 264.5,145.5 Z"/></g>
<g><path style="opacity:1" fill="#e4bbc0" d="M 290.5,170.5 C 294.797,171.146 298.797,172.646 302.5,175C 304.712,177.888 306.046,181.055 306.5,184.5C 302.946,198.162 298.612,211.495 293.5,224.5C 290.159,227.031 286.826,227.031 283.5,224.5C 285.936,224.683 288.103,224.016 290,222.5C 296.399,211.425 299.399,199.425 299,186.5C 298.125,183.785 296.292,182.452 293.5,182.5C 293.665,179.15 293.498,175.817 293,172.5C 292.005,171.934 291.172,171.267 290.5,170.5 Z"/></g>
<g><path style="opacity:1" fill="#b19498" d="M 409.5,148.5 C 416.603,161.926 419.437,176.259 418,191.5C 423.245,204.852 422.078,217.519 414.5,229.5C 413.041,229.433 411.708,229.766 410.5,230.5C 410.586,229.504 410.252,228.671 409.5,228C 410.126,227.25 410.626,226.416 411,225.5C 410.771,219.611 411.938,214.111 414.5,209C 414.333,208.5 414.167,208 414,207.5C 413.722,208.416 413.222,209.082 412.5,209.5C 413.795,204.048 414.795,198.548 415.5,193C 414.007,187.549 413.174,182.049 413,176.5C 411.834,175.166 411.667,173.5 412.5,171.5C 411.106,164.714 409.772,158.214 408.5,152C 408.514,150.615 408.848,149.449 409.5,148.5 Z"/></g>
<g><path style="opacity:1" fill="#ddb5ba" d="M 181.5,144.5 C 183.002,146.175 184.335,148.008 185.5,150C 184.872,155.275 186.538,159.775 190.5,163.5C 199.891,184.229 214.557,200.229 234.5,211.5C 249.606,222.65 266.106,229.984 284,233.5C 284.725,232.941 285.558,232.608 286.5,232.5C 293.658,234.119 300.824,235.786 308,237.5C 309.385,237.486 310.551,237.152 311.5,236.5C 325.638,239.347 339.971,240.847 354.5,241C 340.485,241.237 326.485,241.737 312.5,242.5C 302.243,241.102 292.243,238.768 282.5,235.5C 282.67,236.822 282.337,237.989 281.5,239C 282.942,239.377 283.942,240.21 284.5,241.5C 279.061,239.188 273.394,237.354 267.5,236C 262.932,233.548 258.265,231.382 253.5,229.5C 242.893,222.522 231.893,216.022 220.5,210C 213.37,205.037 207.037,199.203 201.5,192.5C 198.486,187.822 194.986,183.489 191,179.5C 187.321,173.148 184.488,166.481 182.5,159.5C 181.727,155.398 181.06,151.231 180.5,147C 180.528,145.93 180.861,145.097 181.5,144.5 Z"/></g>
<g><path style="opacity:1" fill="#f1c6cc" d="M 234.5,211.5 C 240.777,213.575 246.777,216.409 252.5,220C 259.141,221.737 265.641,223.903 272,226.5C 272.464,225.906 272.631,225.239 272.5,224.5C 281.725,227.909 291.059,230.909 300.5,233.5C 303.763,235.568 307.43,236.568 311.5,236.5C 310.551,237.152 309.385,237.486 308,237.5C 300.824,235.786 293.658,234.119 286.5,232.5C 285.558,232.608 284.725,232.941 284,233.5C 266.106,229.984 249.606,222.65 234.5,211.5 Z"/></g>
<g><path style="opacity:1" fill="#d5b8bd" d="M 178.5,146.5 C 176.745,158.696 175.245,171.029 174,183.5C 168.602,204.536 164.269,225.87 161,247.5C 160.901,249.653 160.067,251.319 158.5,252.5C 164.249,216.868 170.915,181.535 178.5,146.5 Z"/></g>
<g><path style="opacity:1" fill="#f6ccd1" d="M 253.5,229.5 C 258.265,231.382 262.932,233.548 267.5,236C 273.394,237.354 279.061,239.188 284.5,241.5C 289.722,242.387 294.722,243.721 299.5,245.5C 304.995,247.173 310.662,248.673 316.5,250C 315.119,251.625 313.452,252.792 311.5,253.5C 297.609,250.611 283.942,246.944 270.5,242.5C 264.192,240.953 258.192,238.62 252.5,235.5C 244.042,231.772 236.042,227.272 228.5,222C 235.055,225.138 241.722,228.471 248.5,232C 250.635,232.635 252.635,232.301 254.5,231C 253.944,230.617 253.611,230.117 253.5,229.5 Z"/></g>
<g><path style="opacity:1" fill="#aa8c8f" d="M 410.5,230.5 C 406.672,234.57 402.339,237.904 397.5,240.5C 388.454,244.706 379.12,247.706 369.5,249.5C 365.158,249.739 360.824,250.073 356.5,250.5C 353.786,248.686 350.119,247.519 345.5,247C 354.557,246.022 363.557,244.688 372.5,243C 378.058,241.778 383.391,239.945 388.5,237.5C 394.789,232.383 400.956,227.049 407,221.5C 409.382,217.687 411.216,213.687 412.5,209.5C 413.222,209.082 413.722,208.416 414,207.5C 414.167,208 414.333,208.5 414.5,209C 411.938,214.111 410.771,219.611 411,225.5C 410.626,226.416 410.126,227.25 409.5,228C 410.252,228.671 410.586,229.504 410.5,230.5 Z"/></g>
<g><path style="opacity:1" fill="#fed8dd" d="M 252.5,235.5 C 258.192,238.62 264.192,240.953 270.5,242.5C 272.426,244.293 274.759,245.293 277.5,245.5C 274.816,246.732 271.983,246.732 269,245.5C 265.776,246.777 263.109,248.777 261,251.5C 260.282,250.549 259.449,250.383 258.5,251C 259.783,255.351 258.783,260.018 255.5,265C 256.167,265.333 256.833,265.667 257.5,266C 252.367,274.732 249.2,284.232 248,294.5C 244.343,302.518 240.51,310.852 236.5,319.5C 237.609,320.965 237.109,321.965 235,322.5C 234.383,323.449 234.549,324.282 235.5,325C 233.368,325.918 232.701,327.251 233.5,329C 232.169,332.839 230.169,336.172 227.5,339C 227.957,339.414 228.291,339.914 228.5,340.5C 225.698,347.261 222.698,353.427 219.5,359C 221.891,360.309 221.891,361.309 219.5,362C 220.167,362.333 220.833,362.667 221.5,363C 221.251,365.249 219.918,367.249 217.5,369C 218.476,371.147 218.309,373.314 217,375.5C 216.667,374.833 216.333,374.167 216,373.5C 215.583,374.756 214.75,375.423 213.5,375.5C 211.692,375.509 210.025,375.009 208.5,374C 204.268,371.725 200.268,369.225 196.5,366.5C 197.931,365.554 199.264,364.388 200.5,363C 199.359,362.259 199.359,361.425 200.5,360.5C 199.833,359.833 199.167,359.167 198.5,358.5C 200.101,357.796 201.435,356.629 202.5,355C 201.978,354.439 201.645,353.772 201.5,353C 203.047,352.814 204.047,351.481 204.5,349C 204.475,347.012 204.475,345.012 204.5,343C 205.494,341.671 206.494,340.338 207.5,339C 206.48,336.922 207.147,335.255 209.5,334C 208.359,331.298 209.359,329.631 212.5,329C 211.626,327.273 211.793,325.44 213,323.5C 213.333,323.833 213.667,324.167 214,324.5C 214.309,323.234 214.809,322.067 215.5,321C 215.167,320 214.833,319 214.5,318C 216.833,316.757 217.5,315.091 216.5,313C 218.605,311.665 219.271,309.998 218.5,308C 219.833,306 221.167,304 222.5,302C 222.167,301.667 221.833,301.333 221.5,301C 222.833,299.667 224.167,298.333 225.5,297C 222.668,295.092 223.001,294.259 226.5,294.5C 226.67,293.178 226.337,292.011 225.5,291C 226.672,290.581 227.672,289.915 228.5,289C 227.185,287.605 227.519,286.605 229.5,286C 229.167,285.667 228.833,285.333 228.5,285C 230.054,282.325 231.387,279.492 232.5,276.5C 232.291,275.914 231.957,275.414 231.5,275C 234.444,272.811 236.277,270.311 237,267.5C 237.251,265.567 237.751,263.734 238.5,262C 237.366,260.984 237.699,260.317 239.5,260C 238.511,257.77 239.178,255.936 241.5,254.5C 240.674,253.549 240.508,252.549 241,251.5C 241.814,249.718 242.981,248.218 244.5,247C 244.167,246.667 243.833,246.333 243.5,246C 245.481,245.395 245.815,244.395 244.5,243C 246.246,242.529 247.913,241.862 249.5,241C 249.167,240.667 248.833,240.333 248.5,240C 250.041,238.629 251.375,237.129 252.5,235.5 Z"/></g>
<g><path style="opacity:1" fill="#fdd2d7" d="M 277.5,245.5 C 281.433,247.033 285.433,248.367 289.5,249.5C 286.772,250.205 283.939,250.872 281,251.5C 279.869,250.396 279.035,250.729 278.5,252.5C 278.709,253.086 279.043,253.586 279.5,254C 277.981,255.351 276.648,256.851 275.5,258.5C 275.709,259.086 276.043,259.586 276.5,260C 275.07,262.182 273.57,264.349 272,266.5C 271.625,269 270.792,271.333 269.5,273.5C 269.709,274.086 270.043,274.586 270.5,275C 269.604,277.179 268.271,279.012 266.5,280.5C 267.002,281.716 267.335,282.883 267.5,284C 265.796,289.499 263.296,294.999 260,300.5C 260.592,303.472 259.426,305.972 256.5,308C 256.833,308.333 257.167,308.667 257.5,309C 256.257,310.154 255.257,311.488 254.5,313C 255.167,313.333 255.833,313.667 256.5,314C 254.328,316.14 252.328,318.474 250.5,321C 250.833,321.333 251.167,321.667 251.5,322C 247.014,330.768 243.514,339.935 241,349.5C 239.648,352.994 237.815,356.16 235.5,359C 236.554,360.388 236.72,361.888 236,363.5C 234.869,362.396 234.035,362.729 233.5,364.5C 233.709,365.086 234.043,365.586 234.5,366C 232.192,367.588 231.525,369.588 232.5,372C 230.723,375.209 229.057,378.376 227.5,381.5C 222.358,380.458 217.691,378.458 213.5,375.5C 214.75,375.423 215.583,374.756 216,373.5C 216.333,374.167 216.667,374.833 217,375.5C 218.309,373.314 218.476,371.147 217.5,369C 219.918,367.249 221.251,365.249 221.5,363C 220.833,362.667 220.167,362.333 219.5,362C 221.891,361.309 221.891,360.309 219.5,359C 222.698,353.427 225.698,347.261 228.5,340.5C 228.291,339.914 227.957,339.414 227.5,339C 230.169,336.172 232.169,332.839 233.5,329C 232.701,327.251 233.368,325.918 235.5,325C 234.549,324.282 234.383,323.449 235,322.5C 237.109,321.965 237.609,320.965 236.5,319.5C 240.51,310.852 244.343,302.518 248,294.5C 249.2,284.232 252.367,274.732 257.5,266C 256.833,265.667 256.167,265.333 255.5,265C 258.783,260.018 259.783,255.351 258.5,251C 259.449,250.383 260.282,250.549 261,251.5C 263.109,248.777 265.776,246.777 269,245.5C 271.983,246.732 274.816,246.732 277.5,245.5 Z"/></g>
<g><path style="opacity:1" fill="#c1a6a9" d="M 414.5,229.5 C 391.122,275.256 366.956,320.589 342,365.5C 336.966,370.199 332.3,375.199 328,380.5C 314.667,405.167 301.333,429.833 288,454.5C 284.624,459.377 280.457,463.377 275.5,466.5C 275.966,464.799 275.966,463.299 275.5,462C 276.833,460.667 278.167,459.333 279.5,458C 279.167,457 278.833,456 278.5,455C 279.253,453.513 280.086,453.346 281,454.5C 286.711,441.772 293.544,428.939 301.5,416C 301.043,415.586 300.709,415.086 300.5,414.5C 301.76,413.618 302.926,412.618 304,411.5C 305.333,407.5 306.667,403.5 308,399.5C 310.443,397.207 312.276,394.707 313.5,392C 313.167,391.667 312.833,391.333 312.5,391C 314.099,389.934 315.099,388.434 315.5,386.5C 314.975,385.808 314.308,385.308 313.5,385C 317.123,383.071 320.79,381.237 324.5,379.5C 324.756,375.617 325.922,372.284 328,369.5C 330.747,367.507 332.914,365.007 334.5,362C 334.167,361.667 333.833,361.333 333.5,361C 334.5,360.667 335.5,360.333 336.5,360C 336.167,359.667 335.833,359.333 335.5,359C 337.662,355.895 339.828,352.728 342,349.5C 342.333,348.167 342.667,346.833 343,345.5C 343.333,345.833 343.667,346.167 344,346.5C 344.273,344.671 345.107,343.171 346.5,342C 346.472,338.409 348.139,335.409 351.5,333C 350.185,331.605 350.519,330.605 352.5,330C 351.483,328.951 351.316,327.784 352,326.5C 352.333,326.833 352.667,327.167 353,327.5C 354.113,326.24 354.28,325.073 353.5,324C 355.5,323.333 356.833,322 357.5,320C 355.099,319.195 355.266,318.362 358,317.5C 358.707,315.919 359.54,314.419 360.5,313C 359.346,312.086 359.513,311.253 361,310.5C 361.333,310.833 361.667,311.167 362,311.5C 362,310.167 362,308.833 362,307.5C 366.924,297.528 372.424,288.028 378.5,279C 378.167,278.667 377.833,278.333 377.5,278C 378.659,276.173 379.992,274.507 381.5,273C 381.5,271.667 381.5,270.333 381.5,269C 382.486,266.672 384.486,264.672 387.5,263C 387.167,262.667 386.833,262.333 386.5,262C 387.918,257.674 390.251,253.841 393.5,250.5C 393.167,250.167 392.833,249.833 392.5,249.5C 389.004,251.298 385.337,252.131 381.5,252C 384.833,250.667 388.167,249.333 391.5,248C 392.339,244.951 394.339,242.451 397.5,240.5C 402.339,237.904 406.672,234.57 410.5,230.5C 411.708,229.766 413.041,229.433 414.5,229.5 Z"/></g>
<g><path style="opacity:1" fill="#f7ccd1" d="M 289.5,249.5 C 292.112,250.371 294.779,251.037 297.5,251.5C 296.602,252.158 295.602,252.824 294.5,253.5C 293.359,254.425 293.359,255.259 294.5,256C 292.321,256.442 291.655,257.442 292.5,259C 291.211,262.197 289.211,264.863 286.5,267C 286.15,272.692 284.15,278.025 280.5,283C 280.833,283.333 281.167,283.667 281.5,284C 276.753,293.326 272.42,302.826 268.5,312.5C 269.571,314.325 268.904,315.492 266.5,316C 266.957,316.414 267.291,316.914 267.5,317.5C 263.503,324.4 261.003,331.067 260,337.5C 256.09,346.319 251.923,354.986 247.5,363.5C 247.709,364.086 248.043,364.586 248.5,365C 247.046,367.244 245.712,369.577 244.5,372C 245.061,373.566 244.394,374.899 242.5,376C 242.833,377 243.167,378 243.5,379C 241.679,380.896 240.346,383.063 239.5,385.5C 235.216,384.739 231.216,383.405 227.5,381.5C 229.057,378.376 230.723,375.209 232.5,372C 231.525,369.588 232.192,367.588 234.5,366C 234.043,365.586 233.709,365.086 233.5,364.5C 234.035,362.729 234.869,362.396 236,363.5C 236.72,361.888 236.554,360.388 235.5,359C 237.815,356.16 239.648,352.994 241,349.5C 243.514,339.935 247.014,330.768 251.5,322C 251.167,321.667 250.833,321.333 250.5,321C 252.328,318.474 254.328,316.14 256.5,314C 255.833,313.667 255.167,313.333 254.5,313C 255.257,311.488 256.257,310.154 257.5,309C 257.167,308.667 256.833,308.333 256.5,308C 259.426,305.972 260.592,303.472 260,300.5C 263.296,294.999 265.796,289.499 267.5,284C 267.335,282.883 267.002,281.716 266.5,280.5C 268.271,279.012 269.604,277.179 270.5,275C 270.043,274.586 269.709,274.086 269.5,273.5C 270.792,271.333 271.625,269 272,266.5C 273.57,264.349 275.07,262.182 276.5,260C 276.043,259.586 275.709,259.086 275.5,258.5C 276.648,256.851 277.981,255.351 279.5,254C 279.043,253.586 278.709,253.086 278.5,252.5C 279.035,250.729 279.869,250.396 281,251.5C 283.939,250.872 286.772,250.205 289.5,249.5 Z"/></g>
<g><path style="opacity:1" fill="#dbb4b9" d="M 270.5,242.5 C 283.942,246.944 297.609,250.611 311.5,253.5C 313.452,252.792 315.119,251.625 316.5,250C 310.662,248.673 304.995,247.173 299.5,245.5C 311.378,248.014 323.378,249.681 335.5,250.5C 342.661,251.523 349.661,251.523 356.5,250.5C 360.824,250.073 365.158,249.739 369.5,249.5C 370.762,249.907 372.095,250.24 373.5,250.5C 372.624,251.251 371.624,251.751 370.5,252C 370.957,252.414 371.291,252.914 371.5,253.5C 370.5,253.833 369.5,254.167 368.5,254.5C 355.71,255.858 343.043,256.858 330.5,257.5C 327.833,257.167 325.167,256.833 322.5,256.5C 321.833,256.5 321.167,256.5 320.5,256.5C 312.767,255.031 305.1,253.364 297.5,251.5C 294.779,251.037 292.112,250.371 289.5,249.5C 285.433,248.367 281.433,247.033 277.5,245.5C 274.759,245.293 272.426,244.293 270.5,242.5 Z"/></g>
<g><path style="opacity:1" fill="#f1c6cb" d="M 297.5,251.5 C 305.1,253.364 312.767,255.031 320.5,256.5C 316.491,257.61 312.657,257.61 309,256.5C 307,258.5 305,260.5 303,262.5C 299.332,272.593 294.832,282.093 289.5,291C 286.503,300.966 282.837,310.966 278.5,321C 279.177,323.537 278.177,325.537 275.5,327C 276.022,327.561 276.355,328.228 276.5,329C 274.714,330.204 273.38,331.871 272.5,334C 272.835,335.503 272.835,336.836 272.5,338C 271.5,339 270.5,340 269.5,341C 269.5,342.667 269.5,344.333 269.5,346C 262.543,357.966 257.71,370.132 255,382.5C 254.391,386.283 252.224,387.95 248.5,387.5C 245.402,387.244 242.402,386.578 239.5,385.5C 240.346,383.063 241.679,380.896 243.5,379C 243.167,378 242.833,377 242.5,376C 244.394,374.899 245.061,373.566 244.5,372C 245.712,369.577 247.046,367.244 248.5,365C 248.043,364.586 247.709,364.086 247.5,363.5C 251.923,354.986 256.09,346.319 260,337.5C 261.003,331.067 263.503,324.4 267.5,317.5C 267.291,316.914 266.957,316.414 266.5,316C 268.904,315.492 269.571,314.325 268.5,312.5C 272.42,302.826 276.753,293.326 281.5,284C 281.167,283.667 280.833,283.333 280.5,283C 284.15,278.025 286.15,272.692 286.5,267C 289.211,264.863 291.211,262.197 292.5,259C 291.655,257.442 292.321,256.442 294.5,256C 293.359,255.259 293.359,254.425 294.5,253.5C 295.602,252.824 296.602,252.158 297.5,251.5 Z"/></g>
<g><path style="opacity:1" fill="#ebcbcf" d="M 179.5,142.5 C 179.666,148.842 179.5,155.175 179,161.5C 178.667,159.833 178.333,158.167 178,156.5C 177.833,157.667 177.667,158.833 177.5,160C 179.29,171.204 178.624,182.204 175.5,193C 175.957,193.414 176.291,193.914 176.5,194.5C 168.064,234.042 160.398,274.376 153.5,315.5C 153.167,315.5 152.833,315.5 152.5,315.5C 150.635,306.929 150.135,298.262 151,289.5C 153.505,277.125 156.005,264.792 158.5,252.5C 160.067,251.319 160.901,249.653 161,247.5C 164.269,225.87 168.602,204.536 174,183.5C 175.245,171.029 176.745,158.696 178.5,146.5C 178.232,144.901 178.566,143.568 179.5,142.5 Z"/></g>
<g><path style="opacity:1" fill="#eac1c6" d="M 320.5,256.5 C 321.167,256.5 321.833,256.5 322.5,256.5C 319.849,259.091 317.182,261.757 314.5,264.5C 311.694,269.281 309.027,274.114 306.5,279C 306.165,280.164 306.165,281.497 306.5,283C 304.261,286.771 302.094,290.604 300,294.5C 299.316,295.784 299.483,296.951 300.5,298C 296.312,304.329 293.646,310.995 292.5,318C 290.681,320.056 290.015,322.223 290.5,324.5C 289.5,325.333 288.5,326.167 287.5,327C 288.517,328.049 288.684,329.216 288,330.5C 284.498,337.012 280.998,343.512 277.5,350C 277.833,350.333 278.167,350.667 278.5,351C 276.494,354.008 274.494,357.008 272.5,360C 272.833,360.333 273.167,360.667 273.5,361C 272.353,363.488 270.686,365.488 268.5,367C 269.051,368.398 269.384,369.732 269.5,371C 266.677,376.781 263.844,382.614 261,388.5C 256.635,389.848 252.468,389.514 248.5,387.5C 252.224,387.95 254.391,386.283 255,382.5C 257.71,370.132 262.543,357.966 269.5,346C 269.5,344.333 269.5,342.667 269.5,341C 270.5,340 271.5,339 272.5,338C 272.835,336.836 272.835,335.503 272.5,334C 273.38,331.871 274.714,330.204 276.5,329C 276.355,328.228 276.022,327.561 275.5,327C 278.177,325.537 279.177,323.537 278.5,321C 282.837,310.966 286.503,300.966 289.5,291C 294.832,282.093 299.332,272.593 303,262.5C 305,260.5 307,258.5 309,256.5C 312.657,257.61 316.491,257.61 320.5,256.5 Z"/></g>
<g><path style="opacity:1" fill="#e2babf" d="M 322.5,256.5 C 325.167,256.833 327.833,257.167 330.5,257.5C 332.833,257.5 335.167,257.5 337.5,257.5C 337.804,258.15 338.137,258.817 338.5,259.5C 336.483,262.062 334.15,264.228 331.5,266C 331.833,266.333 332.167,266.667 332.5,267C 331.033,268.098 330.199,269.598 330,271.5C 329.282,270.549 328.449,270.383 327.5,271C 328.357,271.689 329.023,272.522 329.5,273.5C 327.282,274.924 325.782,276.924 325,279.5C 321.056,290 316.722,300.333 312,310.5C 311.25,311.126 310.416,311.626 309.5,312C 309.972,314.399 308.972,316.399 306.5,318C 306.833,318.333 307.167,318.667 307.5,319C 302.102,328.963 297.102,339.13 292.5,349.5C 292.215,355.83 289.548,361.33 284.5,366C 284.5,368 284.5,370 284.5,372C 280.183,377.661 277.183,383.494 275.5,389.5C 272.941,389.198 270.607,389.532 268.5,390.5C 267.624,390.369 266.957,390.702 266.5,391.5C 267.325,392.386 268.325,392.719 269.5,392.5C 271.265,393.461 273.265,393.795 275.5,393.5C 276.041,396.652 275.041,399.152 272.5,401C 272.833,401.333 273.167,401.667 273.5,402C 271.833,403 270.5,404.333 269.5,406C 269.833,406.333 270.167,406.667 270.5,407C 269.773,408.399 269.273,409.899 269,411.5C 267.238,414.061 265.404,416.561 263.5,419C 263.833,420 264.167,421 264.5,422C 261.828,426.19 259.495,430.523 257.5,435C 255.702,443.103 252.035,450.603 246.5,457.5C 246.709,458.086 247.043,458.586 247.5,459C 246.636,460.137 245.636,461.47 244.5,463C 244.833,464 245.167,465 245.5,466C 242.853,466.315 242.187,467.482 243.5,469.5C 243.154,470.696 242.654,470.696 242,469.5C 240.887,470.76 240.72,471.927 241.5,473C 240.5,473.833 239.5,474.667 238.5,475.5C 239.025,476.192 239.692,476.692 240.5,477C 234.128,478.691 227.795,479.857 221.5,480.5C 215.858,480.504 210.525,479.504 205.5,477.5C 208.5,477.5 211.5,477.5 214.5,477.5C 218.967,478.956 223.3,478.789 227.5,477C 227.167,476.667 226.833,476.333 226.5,476C 227.81,473.384 229.476,471.051 231.5,469C 231.043,468.586 230.709,468.086 230.5,467.5C 233.61,464.053 235.61,460.387 236.5,456.5C 235.391,455.035 235.891,454.035 238,453.5C 238.516,450.966 239.683,448.8 241.5,447C 240.939,445.434 241.606,444.101 243.5,443C 242.949,441.602 242.616,440.268 242.5,439C 244.833,437.333 247.167,435.667 249.5,434C 248.273,432.413 248.606,431.079 250.5,430C 249.643,429.311 248.977,428.478 248.5,427.5C 249.711,425.578 251.044,423.745 252.5,422C 252.694,420.57 252.694,419.07 252.5,417.5C 254.657,415.178 256.99,413.011 259.5,411C 259.043,410.586 258.709,410.086 258.5,409.5C 261.267,404.992 263.934,400.492 266.5,396C 263.258,395.717 262.924,394.883 265.5,393.5C 259.543,392.177 253.543,391.177 247.5,390.5C 243.484,389.488 239.484,388.488 235.5,387.5C 232.061,385.796 228.395,384.462 224.5,383.5C 220.299,382.214 216.299,380.547 212.5,378.5C 206.003,375.086 199.67,371.419 193.5,367.5C 183.519,360.519 174.853,352.186 167.5,342.5C 172.965,347.464 178.298,352.63 183.5,358C 187.716,361.056 192.049,363.889 196.5,366.5C 200.268,369.225 204.268,371.725 208.5,374C 210.025,375.009 211.692,375.509 213.5,375.5C 217.691,378.458 222.358,380.458 227.5,381.5C 231.216,383.405 235.216,384.739 239.5,385.5C 242.402,386.578 245.402,387.244 248.5,387.5C 252.468,389.514 256.635,389.848 261,388.5C 263.844,382.614 266.677,376.781 269.5,371C 269.384,369.732 269.051,368.398 268.5,367C 270.686,365.488 272.353,363.488 273.5,361C 273.167,360.667 272.833,360.333 272.5,360C 274.494,357.008 276.494,354.008 278.5,351C 278.167,350.667 277.833,350.333 277.5,350C 280.998,343.512 284.498,337.012 288,330.5C 288.684,329.216 288.517,328.049 287.5,327C 288.5,326.167 289.5,325.333 290.5,324.5C 290.015,322.223 290.681,320.056 292.5,318C 293.646,310.995 296.312,304.329 300.5,298C 299.483,296.951 299.316,295.784 300,294.5C 302.094,290.604 304.261,286.771 306.5,283C 306.165,281.497 306.165,280.164 306.5,279C 309.027,274.114 311.694,269.281 314.5,264.5C 317.182,261.757 319.849,259.091 322.5,256.5 Z"/></g>
<g><path style="opacity:1" fill="#d2aeb3" d="M 296.5,389.5 C 297.048,387.606 298.048,385.94 299.5,384.5C 299.291,383.914 298.957,383.414 298.5,383C 299.79,380.658 301.79,378.324 304.5,376C 304.335,374.883 304.002,373.716 303.5,372.5C 304.441,372.511 305.108,372.011 305.5,371C 305.355,370.228 305.022,369.561 304.5,369C 307.492,367.893 308.159,366.226 306.5,364C 309.188,363.218 310.188,361.718 309.5,359.5C 310.737,358.719 311.737,357.719 312.5,356.5C 311.754,355.264 311.421,353.93 311.5,352.5C 315.08,352.03 315.747,350.696 313.5,348.5C 316.423,346.24 317.923,343.24 318,339.5C 318.333,339.833 318.667,340.167 319,340.5C 320.034,337.014 321.367,333.681 323,330.5C 323.903,329.299 325.069,328.465 326.5,328C 325.949,326.602 325.616,325.268 325.5,324C 325.952,322.388 327.285,321.388 329.5,321C 329.043,320.586 328.709,320.086 328.5,319.5C 329.154,317.885 329.654,316.218 330,314.5C 330.333,314.833 330.667,315.167 331,315.5C 331.309,314.234 331.809,313.067 332.5,312C 332.167,311.667 331.833,311.333 331.5,311C 332.672,310.581 333.672,309.915 334.5,309C 334.835,307.836 334.835,306.503 334.5,305C 336.822,301.835 338.489,298.335 339.5,294.5C 340.396,295.506 341.062,295.506 341.5,294.5C 340.975,293.808 340.308,293.308 339.5,293C 340.676,291.326 342.01,289.826 343.5,288.5C 342.814,286.936 342.981,285.269 344,283.5C 344.333,284.167 344.667,284.833 345,285.5C 345.333,283.5 345.667,281.5 346,279.5C 347.073,280.28 348.24,280.113 349.5,279C 348.328,278.581 347.328,277.915 346.5,277C 346.952,275.388 348.285,274.388 350.5,274C 350.167,273.667 349.833,273.333 349.5,273C 353.79,272.132 354.456,270.132 351.5,267C 352.253,265.513 353.086,265.346 354,266.5C 356.578,264.318 358.412,262.151 359.5,260C 358.619,259.292 357.953,258.458 357.5,257.5C 362.373,257.12 367.206,256.453 372,255.5C 372.772,255.645 373.439,255.978 374,256.5C 375.434,254.864 377.267,253.864 379.5,253.5C 382.081,254.68 381.914,255.68 379,256.5C 378.233,259.503 376.733,262.003 374.5,264C 375.895,266.569 375.228,268.569 372.5,270C 372.833,270.333 373.167,270.667 373.5,271C 368.335,276.176 364.335,282.176 361.5,289C 362.167,289.333 362.833,289.667 363.5,290C 361.332,291.874 359.832,293.707 359,295.5C 358.383,296.449 358.549,297.282 359.5,298C 357.415,300.122 355.415,302.289 353.5,304.5C 354.326,305.451 354.492,306.451 354,307.5C 353.08,307.93 352.247,308.264 351.5,308.5C 352.811,309.258 353.311,310.258 353,311.5C 352.667,311.167 352.333,310.833 352,310.5C 351.558,312.679 350.558,313.345 349,312.5C 348.383,313.449 348.549,314.282 349.5,315C 346.833,315.667 346.833,316.333 349.5,317C 347.893,318.049 347.227,319.549 347.5,321.5C 344.402,321.413 344.068,321.913 346.5,323C 344.519,323.605 344.185,324.605 345.5,326C 343.606,327.775 341.939,329.775 340.5,332C 341.066,334.361 340.066,336.194 337.5,337.5C 336.571,338.689 336.238,340.022 336.5,341.5C 333.167,341.837 332.167,343.504 333.5,346.5C 330.316,347.203 328.816,349.203 329,352.5C 328.25,353.126 327.416,353.626 326.5,354C 327.308,354.308 327.975,354.808 328.5,355.5C 326.371,357.766 324.204,360.099 322,362.5C 321.607,364.199 322.107,365.699 323.5,367C 321.52,367.633 319.853,369.3 318.5,372C 318.112,373.525 318.112,375.192 318.5,377C 315.114,379.34 312.78,382.007 311.5,385C 306.527,386.659 301.527,388.159 296.5,389.5 Z"/></g>
<g><path style="opacity:1" fill="#ccacaf" d="M 397.5,240.5 C 394.339,242.451 392.339,244.951 391.5,248C 388.167,249.333 384.833,250.667 381.5,252C 385.337,252.131 389.004,251.298 392.5,249.5C 392.833,249.833 393.167,250.167 393.5,250.5C 390.251,253.841 387.918,257.674 386.5,262C 386.833,262.333 387.167,262.667 387.5,263C 384.486,264.672 382.486,266.672 381.5,269C 381.5,270.333 381.5,271.667 381.5,273C 379.992,274.507 378.659,276.173 377.5,278C 377.833,278.333 378.167,278.667 378.5,279C 372.424,288.028 366.924,297.528 362,307.5C 362,308.833 362,310.167 362,311.5C 361.667,311.167 361.333,310.833 361,310.5C 359.513,311.253 359.346,312.086 360.5,313C 359.54,314.419 358.707,315.919 358,317.5C 355.266,318.362 355.099,319.195 357.5,320C 356.833,322 355.5,323.333 353.5,324C 354.28,325.073 354.113,326.24 353,327.5C 352.667,327.167 352.333,326.833 352,326.5C 351.316,327.784 351.483,328.951 352.5,330C 350.519,330.605 350.185,331.605 351.5,333C 348.139,335.409 346.472,338.409 346.5,342C 345.107,343.171 344.273,344.671 344,346.5C 343.667,346.167 343.333,345.833 343,345.5C 342.667,346.833 342.333,348.167 342,349.5C 339.828,352.728 337.662,355.895 335.5,359C 335.833,359.333 336.167,359.667 336.5,360C 335.5,360.333 334.5,360.667 333.5,361C 333.833,361.333 334.167,361.667 334.5,362C 332.914,365.007 330.747,367.507 328,369.5C 325.922,372.284 324.756,375.617 324.5,379.5C 320.79,381.237 317.123,383.071 313.5,385C 314.308,385.308 314.975,385.808 315.5,386.5C 315.099,388.434 314.099,389.934 312.5,391C 312.833,391.333 313.167,391.667 313.5,392C 312.276,394.707 310.443,397.207 308,399.5C 306.667,403.5 305.333,407.5 304,411.5C 302.926,412.618 301.76,413.618 300.5,414.5C 300.709,415.086 301.043,415.586 301.5,416C 293.544,428.939 286.711,441.772 281,454.5C 280.086,453.346 279.253,453.513 278.5,455C 278.833,456 279.167,457 279.5,458C 278.167,459.333 276.833,460.667 275.5,462C 275.966,463.299 275.966,464.799 275.5,466.5C 268.806,472.012 261.139,475.679 252.5,477.5C 248.661,477.388 248.661,476.721 252.5,475.5C 253.141,473.704 254.141,472.204 255.5,471C 254.359,468.298 255.359,466.631 258.5,466C 258.835,464.836 258.835,463.503 258.5,462C 261.464,461.16 261.797,460.16 259.5,459C 261.917,457.856 262.584,456.19 261.5,454C 263.061,453.682 264.228,452.849 265,451.5C 265.333,451.833 265.667,452.167 266,452.5C 266.346,450.782 266.846,449.115 267.5,447.5C 266.145,446.325 266.312,445.325 268,444.5C 268.333,444.833 268.667,445.167 269,445.5C 269.684,444.216 269.517,443.049 268.5,442C 270.02,440.115 271.02,437.949 271.5,435.5C 274.619,434.306 274.952,432.806 272.5,431C 274.99,426.483 277.657,422.15 280.5,418C 280.088,414.563 281.755,412.23 285.5,411C 284.5,410.667 283.5,410.333 282.5,410C 283.849,409.228 284.682,408.061 285,406.5C 285.333,406.833 285.667,407.167 286,407.5C 286.945,403.886 287.612,400.219 288,396.5C 288.333,396.833 288.667,397.167 289,397.5C 289.448,395.776 290.282,395.109 291.5,395.5C 291.023,394.522 290.357,393.689 289.5,393C 282.842,392.5 276.175,392.334 269.5,392.5C 268.325,392.719 267.325,392.386 266.5,391.5C 266.957,390.702 267.624,390.369 268.5,390.5C 277.857,390.65 287.191,390.317 296.5,389.5C 301.527,388.159 306.527,386.659 311.5,385C 312.78,382.007 315.114,379.34 318.5,377C 318.112,375.192 318.112,373.525 318.5,372C 319.853,369.3 321.52,367.633 323.5,367C 322.107,365.699 321.607,364.199 322,362.5C 324.204,360.099 326.371,357.766 328.5,355.5C 327.975,354.808 327.308,354.308 326.5,354C 327.416,353.626 328.25,353.126 329,352.5C 328.816,349.203 330.316,347.203 333.5,346.5C 332.167,343.504 333.167,341.837 336.5,341.5C 336.238,340.022 336.571,338.689 337.5,337.5C 340.066,336.194 341.066,334.361 340.5,332C 341.939,329.775 343.606,327.775 345.5,326C 344.185,324.605 344.519,323.605 346.5,323C 344.068,321.913 344.402,321.413 347.5,321.5C 347.227,319.549 347.893,318.049 349.5,317C 346.833,316.333 346.833,315.667 349.5,315C 348.549,314.282 348.383,313.449 349,312.5C 350.558,313.345 351.558,312.679 352,310.5C 352.333,310.833 352.667,311.167 353,311.5C 353.311,310.258 352.811,309.258 351.5,308.5C 352.247,308.264 353.08,307.93 354,307.5C 354.492,306.451 354.326,305.451 353.5,304.5C 355.415,302.289 357.415,300.122 359.5,298C 358.549,297.282 358.383,296.449 359,295.5C 359.832,293.707 361.332,291.874 363.5,290C 362.833,289.667 362.167,289.333 361.5,289C 364.335,282.176 368.335,276.176 373.5,271C 373.167,270.667 372.833,270.333 372.5,270C 375.228,268.569 375.895,266.569 374.5,264C 376.733,262.003 378.233,259.503 379,256.5C 381.914,255.68 382.081,254.68 379.5,253.5C 377.267,253.864 375.434,254.864 374,256.5C 373.439,255.978 372.772,255.645 372,255.5C 367.206,256.453 362.373,257.12 357.5,257.5C 350.833,257.5 344.167,257.5 337.5,257.5C 335.167,257.5 332.833,257.5 330.5,257.5C 343.043,256.858 355.71,255.858 368.5,254.5C 369.5,254.167 370.5,253.833 371.5,253.5C 371.291,252.914 370.957,252.414 370.5,252C 371.624,251.751 372.624,251.251 373.5,250.5C 372.095,250.24 370.762,249.907 369.5,249.5C 379.12,247.706 388.454,244.706 397.5,240.5 Z"/></g>
<g><path style="opacity:1" fill="#dbb5b9" d="M 337.5,257.5 C 344.167,257.5 350.833,257.5 357.5,257.5C 357.953,258.458 358.619,259.292 359.5,260C 358.412,262.151 356.578,264.318 354,266.5C 353.086,265.346 352.253,265.513 351.5,267C 354.456,270.132 353.79,272.132 349.5,273C 349.833,273.333 350.167,273.667 350.5,274C 348.285,274.388 346.952,275.388 346.5,277C 347.328,277.915 348.328,278.581 349.5,279C 348.24,280.113 347.073,280.28 346,279.5C 345.667,281.5 345.333,283.5 345,285.5C 344.667,284.833 344.333,284.167 344,283.5C 342.981,285.269 342.814,286.936 343.5,288.5C 342.01,289.826 340.676,291.326 339.5,293C 340.308,293.308 340.975,293.808 341.5,294.5C 341.062,295.506 340.396,295.506 339.5,294.5C 338.489,298.335 336.822,301.835 334.5,305C 334.835,306.503 334.835,307.836 334.5,309C 333.672,309.915 332.672,310.581 331.5,311C 331.833,311.333 332.167,311.667 332.5,312C 331.809,313.067 331.309,314.234 331,315.5C 330.667,315.167 330.333,314.833 330,314.5C 329.654,316.218 329.154,317.885 328.5,319.5C 328.709,320.086 329.043,320.586 329.5,321C 327.285,321.388 325.952,322.388 325.5,324C 325.616,325.268 325.949,326.602 326.5,328C 325.069,328.465 323.903,329.299 323,330.5C 321.367,333.681 320.034,337.014 319,340.5C 318.667,340.167 318.333,339.833 318,339.5C 317.923,343.24 316.423,346.24 313.5,348.5C 315.747,350.696 315.08,352.03 311.5,352.5C 311.421,353.93 311.754,355.264 312.5,356.5C 311.737,357.719 310.737,358.719 309.5,359.5C 310.188,361.718 309.188,363.218 306.5,364C 308.159,366.226 307.492,367.893 304.5,369C 305.022,369.561 305.355,370.228 305.5,371C 305.108,372.011 304.441,372.511 303.5,372.5C 304.002,373.716 304.335,374.883 304.5,376C 301.79,378.324 299.79,380.658 298.5,383C 298.957,383.414 299.291,383.914 299.5,384.5C 298.048,385.94 297.048,387.606 296.5,389.5C 287.191,390.317 277.857,390.65 268.5,390.5C 270.607,389.532 272.941,389.198 275.5,389.5C 277.183,383.494 280.183,377.661 284.5,372C 284.5,370 284.5,368 284.5,366C 289.548,361.33 292.215,355.83 292.5,349.5C 297.102,339.13 302.102,328.963 307.5,319C 307.167,318.667 306.833,318.333 306.5,318C 308.972,316.399 309.972,314.399 309.5,312C 310.416,311.626 311.25,311.126 312,310.5C 316.722,300.333 321.056,290 325,279.5C 325.782,276.924 327.282,274.924 329.5,273.5C 329.023,272.522 328.357,271.689 327.5,271C 328.449,270.383 329.282,270.549 330,271.5C 330.199,269.598 331.033,268.098 332.5,267C 332.167,266.667 331.833,266.333 331.5,266C 334.15,264.228 336.483,262.062 338.5,259.5C 338.137,258.817 337.804,258.15 337.5,257.5 Z"/></g>
<g><path style="opacity:1" fill="#fdd8dd" d="M 182.5,159.5 C 184.488,166.481 187.321,173.148 191,179.5C 194.986,183.489 198.486,187.822 201.5,192.5C 200.206,191.71 199.039,190.71 198,189.5C 197.833,189.833 197.667,190.167 197.5,190.5C 199.167,192.5 200.833,194.5 202.5,196.5C 201.674,197.451 201.508,198.451 202,199.5C 205.928,202.883 209.761,206.383 213.5,210C 202.429,203.258 193.596,194.091 187,182.5C 186.189,181.04 185.355,180.707 184.5,181.5C 186.244,184.675 186.577,187.842 185.5,191C 186.167,192 186.833,193 187.5,194C 186.932,195.296 186.932,196.796 187.5,198.5C 187.21,200.044 186.544,201.377 185.5,202.5C 186.025,203.192 186.692,203.692 187.5,204C 184.566,208.284 182.566,212.284 181.5,216C 184.003,217.549 184.003,219.216 181.5,221C 181.833,221.333 182.167,221.667 182.5,222C 181.167,226.667 179.833,231.333 178.5,236C 178.833,236.333 179.167,236.667 179.5,237C 178.921,240.139 177.921,243.139 176.5,246C 177.479,247.779 177.146,249.445 175.5,251C 174.989,255.845 174.989,260.511 175.5,265C 174.552,265.483 173.552,265.649 172.5,265.5C 174.158,269.382 173.491,272.882 170.5,276C 171.174,277.751 171.507,279.417 171.5,281C 168.925,283.905 168.258,287.238 169.5,291C 168.833,291.333 168.167,291.667 167.5,292C 168.301,294.674 167.968,297.341 166.5,300C 167.227,302.771 167.56,305.438 167.5,308C 166.198,310.213 165.198,312.546 164.5,315C 165.308,315.308 165.975,315.808 166.5,316.5C 164.54,318.291 163.207,320.457 162.5,323C 162.957,323.414 163.291,323.914 163.5,324.5C 162.735,326.295 162.068,328.128 161.5,330C 162.899,334.533 164.899,338.7 167.5,342.5C 166.85,342.196 166.183,341.863 165.5,341.5C 164.685,343.276 163.518,343.943 162,343.5C 161.28,345.112 161.446,346.612 162.5,348C 159.603,351.26 158.603,354.927 159.5,359C 158.833,359.333 158.167,359.667 157.5,360C 158.366,364.237 158.366,368.237 157.5,372C 157.108,373.011 156.441,373.511 155.5,373.5C 156.167,374.167 156.833,374.833 157.5,375.5C 154.755,377.884 154.088,380.718 155.5,384C 154.59,385.805 153.59,387.638 152.5,389.5C 152.463,392.649 152.796,395.815 153.5,399C 152.25,401.381 150.583,403.381 148.5,405C 151.691,403.796 153.857,404.963 155,408.5C 155.333,407.167 155.667,405.833 156,404.5C 156.863,406.749 156.363,408.582 154.5,410C 157.544,410.359 157.878,411.026 155.5,412C 155.616,413.268 155.949,414.602 156.5,416C 155.167,416.667 153.833,417.333 152.5,418C 153.167,418.333 153.833,418.667 154.5,419C 153.648,421.417 152.981,423.917 152.5,426.5C 152.529,428.029 153.196,429.196 154.5,430C 153.24,431.113 152.073,431.28 151,430.5C 150.727,432.329 149.893,433.829 148.5,435C 149.867,437.301 150.534,439.801 150.5,442.5C 145.876,436.922 142.543,430.589 140.5,423.5C 140.212,420.195 141.212,417.362 143.5,415C 143.167,414.667 142.833,414.333 142.5,414C 143.833,408.667 145.167,403.333 146.5,398C 146.167,397.667 145.833,397.333 145.5,397C 146.802,394.787 147.802,392.454 148.5,390C 149.381,386.225 149.381,382.558 148.5,379C 150.269,376.731 150.935,374.398 150.5,372C 151.167,371.667 151.833,371.333 152.5,371C 151.903,369.111 151.569,367.278 151.5,365.5C 153.367,364.203 153.7,362.703 152.5,361C 154.364,357.277 154.697,353.777 153.5,350.5C 155.476,347.29 156.142,343.957 155.5,340.5C 157.019,338.444 157.853,336.11 158,333.5C 159.297,334.784 160.464,334.617 161.5,333C 158.526,328.426 156.526,323.76 155.5,319C 155.955,316.688 156.955,314.688 158.5,313C 158.393,309.935 158.393,306.935 158.5,304C 159.127,301.657 160.127,299.49 161.5,297.5C 160.744,295.549 160.411,293.716 160.5,292C 162.564,290.982 162.898,289.649 161.5,288C 162.723,281.996 164.39,276.163 166.5,270.5C 167.52,266.669 167.52,263.169 166.5,260C 168.394,258.921 168.727,257.587 167.5,256C 168.167,255.667 168.833,255.333 169.5,255C 168.819,251.369 168.819,247.869 169.5,244.5C 170.373,242.587 171.373,240.753 172.5,239C 170.193,237.172 170.526,235.506 173.5,234C 173.393,230.935 173.393,227.935 173.5,225C 174.689,217.149 176.356,209.149 178.5,201C 177.061,197.687 177.561,194.854 180,192.5C 180.436,190.153 180.936,187.819 181.5,185.5C 180.219,182.324 180.219,179.158 181.5,176C 180.833,174 180.167,172 179.5,170C 179.548,168.967 179.881,168.634 180.5,169C 181.522,171.545 182.688,174.045 184,176.5C 183.218,171.341 182.052,166.174 180.5,161C 180.836,159.97 181.503,159.47 182.5,159.5 Z"/></g>
<g><path style="opacity:1" fill="#dcbec3" d="M 152.5,315.5 C 152.833,315.5 153.167,315.5 153.5,315.5C 153.952,320.145 153.952,324.645 153.5,329C 151.616,334.703 150.116,340.537 149,346.5C 147.783,354.75 146.283,362.916 144.5,371C 144.218,378.976 142.385,386.809 139,394.5C 137.928,400.455 137.428,406.455 137.5,412.5C 136.349,407.35 136.183,402.016 137,396.5C 142.018,369.437 147.184,342.437 152.5,315.5 Z"/></g>
<g><path style="opacity:1" fill="#fedce1" d="M 167.5,342.5 C 174.853,352.186 183.519,360.519 193.5,367.5C 193.982,370.451 195.648,372.618 198.5,374C 197.433,376.694 198.433,378.527 201.5,379.5C 200.603,379.669 199.603,380.002 198.5,380.5C 198.096,382.903 198.096,385.403 198.5,388C 195.711,391.383 194.377,395.049 194.5,399C 192.117,399.065 191.45,399.898 192.5,401.5C 192.099,403.434 191.099,404.934 189.5,406C 190.634,407.016 190.301,407.683 188.5,408C 189.517,409.049 189.684,410.216 189,411.5C 187.16,410.167 186.66,410.334 187.5,412C 185.226,414.344 184.059,417.178 184,420.5C 183.667,419.833 183.333,419.167 183,418.5C 182.257,420.441 182.424,422.274 183.5,424C 181.321,424.442 180.655,425.442 181.5,427C 179.2,428.113 178.867,429.613 180.5,431.5C 180.182,432.647 179.516,433.481 178.5,434C 179.517,435.049 179.684,436.216 179,437.5C 177.5,438.667 176,439.833 174.5,441C 175.91,441.368 176.91,442.201 177.5,443.5C 176.092,444.243 174.759,445.077 173.5,446C 174.951,445.737 176.284,445.904 177.5,446.5C 176.408,447.831 175.074,448.664 173.5,449C 175.158,449.725 175.658,450.892 175,452.5C 174.275,450.842 173.108,450.342 171.5,451C 175.335,452.803 175.669,454.136 172.5,455C 173.5,455.333 174.5,455.667 175.5,456C 173.511,460.174 171.344,460.008 169,455.5C 166.639,456.066 164.806,455.066 163.5,452.5C 161.955,451.548 160.288,451.215 158.5,451.5C 155.139,449.105 152.472,446.105 150.5,442.5C 150.534,439.801 149.867,437.301 148.5,435C 149.893,433.829 150.727,432.329 151,430.5C 152.073,431.28 153.24,431.113 154.5,430C 153.196,429.196 152.529,428.029 152.5,426.5C 152.981,423.917 153.648,421.417 154.5,419C 153.833,418.667 153.167,418.333 152.5,418C 153.833,417.333 155.167,416.667 156.5,416C 155.949,414.602 155.616,413.268 155.5,412C 157.878,411.026 157.544,410.359 154.5,410C 156.363,408.582 156.863,406.749 156,404.5C 155.667,405.833 155.333,407.167 155,408.5C 153.857,404.963 151.691,403.796 148.5,405C 150.583,403.381 152.25,401.381 153.5,399C 152.796,395.815 152.463,392.649 152.5,389.5C 153.59,387.638 154.59,385.805 155.5,384C 154.088,380.718 154.755,377.884 157.5,375.5C 156.833,374.833 156.167,374.167 155.5,373.5C 156.441,373.511 157.108,373.011 157.5,372C 158.366,368.237 158.366,364.237 157.5,360C 158.167,359.667 158.833,359.333 159.5,359C 158.603,354.927 159.603,351.26 162.5,348C 161.446,346.612 161.28,345.112 162,343.5C 163.518,343.943 164.685,343.276 165.5,341.5C 166.183,341.863 166.85,342.196 167.5,342.5 Z"/></g>
<g><path style="opacity:1" fill="#fed7dc" d="M 193.5,367.5 C 199.67,371.419 206.003,375.086 212.5,378.5C 213.506,380.999 214.173,383.333 214.5,385.5C 214.144,388.115 212.811,389.948 210.5,391C 211.299,393.75 211.632,396.75 211.5,400C 210.449,401.385 209.116,402.385 207.5,403C 207.833,404 208.167,405 208.5,406C 206.1,410.797 203.433,415.464 200.5,420C 201.061,421.566 200.394,422.899 198.5,424C 198.685,426.818 197.518,429.318 195,431.5C 193.66,436.674 191.493,441.84 188.5,447C 189.167,447.333 189.833,447.667 190.5,448C 188.724,449.671 188.39,451.504 189.5,453.5C 187.652,457.016 185.985,460.183 184.5,463C 184.833,463.333 185.167,463.667 185.5,464C 184.437,465.188 183.103,465.688 181.5,465.5C 177.76,463.299 173.76,461.632 169.5,460.5C 165.273,458.215 161.607,455.215 158.5,451.5C 160.288,451.215 161.955,451.548 163.5,452.5C 164.806,455.066 166.639,456.066 169,455.5C 171.344,460.008 173.511,460.174 175.5,456C 174.5,455.667 173.5,455.333 172.5,455C 175.669,454.136 175.335,452.803 171.5,451C 173.108,450.342 174.275,450.842 175,452.5C 175.658,450.892 175.158,449.725 173.5,449C 175.074,448.664 176.408,447.831 177.5,446.5C 176.284,445.904 174.951,445.737 173.5,446C 174.759,445.077 176.092,444.243 177.5,443.5C 176.91,442.201 175.91,441.368 174.5,441C 176,439.833 177.5,438.667 179,437.5C 179.684,436.216 179.517,435.049 178.5,434C 179.516,433.481 180.182,432.647 180.5,431.5C 178.867,429.613 179.2,428.113 181.5,427C 180.655,425.442 181.321,424.442 183.5,424C 182.424,422.274 182.257,420.441 183,418.5C 183.333,419.167 183.667,419.833 184,420.5C 184.059,417.178 185.226,414.344 187.5,412C 186.66,410.334 187.16,410.167 189,411.5C 189.684,410.216 189.517,409.049 188.5,408C 190.301,407.683 190.634,407.016 189.5,406C 191.099,404.934 192.099,403.434 192.5,401.5C 191.45,399.898 192.117,399.065 194.5,399C 194.377,395.049 195.711,391.383 198.5,388C 198.096,385.403 198.096,382.903 198.5,380.5C 199.603,380.002 200.603,379.669 201.5,379.5C 198.433,378.527 197.433,376.694 198.5,374C 195.648,372.618 193.982,370.451 193.5,367.5 Z"/></g>
<g><path style="opacity:1" fill="#f4d2d6" d="M 178.5,110.5 C 178.646,113.956 178.812,117.622 179,121.5C 182.709,128.839 183.542,136.505 181.5,144.5C 180.861,145.097 180.528,145.93 180.5,147C 181.06,151.231 181.727,155.398 182.5,159.5C 181.503,159.47 180.836,159.97 180.5,161C 182.052,166.174 183.218,171.341 184,176.5C 182.688,174.045 181.522,171.545 180.5,169C 179.881,168.634 179.548,168.967 179.5,170C 180.167,172 180.833,174 181.5,176C 180.219,179.158 180.219,182.324 181.5,185.5C 180.936,187.819 180.436,190.153 180,192.5C 177.561,194.854 177.061,197.687 178.5,201C 176.356,209.149 174.689,217.149 173.5,225C 173.393,227.935 173.393,230.935 173.5,234C 170.526,235.506 170.193,237.172 172.5,239C 171.373,240.753 170.373,242.587 169.5,244.5C 168.819,247.869 168.819,251.369 169.5,255C 168.833,255.333 168.167,255.667 167.5,256C 168.727,257.587 168.394,258.921 166.5,260C 167.52,263.169 167.52,266.669 166.5,270.5C 164.39,276.163 162.723,281.996 161.5,288C 162.898,289.649 162.564,290.982 160.5,292C 160.411,293.716 160.744,295.549 161.5,297.5C 160.127,299.49 159.127,301.657 158.5,304C 158.393,306.935 158.393,309.935 158.5,313C 156.955,314.688 155.955,316.688 155.5,319C 156.526,323.76 158.526,328.426 161.5,333C 160.464,334.617 159.297,334.784 158,333.5C 157.853,336.11 157.019,338.444 155.5,340.5C 156.142,343.957 155.476,347.29 153.5,350.5C 154.697,353.777 154.364,357.277 152.5,361C 153.7,362.703 153.367,364.203 151.5,365.5C 151.569,367.278 151.903,369.111 152.5,371C 151.833,371.333 151.167,371.667 150.5,372C 150.935,374.398 150.269,376.731 148.5,379C 149.381,382.558 149.381,386.225 148.5,390C 147.802,392.454 146.802,394.787 145.5,397C 145.833,397.333 146.167,397.667 146.5,398C 145.167,403.333 143.833,408.667 142.5,414C 142.833,414.333 143.167,414.667 143.5,415C 141.212,417.362 140.212,420.195 140.5,423.5C 138.926,420.093 137.926,416.427 137.5,412.5C 137.428,406.455 137.928,400.455 139,394.5C 142.385,386.809 144.218,378.976 144.5,371C 146.283,362.916 147.783,354.75 149,346.5C 150.116,340.537 151.616,334.703 153.5,329C 153.952,324.645 153.952,320.145 153.5,315.5C 160.398,274.376 168.064,234.042 176.5,194.5C 176.291,193.914 175.957,193.414 175.5,193C 178.624,182.204 179.29,171.204 177.5,160C 177.667,158.833 177.833,157.667 178,156.5C 178.333,158.167 178.667,159.833 179,161.5C 179.5,155.175 179.666,148.842 179.5,142.5C 179.665,139.15 179.498,135.817 179,132.5C 174.707,125.124 174.54,117.791 178.5,110.5 Z"/></g>
<g><path style="opacity:1" fill="#fed2d7" d="M 212.5,378.5 C 216.299,380.547 220.299,382.214 224.5,383.5C 226.259,385.478 227.925,387.644 229.5,390C 226.036,393.085 223.703,396.918 222.5,401.5C 221.624,402.251 220.624,402.751 219.5,403C 220.022,405.481 220.022,407.814 219.5,410C 218.939,411.676 217.939,413.009 216.5,414C 216.833,414.333 217.167,414.667 217.5,415C 215.061,419.21 213.061,423.21 211.5,427C 212.061,428.566 211.394,429.899 209.5,431C 210.167,431.333 210.833,431.667 211.5,432C 207.951,435.866 205.284,439.866 203.5,444C 203.957,444.414 204.291,444.914 204.5,445.5C 202.833,448.839 201.166,452.173 199.5,455.5C 199.623,457.378 199.623,459.211 199.5,461C 198.185,464.487 196.518,467.987 194.5,471.5C 192.801,471.66 191.134,471.494 189.5,471C 186.517,469.365 183.851,467.532 181.5,465.5C 183.103,465.688 184.437,465.188 185.5,464C 185.167,463.667 184.833,463.333 184.5,463C 185.985,460.183 187.652,457.016 189.5,453.5C 188.39,451.504 188.724,449.671 190.5,448C 189.833,447.667 189.167,447.333 188.5,447C 191.493,441.84 193.66,436.674 195,431.5C 197.518,429.318 198.685,426.818 198.5,424C 200.394,422.899 201.061,421.566 200.5,420C 203.433,415.464 206.1,410.797 208.5,406C 208.167,405 207.833,404 207.5,403C 209.116,402.385 210.449,401.385 211.5,400C 211.632,396.75 211.299,393.75 210.5,391C 212.811,389.948 214.144,388.115 214.5,385.5C 214.173,383.333 213.506,380.999 212.5,378.5 Z"/></g>
<g><path style="opacity:1" fill="#f7ccd1" d="M 224.5,383.5 C 228.395,384.462 232.061,385.796 235.5,387.5C 236.343,389.173 237.676,390.34 239.5,391C 237.055,395.168 235.722,399.668 235.5,404.5C 233.641,404.461 232.308,405.294 231.5,407C 231.888,408.808 231.888,410.475 231.5,412C 229.372,415.755 227.372,419.588 225.5,423.5C 225.709,424.086 226.043,424.586 226.5,425C 224.765,427.192 223.598,429.692 223,432.5C 221.389,436.178 219.222,440.011 216.5,444C 216.833,444.333 217.167,444.667 217.5,445C 216.809,446.067 216.309,447.234 216,448.5C 215.667,448.167 215.333,447.833 215,447.5C 214.55,449.519 213.717,451.352 212.5,453C 212.833,453.333 213.167,453.667 213.5,454C 212.687,455.314 211.687,456.481 210.5,457.5C 211.443,459.47 210.776,460.97 208.5,462C 209.815,463.395 209.481,464.395 207.5,465C 208.167,465.333 208.833,465.667 209.5,466C 208.167,466.667 207.167,467.667 206.5,469C 206.5,470 206.5,471 206.5,472C 205.471,473.698 203.971,474.532 202,474.5C 198.921,474.419 196.421,473.419 194.5,471.5C 196.518,467.987 198.185,464.487 199.5,461C 199.623,459.211 199.623,457.378 199.5,455.5C 201.166,452.173 202.833,448.839 204.5,445.5C 204.291,444.914 203.957,444.414 203.5,444C 205.284,439.866 207.951,435.866 211.5,432C 210.833,431.667 210.167,431.333 209.5,431C 211.394,429.899 212.061,428.566 211.5,427C 213.061,423.21 215.061,419.21 217.5,415C 217.167,414.667 216.833,414.333 216.5,414C 217.939,413.009 218.939,411.676 219.5,410C 220.022,407.814 220.022,405.481 219.5,403C 220.624,402.751 221.624,402.251 222.5,401.5C 223.703,396.918 226.036,393.085 229.5,390C 227.925,387.644 226.259,385.478 224.5,383.5 Z"/></g>
<g><path style="opacity:1" fill="#f0c6cb" d="M 235.5,387.5 C 239.484,388.488 243.484,389.488 247.5,390.5C 248.141,391.482 248.807,392.482 249.5,393.5C 247.761,396.364 246.094,399.197 244.5,402C 244.833,402.333 245.167,402.667 245.5,403C 243.428,406.202 241.928,409.702 241,413.5C 240.25,414.126 239.416,414.626 238.5,415C 238.5,416.333 238.5,417.667 238.5,419C 236.311,419.677 235.978,420.844 237.5,422.5C 237.154,423.696 236.654,423.696 236,422.5C 235.08,425.101 234.413,427.768 234,430.5C 231.723,435.416 229.223,440.249 226.5,445C 226.833,445.333 227.167,445.667 227.5,446C 226.636,448.071 225.303,449.738 223.5,451C 223.833,451.333 224.167,451.667 224.5,452C 220.445,460.552 217.111,469.052 214.5,477.5C 211.5,477.5 208.5,477.5 205.5,477.5C 191.943,474.883 179.943,469.216 169.5,460.5C 173.76,461.632 177.76,463.299 181.5,465.5C 183.851,467.532 186.517,469.365 189.5,471C 191.134,471.494 192.801,471.66 194.5,471.5C 196.421,473.419 198.921,474.419 202,474.5C 203.971,474.532 205.471,473.698 206.5,472C 206.5,471 206.5,470 206.5,469C 207.167,467.667 208.167,466.667 209.5,466C 208.833,465.667 208.167,465.333 207.5,465C 209.481,464.395 209.815,463.395 208.5,462C 210.776,460.97 211.443,459.47 210.5,457.5C 211.687,456.481 212.687,455.314 213.5,454C 213.167,453.667 212.833,453.333 212.5,453C 213.717,451.352 214.55,449.519 215,447.5C 215.333,447.833 215.667,448.167 216,448.5C 216.309,447.234 216.809,446.067 217.5,445C 217.167,444.667 216.833,444.333 216.5,444C 219.222,440.011 221.389,436.178 223,432.5C 223.598,429.692 224.765,427.192 226.5,425C 226.043,424.586 225.709,424.086 225.5,423.5C 227.372,419.588 229.372,415.755 231.5,412C 231.888,410.475 231.888,408.808 231.5,407C 232.308,405.294 233.641,404.461 235.5,404.5C 235.722,399.668 237.055,395.168 239.5,391C 237.676,390.34 236.343,389.173 235.5,387.5 Z"/></g>
<g><path style="opacity:1" fill="#e9c0c5" d="M 247.5,390.5 C 253.543,391.177 259.543,392.177 265.5,393.5C 262.924,394.883 263.258,395.717 266.5,396C 263.934,400.492 261.267,404.992 258.5,409.5C 258.709,410.086 259.043,410.586 259.5,411C 256.99,413.011 254.657,415.178 252.5,417.5C 252.694,419.07 252.694,420.57 252.5,422C 251.044,423.745 249.711,425.578 248.5,427.5C 248.977,428.478 249.643,429.311 250.5,430C 248.606,431.079 248.273,432.413 249.5,434C 247.167,435.667 244.833,437.333 242.5,439C 242.616,440.268 242.949,441.602 243.5,443C 241.606,444.101 240.939,445.434 241.5,447C 239.683,448.8 238.516,450.966 238,453.5C 235.891,454.035 235.391,455.035 236.5,456.5C 235.61,460.387 233.61,464.053 230.5,467.5C 230.709,468.086 231.043,468.586 231.5,469C 229.476,471.051 227.81,473.384 226.5,476C 226.833,476.333 227.167,476.667 227.5,477C 223.3,478.789 218.967,478.956 214.5,477.5C 217.111,469.052 220.445,460.552 224.5,452C 224.167,451.667 223.833,451.333 223.5,451C 225.303,449.738 226.636,448.071 227.5,446C 227.167,445.667 226.833,445.333 226.5,445C 229.223,440.249 231.723,435.416 234,430.5C 234.413,427.768 235.08,425.101 236,422.5C 236.654,423.696 237.154,423.696 237.5,422.5C 235.978,420.844 236.311,419.677 238.5,419C 238.5,417.667 238.5,416.333 238.5,415C 239.416,414.626 240.25,414.126 241,413.5C 241.928,409.702 243.428,406.202 245.5,403C 245.167,402.667 244.833,402.333 244.5,402C 246.094,399.197 247.761,396.364 249.5,393.5C 248.807,392.482 248.141,391.482 247.5,390.5 Z"/></g>
<g><path style="opacity:1" fill="#d8b3b8" d="M 269.5,392.5 C 276.175,392.334 282.842,392.5 289.5,393C 290.357,393.689 291.023,394.522 291.5,395.5C 290.282,395.109 289.448,395.776 289,397.5C 288.667,397.167 288.333,396.833 288,396.5C 287.612,400.219 286.945,403.886 286,407.5C 285.667,407.167 285.333,406.833 285,406.5C 284.682,408.061 283.849,409.228 282.5,410C 283.5,410.333 284.5,410.667 285.5,411C 281.755,412.23 280.088,414.563 280.5,418C 277.657,422.15 274.99,426.483 272.5,431C 274.952,432.806 274.619,434.306 271.5,435.5C 271.02,437.949 270.02,440.115 268.5,442C 269.517,443.049 269.684,444.216 269,445.5C 268.667,445.167 268.333,444.833 268,444.5C 266.312,445.325 266.145,446.325 267.5,447.5C 266.846,449.115 266.346,450.782 266,452.5C 265.667,452.167 265.333,451.833 265,451.5C 264.228,452.849 263.061,453.682 261.5,454C 262.584,456.19 261.917,457.856 259.5,459C 261.797,460.16 261.464,461.16 258.5,462C 258.835,463.503 258.835,464.836 258.5,466C 255.359,466.631 254.359,468.298 255.5,471C 254.141,472.204 253.141,473.704 252.5,475.5C 248.661,476.721 248.661,477.388 252.5,477.5C 242.494,481.191 232.161,482.191 221.5,480.5C 227.795,479.857 234.128,478.691 240.5,477C 239.692,476.692 239.025,476.192 238.5,475.5C 239.5,474.667 240.5,473.833 241.5,473C 240.72,471.927 240.887,470.76 242,469.5C 242.654,470.696 243.154,470.696 243.5,469.5C 242.187,467.482 242.853,466.315 245.5,466C 245.167,465 244.833,464 244.5,463C 245.636,461.47 246.636,460.137 247.5,459C 247.043,458.586 246.709,458.086 246.5,457.5C 252.035,450.603 255.702,443.103 257.5,435C 259.495,430.523 261.828,426.19 264.5,422C 264.167,421 263.833,420 263.5,419C 265.404,416.561 267.238,414.061 269,411.5C 269.273,409.899 269.773,408.399 270.5,407C 270.167,406.667 269.833,406.333 269.5,406C 270.5,404.333 271.833,403 273.5,402C 273.167,401.667 272.833,401.333 272.5,401C 275.041,399.152 276.041,396.652 275.5,393.5C 273.265,393.795 271.265,393.461 269.5,392.5 Z"/></g>
</svg>
