<?xml version="1.0" encoding="UTF-8"?>
<!DOCTYPE svg PUBLIC "-//W3C//DTD SVG 1.1//EN" "http://www.w3.org/Graphics/SVG/1.1/DTD/svg11.dtd">
<svg xmlns="http://www.w3.org/2000/svg" version="1.1" width="535px" height="535px" style="shape-rendering:geometricPrecision; text-rendering:geometricPrecision; image-rendering:optimizeQuality; fill-rule:evenodd; clip-rule:evenodd" xmlns:xlink="http://www.w3.org/1999/xlink">
<g><path style="opacity:0.988" fill="#5941e0" d="M 534.5,236.5 C 534.5,257.167 534.5,277.833 534.5,298.5C 520.335,389.702 473.335,458.202 393.5,504C 363.347,519.331 331.68,529.497 298.5,534.5C 277.833,534.5 257.167,534.5 236.5,534.5C 146.98,520.777 79.1469,475.11 33,397.5C 1.5067,338.047 -7.4933,275.38 6,209.5C 28.5515,117.283 83.7182,53.1159 171.5,17C 258.74,-13.8925 341.073,-4.22581 418.5,46C 484.069,92.9453 522.735,156.445 534.5,236.5 Z"/></g>
<g><path style="opacity:1" fill="#7ca5de" d="M 350.5,123.5 C 348.549,122.359 346.549,122.359 344.5,123.5C 345.263,119.862 343.93,118.362 340.5,119C 339.167,121 339.167,123 340.5,125C 336.86,128.64 333.194,132.306 329.5,136C 324.87,138.225 320.704,141.059 317,144.5C 309.549,146.643 302.383,149.476 295.5,153C 287.911,154.712 280.578,157.045 273.5,160C 251.565,163.825 229.565,166.991 207.5,169.5C 209.762,168.177 212.096,166.843 214.5,165.5C 208.193,164.597 201.859,163.93 195.5,163.5C 191.004,163.443 187.004,164.776 183.5,167.5C 186.642,168.167 189.642,168.834 192.5,169.5C 189.5,169.5 186.5,169.5 183.5,169.5C 182.761,169.369 182.094,169.536 181.5,170C 182.517,171.049 182.684,172.216 182,173.5C 179.895,170.893 179.062,167.893 179.5,164.5C 171.568,165.852 163.734,165.519 156,163.5C 153.277,164.208 152.277,165.875 153,168.5C 160.05,174.154 163.55,181.488 163.5,190.5C 169.029,190.856 172.695,193.689 174.5,199C 173.483,201.473 173.483,203.973 174.5,206.5C 168.022,205.951 161.855,204.284 156,201.5C 154.865,201.727 153.698,202.06 152.5,202.5C 153.373,204.413 154.373,206.247 155.5,208C 159.526,210.046 163.526,212.046 167.5,214C 169.134,214.494 170.801,214.66 172.5,214.5C 177.271,217.096 182.271,219.263 187.5,221C 186.084,223.265 184.084,224.431 181.5,224.5C 178.5,224.5 175.5,224.5 172.5,224.5C 166.384,222.377 160.051,220.377 153.5,218.5C 149.263,215.252 144.596,212.919 139.5,211.5C 137.189,208.337 135.022,205.003 133,201.5C 132.26,200.251 132.427,199.251 133.5,198.5C 135.821,198.229 137.821,198.896 139.5,200.5C 139.833,199.833 140.167,199.167 140.5,198.5C 142.5,199.167 144.5,199.833 146.5,200.5C 147.452,198.955 147.785,197.288 147.5,195.5C 150.308,195.693 152.975,196.36 155.5,197.5C 154.516,194.188 153.516,190.855 152.5,187.5C 153.194,182.268 153.527,176.934 153.5,171.5C 151.699,168.465 151.032,165.131 151.5,161.5C 162.518,162.484 173.518,162.484 184.5,161.5C 192.983,155.951 201.983,151.451 211.5,148C 214.19,146.428 216.523,144.428 218.5,142C 225.598,138.965 232.931,136.298 240.5,134C 240.167,133.667 239.833,133.333 239.5,133C 242.709,131.906 244.709,129.74 245.5,126.5C 247.978,122.173 247.978,117.84 245.5,113.5C 240.901,111.866 236.567,109.866 232.5,107.5C 232.389,106.883 232.056,106.383 231.5,106C 232.737,105.768 233.737,105.268 234.5,104.5C 259.172,99.4756 284.172,98.309 309.5,101C 325.034,102.222 338.201,108.389 349,119.5C 349.791,120.745 350.291,122.078 350.5,123.5 Z"/></g>
<g><path style="opacity:1" fill="#9184ca" d="M 234.5,104.5 C 233.737,105.268 232.737,105.768 231.5,106C 232.056,106.383 232.389,106.883 232.5,107.5C 225.543,106.614 218.543,106.28 211.5,106.5C 219.006,105.653 226.672,104.986 234.5,104.5 Z"/></g>
<g><path style="opacity:1" fill="#b77a9c" d="M 211.5,106.5 C 209.485,107.924 207.152,108.59 204.5,108.5C 206.515,107.076 208.848,106.41 211.5,106.5 Z"/></g>
<g><path style="opacity:1" fill="#da8249" d="M 211.5,106.5 C 218.543,106.28 225.543,106.614 232.5,107.5C 236.567,109.866 240.901,111.866 245.5,113.5C 242.664,116.088 239.331,117.921 235.5,119C 221.32,123.218 206.987,126.884 192.5,130C 183.657,130.824 174.99,130.657 166.5,129.5C 172.842,129.666 179.175,129.5 185.5,129C 186.938,128.781 188.271,128.281 189.5,127.5C 188.5,124.833 187.5,124.833 186.5,127.5C 182.059,124.728 177.392,122.394 172.5,120.5C 172.291,119.914 171.957,119.414 171.5,119C 172.737,118.768 173.737,118.268 174.5,117.5C 184.53,114.497 194.53,111.497 204.5,108.5C 207.152,108.59 209.485,107.924 211.5,106.5 Z"/></g>
<g><path style="opacity:1" fill="#ee975a" d="M 106.5,117.5 C 115.577,120.018 124.577,122.685 133.5,125.5C 130.373,125.124 127.373,125.124 124.5,125.5C 124.642,127.694 124.309,130.027 123.5,132.5C 122.127,132.343 120.793,132.51 119.5,133C 121.32,133.2 122.653,134.034 123.5,135.5C 117.178,133.764 111.178,131.43 105.5,128.5C 105.552,124.802 105.886,121.135 106.5,117.5 Z"/></g>
<g><path style="opacity:1" fill="#c87e53" d="M 174.5,117.5 C 173.737,118.268 172.737,118.768 171.5,119C 171.957,119.414 172.291,119.914 172.5,120.5C 177.392,122.394 182.059,124.728 186.5,127.5C 187.5,124.833 188.5,124.833 189.5,127.5C 188.271,128.281 186.938,128.781 185.5,129C 179.175,129.5 172.842,129.666 166.5,129.5C 162.629,129.815 158.962,129.482 155.5,128.5C 162.175,128.666 168.842,128.5 175.5,128C 172.167,127.667 168.833,127.333 165.5,127C 166.833,126.333 166.833,125.667 165.5,125C 162.793,125.433 160.293,124.599 158,122.5C 156.365,123.849 154.865,123.682 153.5,122C 149.5,121.667 145.5,121.333 141.5,121C 147.348,120.827 153.015,120.327 158.5,119.5C 163.669,118.619 169.002,117.952 174.5,117.5 Z"/></g>
<g><path style="opacity:1" fill="#ab7cb0" d="M 106.5,117.5 C 105.886,121.135 105.552,124.802 105.5,128.5C 104.098,124.71 104.431,121.044 106.5,117.5 Z"/></g>
<g><path style="opacity:1" fill="#bc7c5a" d="M 106.5,117.5 C 107.964,116.84 109.631,116.507 111.5,116.5C 127.052,119.044 142.719,120.044 158.5,119.5C 153.015,120.327 147.348,120.827 141.5,121C 145.5,121.333 149.5,121.667 153.5,122C 154.865,123.682 156.365,123.849 158,122.5C 160.293,124.599 162.793,125.433 165.5,125C 166.833,125.667 166.833,126.333 165.5,127C 168.833,127.333 172.167,127.667 175.5,128C 168.842,128.5 162.175,128.666 155.5,128.5C 147.977,128.767 140.644,127.767 133.5,125.5C 124.577,122.685 115.577,120.018 106.5,117.5 Z"/></g>
<g><path style="opacity:1" fill="#f6974e" d="M 245.5,113.5 C 247.978,117.84 247.978,122.173 245.5,126.5C 238.796,129.189 232.129,131.856 225.5,134.5C 221.673,135.267 218.006,136.267 214.5,137.5C 195.015,141.1 175.348,142.433 155.5,141.5C 154.041,141.567 152.708,141.234 151.5,140.5C 144.273,140.146 137.273,139.146 130.5,137.5C 128.485,136.076 126.152,135.41 123.5,135.5C 122.653,134.034 121.32,133.2 119.5,133C 120.793,132.51 122.127,132.343 123.5,132.5C 124.309,130.027 124.642,127.694 124.5,125.5C 127.373,125.124 130.373,125.124 133.5,125.5C 140.644,127.767 147.977,128.767 155.5,128.5C 158.962,129.482 162.629,129.815 166.5,129.5C 174.99,130.657 183.657,130.824 192.5,130C 206.987,126.884 221.32,123.218 235.5,119C 239.331,117.921 242.664,116.088 245.5,113.5 Z"/></g>
<g><path style="opacity:1" fill="#c7868e" d="M 123.5,135.5 C 126.152,135.41 128.485,136.076 130.5,137.5C 127.848,137.59 125.515,136.924 123.5,135.5 Z"/></g>
<g><path style="opacity:1" fill="#9accfe" d="M 350.5,123.5 C 351.17,132.213 352.17,140.88 353.5,149.5C 353.334,154.511 353.501,159.511 354,164.5C 354.333,164.833 354.667,165.167 355,165.5C 356.993,161.473 358.16,161.64 358.5,166C 358.333,167.167 358.167,168.333 358,169.5C 356.07,172.479 354.237,175.479 352.5,178.5C 349.435,181.366 345.768,183.199 341.5,184C 340.5,186.333 338.833,188 336.5,189C 333.022,190.24 329.689,191.74 326.5,193.5C 325.5,193.5 324.5,193.5 323.5,193.5C 323.5,192.5 323.5,191.5 323.5,190.5C 328.159,188.699 332.492,186.199 336.5,183C 338.037,181.89 338.703,180.39 338.5,178.5C 335.136,179.778 331.803,179.612 328.5,178C 329.5,177.167 330.5,176.333 331.5,175.5C 325.009,172.665 321.676,167.665 321.5,160.5C 309.622,163.523 297.622,167.356 285.5,172C 274.462,173.677 263.462,175.511 252.5,177.5C 249.557,176.756 246.557,176.256 243.5,176C 242.167,175 242.167,174 243.5,173C 255.299,170.04 267.132,167.207 279,164.5C 280.908,164.285 282.074,163.285 282.5,161.5C 304.822,157.299 323.988,147.299 340,131.5C 341.765,128.968 343.265,126.301 344.5,123.5C 346.549,122.359 348.549,122.359 350.5,123.5 Z"/></g>
<g><path style="opacity:1" fill="#6d96d2" d="M 350.5,123.5 C 351.979,127.918 352.979,132.585 353.5,137.5C 357.908,139.244 362.242,141.078 366.5,143C 369.266,144.371 371.599,146.204 373.5,148.5C 372.711,148.783 372.044,149.283 371.5,150C 374.909,154.997 376.076,160.497 375,166.5C 373.275,169.674 371.942,173.007 371,176.5C 367.926,179.286 364.759,181.952 361.5,184.5C 359.931,183.286 359.098,181.619 359,179.5C 357.777,181.985 356.277,182.152 354.5,180C 358.377,176.01 360.711,170.844 361.5,164.5C 361.996,160.829 360.829,157.829 358,155.5C 357.751,156.624 357.251,157.624 356.5,158.5C 355.616,155.344 354.616,152.344 353.5,149.5C 352.17,140.88 351.17,132.213 350.5,123.5 Z"/></g>
<g><path style="opacity:1" fill="#414151" d="M 214.5,137.5 C 210.99,139.883 206.99,141.217 202.5,141.5C 186.923,144.224 171.256,146.224 155.5,147.5C 155.5,146.167 155.5,144.833 155.5,143.5C 155.5,142.833 155.5,142.167 155.5,141.5C 175.348,142.433 195.015,141.1 214.5,137.5 Z"/></g>
<g><path style="opacity:1" fill="#6583b7" d="M 225.5,134.5 C 224.22,135.931 222.553,136.598 220.5,136.5C 220.5,137.5 220.5,138.5 220.5,139.5C 217.813,139.336 215.146,139.503 212.5,140C 209.403,143.388 205.736,146.055 201.5,148C 193.56,151.534 185.56,154.867 177.5,158C 167.833,158.333 158.167,158.667 148.5,159C 146.664,166.458 147.498,173.624 151,180.5C 151.634,184.855 151.967,189.188 152,193.5C 150.556,190.945 149.389,188.279 148.5,185.5C 147.614,186.325 147.281,187.325 147.5,188.5C 144.729,188.579 142.063,188.079 139.5,187C 139.165,185.133 138.665,182.966 138,180.5C 137.329,181.252 136.496,181.586 135.5,181.5C 138.499,177.668 141.999,174.335 146,171.5C 145.78,164.845 145.78,158.178 146,151.5C 147.677,147.684 149.511,144.018 151.5,140.5C 152.708,141.234 154.041,141.567 155.5,141.5C 155.5,142.167 155.5,142.833 155.5,143.5C 151.683,145.977 151.683,148.477 155.5,151C 164.069,151.122 172.569,150.289 181,148.5C 188.108,145.63 195.275,143.297 202.5,141.5C 206.99,141.217 210.99,139.883 214.5,137.5C 218.006,136.267 221.673,135.267 225.5,134.5 Z"/></g>
<g><path style="opacity:1" fill="#415171" d="M 202.5,141.5 C 195.275,143.297 188.108,145.63 181,148.5C 172.569,150.289 164.069,151.122 155.5,151C 151.683,148.477 151.683,145.977 155.5,143.5C 155.5,144.833 155.5,146.167 155.5,147.5C 171.256,146.224 186.923,144.224 202.5,141.5 Z"/></g>
<g><path style="opacity:1" fill="#7696ca" d="M 245.5,126.5 C 244.709,129.74 242.709,131.906 239.5,133C 239.833,133.333 240.167,133.667 240.5,134C 232.931,136.298 225.598,138.965 218.5,142C 216.523,144.428 214.19,146.428 211.5,148C 201.983,151.451 192.983,155.951 184.5,161.5C 173.518,162.484 162.518,162.484 151.5,161.5C 151.032,165.131 151.699,168.465 153.5,171.5C 153.527,176.934 153.194,182.268 152.5,187.5C 153.516,190.855 154.516,194.188 155.5,197.5C 152.975,196.36 150.308,195.693 147.5,195.5C 147.785,197.288 147.452,198.955 146.5,200.5C 144.5,199.833 142.5,199.167 140.5,198.5C 140.167,199.167 139.833,199.833 139.5,200.5C 137.821,198.896 135.821,198.229 133.5,198.5C 133.5,197.5 133.5,196.5 133.5,195.5C 129.679,195.494 127.013,197.161 125.5,200.5C 126.994,193.178 130.327,186.845 135.5,181.5C 136.496,181.586 137.329,181.252 138,180.5C 138.665,182.966 139.165,185.133 139.5,187C 142.063,188.079 144.729,188.579 147.5,188.5C 147.281,187.325 147.614,186.325 148.5,185.5C 149.389,188.279 150.556,190.945 152,193.5C 151.967,189.188 151.634,184.855 151,180.5C 147.498,173.624 146.664,166.458 148.5,159C 158.167,158.667 167.833,158.333 177.5,158C 185.56,154.867 193.56,151.534 201.5,148C 205.736,146.055 209.403,143.388 212.5,140C 215.146,139.503 217.813,139.336 220.5,139.5C 220.5,138.5 220.5,137.5 220.5,136.5C 222.553,136.598 224.22,135.931 225.5,134.5C 232.129,131.856 238.796,129.189 245.5,126.5 Z"/></g>
<g><path style="opacity:1" fill="#5b84be" d="M 207.5,169.5 C 202.5,169.5 197.5,169.5 192.5,169.5C 189.642,168.834 186.642,168.167 183.5,167.5C 187.004,164.776 191.004,163.443 195.5,163.5C 201.859,163.93 208.193,164.597 214.5,165.5C 212.096,166.843 209.762,168.177 207.5,169.5 Z"/></g>
<g><path style="opacity:1" fill="#90c5fe" d="M 326.5,193.5 C 323.298,194.862 320.298,196.696 317.5,199C 311.616,200.881 305.616,202.547 299.5,204C 298.167,205 296.833,206 295.5,207C 285.957,208.365 276.624,210.365 267.5,213C 260.825,214.089 254.325,214.589 248,214.5C 247.25,213.874 246.416,213.374 245.5,213C 264.016,209.872 282.016,205.205 299.5,199C 302.108,195.969 301.108,194.635 296.5,195C 293.875,192.804 292.875,189.97 293.5,186.5C 290.5,186.5 287.5,186.5 284.5,186.5C 284.5,188.833 284.5,191.167 284.5,193.5C 281.833,193.5 279.167,193.5 276.5,193.5C 276.5,192.5 276.5,191.5 276.5,190.5C 266.273,190.316 266.273,188.65 276.5,185.5C 276.291,184.914 275.957,184.414 275.5,184C 268.561,184.467 262.228,182.8 256.5,179C 246.526,179.498 236.526,179.498 226.5,179C 223.447,178.821 220.447,178.321 217.5,177.5C 215.851,176.852 214.518,175.852 213.5,174.5C 213.709,173.914 214.043,173.414 214.5,173C 219.178,171.823 223.845,171.657 228.5,172.5C 238.52,169.928 248.52,168.428 258.5,168C 266.511,165.787 274.511,163.62 282.5,161.5C 282.074,163.285 280.908,164.285 279,164.5C 267.132,167.207 255.299,170.04 243.5,173C 242.167,174 242.167,175 243.5,176C 246.557,176.256 249.557,176.756 252.5,177.5C 263.462,175.511 274.462,173.677 285.5,172C 297.622,167.356 309.622,163.523 321.5,160.5C 321.676,167.665 325.009,172.665 331.5,175.5C 330.5,176.333 329.5,177.167 328.5,178C 331.803,179.612 335.136,179.778 338.5,178.5C 338.703,180.39 338.037,181.89 336.5,183C 332.492,186.199 328.159,188.699 323.5,190.5C 323.5,191.5 323.5,192.5 323.5,193.5C 324.5,193.5 325.5,193.5 326.5,193.5 Z"/></g>
<g><path style="opacity:1" fill="#796cde" d="M 386.5,165.5 C 387.268,166.263 387.768,167.263 388,168.5C 388.498,171.817 388.665,175.15 388.5,178.5C 387.551,174.343 386.884,170.01 386.5,165.5 Z"/></g>
<g><path style="opacity:1" fill="#84b6f3" d="M 183.5,169.5 C 184.429,170.315 185.429,171.148 186.5,172C 191.167,172.333 195.833,172.667 200.5,173C 200.854,174.626 200.854,176.459 200.5,178.5C 195.742,177.15 191.076,177.316 186.5,179C 188.788,179.822 191.122,180.489 193.5,181C 204.226,181.449 214.893,182.449 225.5,184C 225.167,184.333 224.833,184.667 224.5,185C 227.5,185.333 230.5,185.667 233.5,186C 231.744,186.202 230.078,186.702 228.5,187.5C 230.5,188.5 232.5,189.5 234.5,190.5C 233.359,191.425 233.359,192.259 234.5,193C 236.246,193.471 237.913,194.138 239.5,195C 238.663,196.011 238.33,197.178 238.5,198.5C 243.683,197.768 248.017,199.268 251.5,203C 248.776,203.27 246.109,203.77 243.5,204.5C 242.571,205.689 242.238,207.022 242.5,208.5C 244.288,208.215 245.955,208.548 247.5,209.5C 244.594,211.302 241.427,212.302 238,212.5C 227.049,213.186 216.383,213.519 206,213.5C 190.944,213.302 176.278,210.969 162,206.5C 162.086,208.943 163.419,210.61 166,211.5C 166.333,211.167 166.667,210.833 167,210.5C 168.5,212.469 170.333,213.802 172.5,214.5C 170.801,214.66 169.134,214.494 167.5,214C 163.526,212.046 159.526,210.046 155.5,208C 154.373,206.247 153.373,204.413 152.5,202.5C 153.698,202.06 154.865,201.727 156,201.5C 161.855,204.284 168.022,205.951 174.5,206.5C 173.483,203.973 173.483,201.473 174.5,199C 172.695,193.689 169.029,190.856 163.5,190.5C 163.55,181.488 160.05,174.154 153,168.5C 152.277,165.875 153.277,164.208 156,163.5C 163.734,165.519 171.568,165.852 179.5,164.5C 179.062,167.893 179.895,170.893 182,173.5C 182.684,172.216 182.517,171.049 181.5,170C 182.094,169.536 182.761,169.369 183.5,169.5 Z"/></g>
<g><path style="opacity:1" fill="#9acdfe" d="M 380.5,163.5 C 382.647,164.932 382.98,166.765 381.5,169C 383.537,170.586 384.537,172.753 384.5,175.5C 384.044,182.075 383.377,188.575 382.5,195C 383.126,195.75 383.626,196.584 384,197.5C 385.494,208.476 386.827,219.476 388,230.5C 389.016,231.634 389.683,231.301 390,229.5C 390.549,232.552 389.716,235.219 387.5,237.5C 388.897,240.385 388.23,242.718 385.5,244.5C 386.127,245.417 386.461,246.417 386.5,247.5C 386.5,248.5 386.5,249.5 386.5,250.5C 383.521,253.042 380.521,255.709 377.5,258.5C 371.183,263.659 364.516,268.326 357.5,272.5C 357.44,271.957 357.107,271.624 356.5,271.5C 354.669,272.929 352.669,273.429 350.5,273C 351.167,272.333 351.833,271.667 352.5,271C 351.167,271 349.833,271 348.5,271C 341.934,257.612 339.267,243.446 340.5,228.5C 337.935,225.882 335.935,222.882 334.5,219.5C 323.746,222.61 313.246,225.61 303,228.5C 301.97,228.836 301.47,229.503 301.5,230.5C 284.288,233.68 266.955,236.014 249.5,237.5C 247.172,236.67 244.838,235.837 242.5,235C 254.588,231.911 266.588,228.744 278.5,225.5C 301.893,219.817 324.559,211.984 346.5,202C 354.643,196.422 362.643,190.589 370.5,184.5C 372.682,179.807 375.849,175.807 380,172.5C 380.236,170.236 380.736,168.069 381.5,166C 380.944,165.617 380.611,165.117 380.5,164.5C 380.5,164.167 380.5,163.833 380.5,163.5 Z"/></g>
<g><path style="opacity:1" fill="#88bdfa" d="M 344.5,123.5 C 343.265,126.301 341.765,128.968 340,131.5C 323.988,147.299 304.822,157.299 282.5,161.5C 274.511,163.62 266.511,165.787 258.5,168C 248.52,168.428 238.52,169.928 228.5,172.5C 223.845,171.657 219.178,171.823 214.5,173C 214.043,173.414 213.709,173.914 213.5,174.5C 214.518,175.852 215.851,176.852 217.5,177.5C 220.447,178.321 223.447,178.821 226.5,179C 236.526,179.498 246.526,179.498 256.5,179C 262.228,182.8 268.561,184.467 275.5,184C 275.957,184.414 276.291,184.914 276.5,185.5C 266.273,188.65 266.273,190.316 276.5,190.5C 276.5,191.5 276.5,192.5 276.5,193.5C 279.167,193.5 281.833,193.5 284.5,193.5C 284.5,191.167 284.5,188.833 284.5,186.5C 287.5,186.5 290.5,186.5 293.5,186.5C 292.875,189.97 293.875,192.804 296.5,195C 301.108,194.635 302.108,195.969 299.5,199C 282.016,205.205 264.016,209.872 245.5,213C 246.416,213.374 247.25,213.874 248,214.5C 254.325,214.589 260.825,214.089 267.5,213C 276.624,210.365 285.957,208.365 295.5,207C 296.833,206 298.167,205 299.5,204C 305.616,202.547 311.616,200.881 317.5,199C 320.298,196.696 323.298,194.862 326.5,193.5C 329.689,191.74 333.022,190.24 336.5,189C 338.833,188 340.5,186.333 341.5,184C 345.768,183.199 349.435,181.366 352.5,178.5C 351.91,179.766 351.41,181.099 351,182.5C 326.921,198.834 300.421,209.668 271.5,215C 238.398,221.156 205.398,220.989 172.5,214.5C 170.333,213.802 168.5,212.469 167,210.5C 166.667,210.833 166.333,211.167 166,211.5C 163.419,210.61 162.086,208.943 162,206.5C 176.278,210.969 190.944,213.302 206,213.5C 216.383,213.519 227.049,213.186 238,212.5C 241.427,212.302 244.594,211.302 247.5,209.5C 245.955,208.548 244.288,208.215 242.5,208.5C 242.238,207.022 242.571,205.689 243.5,204.5C 246.109,203.77 248.776,203.27 251.5,203C 248.017,199.268 243.683,197.768 238.5,198.5C 238.33,197.178 238.663,196.011 239.5,195C 237.913,194.138 236.246,193.471 234.5,193C 233.359,192.259 233.359,191.425 234.5,190.5C 232.5,189.5 230.5,188.5 228.5,187.5C 230.078,186.702 231.744,186.202 233.5,186C 230.5,185.667 227.5,185.333 224.5,185C 224.833,184.667 225.167,184.333 225.5,184C 214.893,182.449 204.226,181.449 193.5,181C 191.122,180.489 188.788,179.822 186.5,179C 191.076,177.316 195.742,177.15 200.5,178.5C 200.854,176.459 200.854,174.626 200.5,173C 195.833,172.667 191.167,172.333 186.5,172C 185.429,171.148 184.429,170.315 183.5,169.5C 186.5,169.5 189.5,169.5 192.5,169.5C 197.5,169.5 202.5,169.5 207.5,169.5C 229.565,166.991 251.565,163.825 273.5,160C 280.578,157.045 287.911,154.712 295.5,153C 302.383,149.476 309.549,146.643 317,144.5C 320.704,141.059 324.87,138.225 329.5,136C 333.194,132.306 336.86,128.64 340.5,125C 339.167,123 339.167,121 340.5,119C 343.93,118.362 345.263,119.862 344.5,123.5 Z"/></g>
<g><path style="opacity:1" fill="#898bda" d="M 392.5,208.5 C 393.954,213.423 394.621,218.589 394.5,224C 394.498,227.352 394.165,230.518 393.5,233.5C 393.457,225.152 393.124,216.819 392.5,208.5 Z"/></g>
<g><path style="opacity:1" fill="#77a9ea" d="M 373.5,148.5 C 379.629,151.738 383.629,156.738 385.5,163.5C 383.952,163.179 383.285,162.179 383.5,160.5C 380.433,160.121 379.433,161.121 380.5,163.5C 380.5,163.833 380.5,164.167 380.5,164.5C 377.53,168.995 374.697,173.662 372,178.5C 358.841,191.836 343.008,200.67 324.5,205C 315.372,209.864 305.705,213.031 295.5,214.5C 291.614,216.305 287.614,217.805 283.5,219C 252.457,224.838 221.123,227.171 189.5,226C 186.635,225.817 183.969,225.317 181.5,224.5C 184.084,224.431 186.084,223.265 187.5,221C 182.271,219.263 177.271,217.096 172.5,214.5C 205.398,220.989 238.398,221.156 271.5,215C 300.421,209.668 326.921,198.834 351,182.5C 351.41,181.099 351.91,179.766 352.5,178.5C 354.237,175.479 356.07,172.479 358,169.5C 358.167,168.333 358.333,167.167 358.5,166C 358.16,161.64 356.993,161.473 355,165.5C 354.667,165.167 354.333,164.833 354,164.5C 353.501,159.511 353.334,154.511 353.5,149.5C 354.616,152.344 355.616,155.344 356.5,158.5C 357.251,157.624 357.751,156.624 358,155.5C 360.829,157.829 361.996,160.829 361.5,164.5C 360.711,170.844 358.377,176.01 354.5,180C 356.277,182.152 357.777,181.985 359,179.5C 359.098,181.619 359.931,183.286 361.5,184.5C 364.759,181.952 367.926,179.286 371,176.5C 371.942,173.007 373.275,169.674 375,166.5C 376.076,160.497 374.909,154.997 371.5,150C 372.044,149.283 372.711,148.783 373.5,148.5 Z"/></g>
<g><path style="opacity:1" fill="#94c8fe" d="M 357.5,272.5 C 354.634,274.432 351.634,276.099 348.5,277.5C 342.73,280.442 336.73,282.775 330.5,284.5C 326.505,285.117 323.172,283.951 320.5,281C 321.167,280.667 321.833,280.333 322.5,280C 321.207,279.51 319.873,279.343 318.5,279.5C 318.666,269.161 318.5,258.828 318,248.5C 317.167,247.667 316.333,246.833 315.5,246C 316.444,243.281 316.777,240.448 316.5,237.5C 314.167,237.5 311.833,237.5 309.5,237.5C 309.5,234.5 309.5,231.5 309.5,228.5C 306.908,228.546 304.741,229.546 303,231.5C 302.235,231.43 301.735,231.097 301.5,230.5C 301.47,229.503 301.97,228.836 303,228.5C 313.246,225.61 323.746,222.61 334.5,219.5C 335.935,222.882 337.935,225.882 340.5,228.5C 339.267,243.446 341.934,257.612 348.5,271C 349.833,271 351.167,271 352.5,271C 351.833,271.667 351.167,272.333 350.5,273C 352.669,273.429 354.669,272.929 356.5,271.5C 357.107,271.624 357.44,271.957 357.5,272.5 Z"/></g>
<g><path style="opacity:1" fill="#96bdee" d="M 385.5,163.5 C 386.338,163.842 386.672,164.508 386.5,165.5C 386.884,170.01 387.551,174.343 388.5,178.5C 389.833,188.5 391.167,198.5 392.5,208.5C 393.124,216.819 393.457,225.152 393.5,233.5C 393.657,234.873 393.49,236.207 393,237.5C 391.058,241.069 388.892,244.402 386.5,247.5C 386.461,246.417 386.127,245.417 385.5,244.5C 388.23,242.718 388.897,240.385 387.5,237.5C 389.716,235.219 390.549,232.552 390,229.5C 389.683,231.301 389.016,231.634 388,230.5C 386.827,219.476 385.494,208.476 384,197.5C 383.626,196.584 383.126,195.75 382.5,195C 383.377,188.575 384.044,182.075 384.5,175.5C 384.537,172.753 383.537,170.586 381.5,169C 382.98,166.765 382.647,164.932 380.5,163.5C 379.433,161.121 380.433,160.121 383.5,160.5C 383.285,162.179 383.952,163.179 385.5,163.5 Z"/></g>
<g><path style="opacity:1" fill="#91c5fe" d="M 278.5,225.5 C 266.588,228.744 254.588,231.911 242.5,235C 244.838,235.837 247.172,236.67 249.5,237.5C 266.955,236.014 284.288,233.68 301.5,230.5C 301.735,231.097 302.235,231.43 303,231.5C 304.741,229.546 306.908,228.546 309.5,228.5C 309.5,231.5 309.5,234.5 309.5,237.5C 311.833,237.5 314.167,237.5 316.5,237.5C 316.777,240.448 316.444,243.281 315.5,246C 316.333,246.833 317.167,247.667 318,248.5C 318.5,258.828 318.666,269.161 318.5,279.5C 319.873,279.343 321.207,279.51 322.5,280C 321.833,280.333 321.167,280.667 320.5,281C 323.172,283.951 326.505,285.117 330.5,284.5C 324.151,287.301 317.651,289.968 311,292.5C 308.901,293.287 306.734,293.62 304.5,293.5C 294.557,294.106 284.891,295.44 275.5,297.5C 274.504,297.586 273.671,297.252 273,296.5C 271.982,290.843 271.149,285.177 270.5,279.5C 269.5,279.5 268.5,279.5 267.5,279.5C 266.998,268.15 266.165,256.816 265,245.5C 263.416,244.139 261.582,243.472 259.5,243.5C 259.5,242.5 259.5,241.5 259.5,240.5C 245.58,240.206 231.58,240.039 217.5,240C 210.745,239.716 204.079,238.882 197.5,237.5C 196.833,237.833 196.167,238.167 195.5,238.5C 190.745,235.623 185.745,234.956 180.5,236.5C 174.126,234.77 167.459,232.936 160.5,231C 159.833,230.667 159.167,230.333 158.5,230C 160.886,229.716 161.552,228.716 160.5,227C 171.618,227.111 182.618,228.445 193.5,231C 208.833,231.667 224.167,231.667 239.5,231C 252.468,228.933 265.468,227.1 278.5,225.5 Z"/></g>
<g><path style="opacity:1" fill="#87b6ee" d="M 139.5,211.5 C 144.596,212.919 149.263,215.252 153.5,218.5C 160.051,220.377 166.384,222.377 172.5,224.5C 162.328,222.629 152.161,220.296 142,217.5C 140.365,217.878 138.865,218.544 137.5,219.5C 147.005,229.253 158.338,235.92 171.5,239.5C 171.833,239.833 172.167,240.167 172.5,240.5C 171.624,241.251 170.624,241.751 169.5,242C 171.202,243.718 173.035,243.885 175,242.5C 175.167,242.833 175.333,243.167 175.5,243.5C 174.624,244.251 173.624,244.751 172.5,245C 173.451,248.057 173.784,251.223 173.5,254.5C 174.833,254.5 176.167,254.5 177.5,254.5C 176.136,262.763 175.47,271.097 175.5,279.5C 176.5,279.5 177.5,279.5 178.5,279.5C 178.5,282.167 178.5,284.833 178.5,287.5C 183.224,288.397 184.224,290.73 181.5,294.5C 181.608,295.442 181.941,296.275 182.5,297C 191.257,297.819 199.924,299.152 208.5,301C 224.374,302.769 240.041,302.603 255.5,300.5C 257.108,299.682 258.775,299.015 260.5,298.5C 265.744,300.021 270.744,299.687 275.5,297.5C 284.891,295.44 294.557,294.106 304.5,293.5C 298.082,295.799 291.416,297.633 284.5,299C 277.31,299.876 270.31,301.042 263.5,302.5C 238.401,305.633 213.401,305.133 188.5,301C 179.918,299.194 171.585,296.694 163.5,293.5C 160.356,292.427 157.356,291.093 154.5,289.5C 154.167,288.833 153.833,288.167 153.5,287.5C 151.148,285.374 151.481,283.374 154.5,281.5C 154.446,278.366 154.446,275.199 154.5,272C 153.672,271.085 152.672,270.419 151.5,270C 152.576,268.274 152.743,266.441 152,264.5C 151.177,260.268 149.677,256.268 147.5,252.5C 149.201,240.829 145.201,230.829 135.5,222.5C 133.46,219.161 131.793,215.661 130.5,212C 131.705,210.462 133.205,209.295 135,208.5C 136.386,209.729 137.886,210.729 139.5,211.5 Z"/></g>
<g><path style="opacity:1" fill="#8bbff9" d="M 380.5,164.5 C 380.611,165.117 380.944,165.617 381.5,166C 380.736,168.069 380.236,170.236 380,172.5C 375.849,175.807 372.682,179.807 370.5,184.5C 362.643,190.589 354.643,196.422 346.5,202C 324.559,211.984 301.893,219.817 278.5,225.5C 265.468,227.1 252.468,228.933 239.5,231C 224.167,231.667 208.833,231.667 193.5,231C 182.618,228.445 171.618,227.111 160.5,227C 161.552,228.716 160.886,229.716 158.5,230C 159.167,230.333 159.833,230.667 160.5,231C 167.459,232.936 174.126,234.77 180.5,236.5C 185.745,234.956 190.745,235.623 195.5,238.5C 196.167,238.167 196.833,237.833 197.5,237.5C 204.079,238.882 210.745,239.716 217.5,240C 231.58,240.039 245.58,240.206 259.5,240.5C 259.5,241.5 259.5,242.5 259.5,243.5C 261.582,243.472 263.416,244.139 265,245.5C 266.165,256.816 266.998,268.15 267.5,279.5C 268.5,279.5 269.5,279.5 270.5,279.5C 271.149,285.177 271.982,290.843 273,296.5C 273.671,297.252 274.504,297.586 275.5,297.5C 270.744,299.687 265.744,300.021 260.5,298.5C 258.775,299.015 257.108,299.682 255.5,300.5C 240.041,302.603 224.374,302.769 208.5,301C 199.924,299.152 191.257,297.819 182.5,297C 181.941,296.275 181.608,295.442 181.5,294.5C 184.224,290.73 183.224,288.397 178.5,287.5C 178.5,284.833 178.5,282.167 178.5,279.5C 177.5,279.5 176.5,279.5 175.5,279.5C 175.47,271.097 176.136,262.763 177.5,254.5C 176.167,254.5 174.833,254.5 173.5,254.5C 173.784,251.223 173.451,248.057 172.5,245C 173.624,244.751 174.624,244.251 175.5,243.5C 175.333,243.167 175.167,242.833 175,242.5C 173.035,243.885 171.202,243.718 169.5,242C 170.624,241.751 171.624,241.251 172.5,240.5C 172.167,240.167 171.833,239.833 171.5,239.5C 158.338,235.92 147.005,229.253 137.5,219.5C 138.865,218.544 140.365,217.878 142,217.5C 152.161,220.296 162.328,222.629 172.5,224.5C 175.5,224.5 178.5,224.5 181.5,224.5C 183.969,225.317 186.635,225.817 189.5,226C 221.123,227.171 252.457,224.838 283.5,219C 287.614,217.805 291.614,216.305 295.5,214.5C 305.705,213.031 315.372,209.864 324.5,205C 343.008,200.67 358.841,191.836 372,178.5C 374.697,173.662 377.53,168.995 380.5,164.5 Z"/></g>
<g><path style="opacity:1" fill="#85aadd" d="M 133.5,198.5 C 132.427,199.251 132.26,200.251 133,201.5C 135.022,205.003 137.189,208.337 139.5,211.5C 137.886,210.729 136.386,209.729 135,208.5C 133.205,209.295 131.705,210.462 130.5,212C 131.793,215.661 133.46,219.161 135.5,222.5C 145.201,230.829 149.201,240.829 147.5,252.5C 149.677,256.268 151.177,260.268 152,264.5C 152.743,266.441 152.576,268.274 151.5,270C 152.672,270.419 153.672,271.085 154.5,272C 154.446,275.199 154.446,278.366 154.5,281.5C 151.481,283.374 151.148,285.374 153.5,287.5C 152.5,287.5 151.5,287.5 150.5,287.5C 147.587,284.083 144.42,280.749 141,277.5C 138.566,274.205 136.899,270.538 136,266.5C 132.761,248.399 129.095,230.399 125,212.5C 124.188,208.311 124.355,204.311 125.5,200.5C 127.013,197.161 129.679,195.494 133.5,195.5C 133.5,196.5 133.5,197.5 133.5,198.5 Z"/></g>
<g><path style="opacity:1" fill="#d8bc3e" d="M 386.5,250.5 C 388.081,252.142 388.747,254.142 388.5,256.5C 387.463,257.93 386.796,259.597 386.5,261.5C 385.197,263.844 383.364,265.844 381,267.5C 379.701,270.147 378.368,272.814 377,275.5C 372.505,280.994 367.672,286.161 362.5,291C 345.34,301.329 327.34,309.829 308.5,316.5C 301.635,317.065 294.968,318.565 288.5,321C 277.283,321.965 266.283,323.465 255.5,325.5C 240.324,325.829 225.324,325.496 210.5,324.5C 227.004,324.153 243.337,323.486 259.5,322.5C 259.5,322.167 259.5,321.833 259.5,321.5C 277.725,319.989 295.392,316.322 312.5,310.5C 329.036,305.399 344.369,297.899 358.5,288C 368.354,280.336 374.688,270.502 377.5,258.5C 380.521,255.709 383.521,253.042 386.5,250.5 Z"/></g>
<g><path style="opacity:1" fill="#f6f4ee" d="M 377.5,258.5 C 374.688,270.502 368.354,280.336 358.5,288C 344.369,297.899 329.036,305.399 312.5,310.5C 309.161,310.11 305.827,309.61 302.5,309C 302.833,308.667 303.167,308.333 303.5,308C 302.027,307.29 301.36,306.124 301.5,304.5C 310.212,300.646 318.878,296.479 327.5,292C 328.469,290.242 329.636,289.742 331,290.5C 332.171,289.107 333.671,288.273 335.5,288C 334.185,286.605 334.519,285.605 336.5,285C 338.135,284.46 339.468,284.96 340.5,286.5C 341.5,286 342.5,285.5 343.5,285C 343.167,284.667 342.833,284.333 342.5,284C 343.833,283.667 345.167,283.333 346.5,283C 345.833,282.667 345.167,282.333 344.5,282C 346.384,280.951 347.718,279.451 348.5,277.5C 351.634,276.099 354.634,274.432 357.5,272.5C 364.516,268.326 371.183,263.659 377.5,258.5 Z"/></g>
<g><path style="opacity:1" fill="#fde245" d="M 382.5,274.5 C 381.729,288.645 381.729,302.979 382.5,317.5C 382.597,319.945 381.93,322.111 380.5,324C 381.708,330.147 381.708,336.314 380.5,342.5C 382.714,350.285 382.714,358.118 380.5,366C 382.116,369.537 382.45,373.037 381.5,376.5C 380.4,377.605 379.733,378.938 379.5,380.5C 376.939,382.64 374.605,384.973 372.5,387.5C 372.045,378.213 372.378,368.88 373.5,359.5C 372.867,338.137 372.2,316.804 371.5,295.5C 373.461,294.152 373.628,292.819 372,291.5C 371.626,292.416 371.126,293.25 370.5,294C 368.236,294.236 366.069,294.736 364,295.5C 363.601,295.272 363.435,294.938 363.5,294.5C 370.465,288.499 376.798,281.833 382.5,274.5 Z"/></g>
<g><path style="opacity:1" fill="#af9630" d="M 154.5,289.5 C 157.356,291.093 160.356,292.427 163.5,293.5C 163.929,297.024 165.429,300.024 168,302.5C 170.996,304.733 173.829,307.066 176.5,309.5C 171.037,307.766 165.704,305.599 160.5,303C 157.272,299.044 155.272,294.544 154.5,289.5 Z"/></g>
<g><path style="opacity:1" fill="#e5cc5e" d="M 388.5,267.5 C 388.667,299.502 388.5,331.502 388,363.5C 387.392,365.066 386.558,366.4 385.5,367.5C 384.957,366.258 384.623,364.925 384.5,363.5C 385.31,334.183 385.81,304.85 386,275.5C 386.546,272.621 387.379,269.954 388.5,267.5 Z"/></g>
<g><path style="opacity:1" fill="#fee234" d="M 372.5,387.5 C 359.326,400.09 343.992,409.09 326.5,414.5C 324.208,414.756 322.041,414.423 320,413.5C 319.507,416.985 318.007,417.485 315.5,415C 316.448,414.517 317.448,414.351 318.5,414.5C 318.5,411.5 318.5,408.5 318.5,405.5C 317.167,405.5 315.833,405.5 314.5,405.5C 314.5,399.833 314.5,394.167 314.5,388.5C 316.5,388.5 318.5,388.5 320.5,388.5C 319.323,374.53 318.656,360.53 318.5,346.5C 317.167,346.5 315.833,346.5 314.5,346.5C 314.5,340.5 314.5,334.5 314.5,328.5C 311.978,328.872 309.978,328.039 308.5,326C 310.443,326.305 312.443,326.305 314.5,326C 315.833,325.333 315.833,324.667 314.5,324C 310.598,323.262 306.932,323.928 303.5,326C 301.5,326.667 299.5,326.667 297.5,326C 305.898,322.755 314.564,320.755 323.5,320C 326.215,318.092 329.215,316.759 332.5,316C 333.641,315.259 333.641,314.425 332.5,313.5C 335.674,309.932 339.674,307.765 344.5,307C 350.716,302.611 357.049,298.444 363.5,294.5C 363.435,294.938 363.601,295.272 364,295.5C 366.069,294.736 368.236,294.236 370.5,294C 371.126,293.25 371.626,292.416 372,291.5C 373.628,292.819 373.461,294.152 371.5,295.5C 372.2,316.804 372.867,338.137 373.5,359.5C 372.378,368.88 372.045,378.213 372.5,387.5 Z"/></g>
<g><path style="opacity:1" fill="#e9e8e3" d="M 348.5,277.5 C 347.718,279.451 346.384,280.951 344.5,282C 345.167,282.333 345.833,282.667 346.5,283C 345.167,283.333 343.833,283.667 342.5,284C 342.833,284.333 343.167,284.667 343.5,285C 342.5,285.5 341.5,286 340.5,286.5C 339.468,284.96 338.135,284.46 336.5,285C 334.519,285.605 334.185,286.605 335.5,288C 333.671,288.273 332.171,289.107 331,290.5C 329.636,289.742 328.469,290.242 327.5,292C 318.878,296.479 310.212,300.646 301.5,304.5C 301.36,306.124 302.027,307.29 303.5,308C 303.167,308.333 302.833,308.667 302.5,309C 305.827,309.61 309.161,310.11 312.5,310.5C 295.392,316.322 277.725,319.989 259.5,321.5C 247.829,321.667 236.162,321.5 224.5,321C 219.305,319.3 213.972,318.133 208.5,317.5C 209.55,315.898 208.883,315.065 206.5,315C 207.833,314.333 207.833,313.667 206.5,313C 208.804,312.105 211.138,311.271 213.5,310.5C 223.86,309.59 234.193,308.423 244.5,307C 248.546,304.399 252.88,303.899 257.5,305.5C 259.597,304.451 261.597,303.451 263.5,302.5C 270.31,301.042 277.31,299.876 284.5,299C 291.416,297.633 298.082,295.799 304.5,293.5C 306.734,293.62 308.901,293.287 311,292.5C 317.651,289.968 324.151,287.301 330.5,284.5C 336.73,282.775 342.73,280.442 348.5,277.5 Z"/></g>
<g><path style="opacity:1" fill="#d8d6cd" d="M 163.5,293.5 C 171.585,296.694 179.918,299.194 188.5,301C 213.401,305.133 238.401,305.633 263.5,302.5C 261.597,303.451 259.597,304.451 257.5,305.5C 252.88,303.899 248.546,304.399 244.5,307C 234.193,308.423 223.86,309.59 213.5,310.5C 211.138,311.271 208.804,312.105 206.5,313C 207.833,313.667 207.833,314.333 206.5,315C 208.883,315.065 209.55,315.898 208.5,317.5C 213.972,318.133 219.305,319.3 224.5,321C 236.162,321.5 247.829,321.667 259.5,321.5C 259.5,321.833 259.5,322.167 259.5,322.5C 236.093,324.147 213.093,321.98 190.5,316C 185.687,314.093 181.02,311.926 176.5,309.5C 173.829,307.066 170.996,304.733 168,302.5C 165.429,300.024 163.929,297.024 163.5,293.5 Z"/></g>
<g><path style="opacity:1" fill="#caae36" d="M 150.5,287.5 C 151.5,287.5 152.5,287.5 153.5,287.5C 153.833,288.167 154.167,288.833 154.5,289.5C 155.272,294.544 157.272,299.044 160.5,303C 165.704,305.599 171.037,307.766 176.5,309.5C 181.02,311.926 185.687,314.093 190.5,316C 213.093,321.98 236.093,324.147 259.5,322.5C 243.337,323.486 227.004,324.153 210.5,324.5C 205.267,323.092 199.933,322.092 194.5,321.5C 193.653,320.034 192.32,319.2 190.5,319C 182.694,317.856 175.694,314.856 169.5,310C 165.067,309.533 161.4,307.7 158.5,304.5C 158.167,304.833 157.833,305.167 157.5,305.5C 158.424,308.409 159.757,311.076 161.5,313.5C 159.159,311.455 156.826,309.455 154.5,307.5C 154.204,305.597 153.537,303.93 152.5,302.5C 150.959,297.635 150.292,292.635 150.5,287.5 Z"/></g>
<g><path style="opacity:1" fill="#866cd0" d="M 152.5,302.5 C 153.537,303.93 154.204,305.597 154.5,307.5C 155.774,309.993 156.44,312.659 156.5,315.5C 153.925,311.699 152.592,307.365 152.5,302.5 Z"/></g>
<g><path style="opacity:1" fill="#fcdd31" d="M 386.5,261.5 C 386.035,266.097 384.702,270.431 382.5,274.5C 376.798,281.833 370.465,288.499 363.5,294.5C 357.049,298.444 350.716,302.611 344.5,307C 339.674,307.765 335.674,309.932 332.5,313.5C 333.641,314.425 333.641,315.259 332.5,316C 329.215,316.759 326.215,318.092 323.5,320C 314.564,320.755 305.898,322.755 297.5,326C 299.5,326.667 301.5,326.667 303.5,326C 306.932,323.928 310.598,323.262 314.5,324C 315.833,324.667 315.833,325.333 314.5,326C 312.443,326.305 310.443,326.305 308.5,326C 309.978,328.039 311.978,328.872 314.5,328.5C 314.5,334.5 314.5,340.5 314.5,346.5C 315.833,346.5 317.167,346.5 318.5,346.5C 318.656,360.53 319.323,374.53 320.5,388.5C 318.5,388.5 316.5,388.5 314.5,388.5C 314.5,394.167 314.5,399.833 314.5,405.5C 315.833,405.5 317.167,405.5 318.5,405.5C 318.5,408.5 318.5,411.5 318.5,414.5C 317.448,414.351 316.448,414.517 315.5,415C 318.007,417.485 319.507,416.985 320,413.5C 322.041,414.423 324.208,414.756 326.5,414.5C 323.976,415.74 321.309,416.907 318.5,418C 310.623,419.537 302.956,421.37 295.5,423.5C 292.833,423.5 290.167,423.5 287.5,423.5C 281.824,423.666 276.157,423.499 270.5,423C 271.684,421.82 272.351,420.32 272.5,418.5C 271.114,414.266 270.447,409.932 270.5,405.5C 269.5,405.5 268.5,405.5 267.5,405.5C 268.161,399.827 267.328,394.494 265,389.5C 263.982,383.843 263.149,378.177 262.5,372.5C 261.167,372.5 259.833,372.5 258.5,372.5C 258.466,368.141 258.799,363.808 259.5,359.5C 258.763,356.683 258.096,353.85 257.5,351C 257.629,349.019 258.296,347.353 259.5,346C 256.909,343.167 253.909,340.834 250.5,339C 253.028,336.943 256.028,335.943 259.5,336C 244.762,334.883 230.095,333.217 215.5,331C 214.328,330.581 213.328,329.915 212.5,329C 215.847,329.608 219.18,329.441 222.5,328.5C 224.059,329.074 225.559,329.74 227,330.5C 244.985,328.977 263.152,327.477 281.5,326C 291.198,324.271 300.198,321.104 308.5,316.5C 327.34,309.829 345.34,301.329 362.5,291C 367.672,286.161 372.505,280.994 377,275.5C 378.368,272.814 379.701,270.147 381,267.5C 383.364,265.844 385.197,263.844 386.5,261.5 Z"/></g>
<g><path style="opacity:1" fill="#efd135" d="M 194.5,321.5 C 199.933,322.092 205.267,323.092 210.5,324.5C 225.324,325.496 240.324,325.829 255.5,325.5C 254.391,326.29 253.058,326.79 251.5,327C 240.923,327.179 230.423,327.679 220,328.5C 212.914,327.817 205.914,326.483 199,324.5C 196.075,324.523 193.241,325.023 190.5,326C 193.588,327.875 196.921,329.208 200.5,330C 203.47,332.295 206.47,334.628 209.5,337C 205.551,337.807 205.551,338.307 209.5,338.5C 209.183,341.572 209.516,344.572 210.5,347.5C 211.877,349.289 212.877,351.289 213.5,353.5C 214.729,354.281 216.062,354.781 217.5,355C 216.342,356.009 215.675,357.342 215.5,359C 216.874,364.826 218.207,370.659 219.5,376.5C 219.213,378.486 218.547,380.32 217.5,382C 219.61,383.75 221.277,385.917 222.5,388.5C 223.484,391.428 223.817,394.428 223.5,397.5C 224.5,397.5 225.5,397.5 226.5,397.5C 226.833,402.833 227.167,408.167 227.5,413.5C 229.591,413.318 231.591,413.652 233.5,414.5C 234.48,417.086 234.813,419.753 234.5,422.5C 238.122,422.322 241.456,422.989 244.5,424.5C 240.19,423.92 235.857,423.586 231.5,423.5C 230.329,422.655 228.995,421.989 227.5,421.5C 228.23,419.955 229.563,419.122 231.5,419C 227.129,418.828 222.796,418.328 218.5,417.5C 218.931,416.707 219.265,415.873 219.5,415C 217.934,412.088 217.101,408.921 217,405.5C 216.333,404.167 215.667,404.167 215,405.5C 213.97,403.412 213.137,401.245 212.5,399C 212.905,398.055 213.572,397.388 214.5,397C 212.906,391.943 210.573,387.277 207.5,383C 207.905,382.055 208.572,381.388 209.5,381C 208.167,380 206.833,379 205.5,378C 205.306,376.57 205.306,375.07 205.5,373.5C 198.55,362.174 195.217,350.008 195.5,337C 192.104,335.29 190.604,332.457 191,328.5C 190.5,328 190,327.5 189.5,327C 186.833,326.667 184.167,326.333 181.5,326C 178.44,323.804 175.107,322.137 171.5,321C 170.257,319.846 169.257,318.512 168.5,317C 171.5,316.333 174.5,316.333 177.5,317C 182.825,319.582 188.491,321.082 194.5,321.5 Z"/></g>
<g><path style="opacity:1" fill="#f5d951" d="M 388.5,256.5 C 388.5,260.167 388.5,263.833 388.5,267.5C 387.379,269.954 386.546,272.621 386,275.5C 385.81,304.85 385.31,334.183 384.5,363.5C 384.623,364.925 384.957,366.258 385.5,367.5C 384.958,370.912 383.625,373.912 381.5,376.5C 382.45,373.037 382.116,369.537 380.5,366C 382.714,358.118 382.714,350.285 380.5,342.5C 381.708,336.314 381.708,330.147 380.5,324C 381.93,322.111 382.597,319.945 382.5,317.5C 381.729,302.979 381.729,288.645 382.5,274.5C 384.702,270.431 386.035,266.097 386.5,261.5C 386.796,259.597 387.463,257.93 388.5,256.5 Z"/></g>
<g><path style="opacity:1" fill="#f6d632" d="M 308.5,316.5 C 300.198,321.104 291.198,324.271 281.5,326C 263.152,327.477 244.985,328.977 227,330.5C 225.559,329.74 224.059,329.074 222.5,328.5C 219.18,329.441 215.847,329.608 212.5,329C 213.328,329.915 214.328,330.581 215.5,331C 230.095,333.217 244.762,334.883 259.5,336C 256.028,335.943 253.028,336.943 250.5,339C 253.909,340.834 256.909,343.167 259.5,346C 258.296,347.353 257.629,349.019 257.5,351C 258.096,353.85 258.763,356.683 259.5,359.5C 258.799,363.808 258.466,368.141 258.5,372.5C 259.833,372.5 261.167,372.5 262.5,372.5C 263.149,378.177 263.982,383.843 265,389.5C 267.328,394.494 268.161,399.827 267.5,405.5C 268.5,405.5 269.5,405.5 270.5,405.5C 270.447,409.932 271.114,414.266 272.5,418.5C 272.351,420.32 271.684,421.82 270.5,423C 276.157,423.499 281.824,423.666 287.5,423.5C 273.341,425.642 259.008,425.975 244.5,424.5C 241.456,422.989 238.122,422.322 234.5,422.5C 234.813,419.753 234.48,417.086 233.5,414.5C 231.591,413.652 229.591,413.318 227.5,413.5C 227.167,408.167 226.833,402.833 226.5,397.5C 225.5,397.5 224.5,397.5 223.5,397.5C 223.817,394.428 223.484,391.428 222.5,388.5C 221.277,385.917 219.61,383.75 217.5,382C 218.547,380.32 219.213,378.486 219.5,376.5C 218.207,370.659 216.874,364.826 215.5,359C 215.675,357.342 216.342,356.009 217.5,355C 216.062,354.781 214.729,354.281 213.5,353.5C 212.877,351.289 211.877,349.289 210.5,347.5C 209.516,344.572 209.183,341.572 209.5,338.5C 205.551,338.307 205.551,337.807 209.5,337C 206.47,334.628 203.47,332.295 200.5,330C 196.921,329.208 193.588,327.875 190.5,326C 193.241,325.023 196.075,324.523 199,324.5C 205.914,326.483 212.914,327.817 220,328.5C 230.423,327.679 240.923,327.179 251.5,327C 253.058,326.79 254.391,326.29 255.5,325.5C 266.283,323.465 277.283,321.965 288.5,321C 294.968,318.565 301.635,317.065 308.5,316.5 Z"/></g>
<g><path style="opacity:1" fill="#eacd3c" d="M 194.5,321.5 C 188.491,321.082 182.825,319.582 177.5,317C 174.5,316.333 171.5,316.333 168.5,317C 169.257,318.512 170.257,319.846 171.5,321C 175.107,322.137 178.44,323.804 181.5,326C 184.167,326.333 186.833,326.667 189.5,327C 190,327.5 190.5,328 191,328.5C 190.604,332.457 192.104,335.29 195.5,337C 195.217,350.008 198.55,362.174 205.5,373.5C 205.306,375.07 205.306,376.57 205.5,378C 206.833,379 208.167,380 209.5,381C 208.572,381.388 207.905,382.055 207.5,383C 210.573,387.277 212.906,391.943 214.5,397C 213.572,397.388 212.905,398.055 212.5,399C 213.137,401.245 213.97,403.412 215,405.5C 215.667,404.167 216.333,404.167 217,405.5C 217.101,408.921 217.934,412.088 219.5,415C 219.265,415.873 218.931,416.707 218.5,417.5C 222.796,418.328 227.129,418.828 231.5,419C 229.563,419.122 228.23,419.955 227.5,421.5C 217.546,419.965 208.546,416.299 200.5,410.5C 201.116,408.583 202.45,407.416 204.5,407C 203.377,405.956 202.044,405.29 200.5,405C 201.127,401.628 199.793,398.961 196.5,397C 196.833,396.667 197.167,396.333 197.5,396C 196.259,392.876 195.092,389.709 194,386.5C 193.667,387.167 193.333,387.833 193,388.5C 192.962,383.122 191.795,378.455 189.5,374.5C 188.649,370.759 187.649,367.092 186.5,363.5C 185.5,363.5 184.5,363.5 183.5,363.5C 183.326,358.299 181.993,353.466 179.5,349C 179.645,347.774 179.978,346.607 180.5,345.5C 177.793,341.299 175.793,336.799 174.5,332C 175.552,330.284 174.886,329.284 172.5,329C 172.833,328.667 173.167,328.333 173.5,328C 172.773,326.601 172.273,325.101 172,323.5C 168.718,321.599 165.885,319.266 163.5,316.5C 163.068,315.29 162.401,314.29 161.5,313.5C 159.757,311.076 158.424,308.409 157.5,305.5C 157.833,305.167 158.167,304.833 158.5,304.5C 161.4,307.7 165.067,309.533 169.5,310C 175.694,314.856 182.694,317.856 190.5,319C 192.32,319.2 193.653,320.034 194.5,321.5 Z"/></g>
<g><path style="opacity:1" fill="#cab569" d="M 154.5,307.5 C 156.826,309.455 159.159,311.455 161.5,313.5C 161.02,317.306 162.02,320.639 164.5,323.5C 163.099,330.232 164.932,335.899 170,340.5C 172.506,353.178 175.34,365.845 178.5,378.5C 177.167,375.5 175.833,372.5 174.5,369.5C 174.741,367.102 174.074,365.102 172.5,363.5C 171.744,359.233 170.411,355.233 168.5,351.5C 168.59,348.848 167.924,346.515 166.5,344.5C 163.566,334.699 160.233,325.033 156.5,315.5C 156.44,312.659 155.774,309.993 154.5,307.5 Z"/></g>
<g><path style="opacity:1" fill="#d6be58" d="M 161.5,313.5 C 162.401,314.29 163.068,315.29 163.5,316.5C 166.31,326.778 169.977,336.611 174.5,346C 173.919,346.893 173.585,347.893 173.5,349C 176.196,357.253 179.196,365.42 182.5,373.5C 182.167,374.167 181.833,374.833 181.5,375.5C 181.846,376.696 182.346,376.696 183,375.5C 183.191,380.41 184.191,385.076 186,389.5C 186.635,390.966 187.469,392.3 188.5,393.5C 187.332,394.906 187.665,396.072 189.5,397C 187.034,397.93 187.201,398.763 190,399.5C 190.772,399.355 191.439,399.022 192,398.5C 193.241,400.548 193.408,402.548 192.5,404.5C 184.717,397.607 180.051,388.94 178.5,378.5C 175.34,365.845 172.506,353.178 170,340.5C 164.932,335.899 163.099,330.232 164.5,323.5C 162.02,320.639 161.02,317.306 161.5,313.5 Z"/></g>
<g><path style="opacity:1" fill="#937cc8" d="M 166.5,344.5 C 167.924,346.515 168.59,348.848 168.5,351.5C 167.076,349.485 166.41,347.152 166.5,344.5 Z"/></g>
<g><path style="opacity:1" fill="#8b70cb" d="M 172.5,363.5 C 174.074,365.102 174.741,367.102 174.5,369.5C 172.926,367.898 172.259,365.898 172.5,363.5 Z"/></g>
<g><path style="opacity:1" fill="#e1c64b" d="M 163.5,316.5 C 165.885,319.266 168.718,321.599 172,323.5C 172.273,325.101 172.773,326.601 173.5,328C 173.167,328.333 172.833,328.667 172.5,329C 174.886,329.284 175.552,330.284 174.5,332C 175.793,336.799 177.793,341.299 180.5,345.5C 179.978,346.607 179.645,347.774 179.5,349C 181.993,353.466 183.326,358.299 183.5,363.5C 184.5,363.5 185.5,363.5 186.5,363.5C 187.649,367.092 188.649,370.759 189.5,374.5C 191.795,378.455 192.962,383.122 193,388.5C 193.333,387.833 193.667,387.167 194,386.5C 195.092,389.709 196.259,392.876 197.5,396C 197.167,396.333 196.833,396.667 196.5,397C 199.793,398.961 201.127,401.628 200.5,405C 202.044,405.29 203.377,405.956 204.5,407C 202.45,407.416 201.116,408.583 200.5,410.5C 200.167,410.5 199.833,410.5 199.5,410.5C 196.568,409.2 194.234,407.2 192.5,404.5C 193.408,402.548 193.241,400.548 192,398.5C 191.439,399.022 190.772,399.355 190,399.5C 187.201,398.763 187.034,397.93 189.5,397C 187.665,396.072 187.332,394.906 188.5,393.5C 187.469,392.3 186.635,390.966 186,389.5C 184.191,385.076 183.191,380.41 183,375.5C 182.346,376.696 181.846,376.696 181.5,375.5C 181.833,374.833 182.167,374.167 182.5,373.5C 179.196,365.42 176.196,357.253 173.5,349C 173.585,347.893 173.919,346.893 174.5,346C 169.977,336.611 166.31,326.778 163.5,316.5 Z"/></g>
<g><path style="opacity:1" fill="#fafafa" d="M 379.5,380.5 C 382.305,406.198 373.638,426.865 353.5,442.5C 351.801,442.34 350.134,442.506 348.5,443C 344.927,446.591 340.594,448.758 335.5,449.5C 335.439,454.322 334.273,454.655 332,450.5C 326.21,453.462 320.044,455.295 313.5,456C 312.366,457.016 312.699,457.683 314.5,458C 311.329,460.11 307.996,460.61 304.5,459.5C 292.582,463.028 280.582,463.361 268.5,460.5C 267.914,460.709 267.414,461.043 267,461.5C 259.839,459.132 252.839,456.465 246,453.5C 245.333,450.167 245.333,446.833 246,443.5C 247.054,441.246 248.554,440.913 250.5,442.5C 251.386,441.675 251.719,440.675 251.5,439.5C 250.448,439.649 249.448,439.483 248.5,439C 253.578,436.781 258.578,434.281 263.5,431.5C 264.689,431.756 265.856,432.089 267,432.5C 273.963,429.967 281.13,428.134 288.5,427C 285.879,426.094 286.046,425.594 289,425.5C 290.366,425.706 291.699,426.04 293,426.5C 293.147,425.378 293.981,424.378 295.5,423.5C 302.956,421.37 310.623,419.537 318.5,418C 321.309,416.907 323.976,415.74 326.5,414.5C 343.992,409.09 359.326,400.09 372.5,387.5C 374.605,384.973 376.939,382.64 379.5,380.5 Z"/></g>
<g><path style="opacity:1" fill="#dedddf" d="M 199.5,410.5 C 199.833,410.5 200.167,410.5 200.5,410.5C 208.546,416.299 217.546,419.965 227.5,421.5C 228.995,421.989 230.329,422.655 231.5,423.5C 227.108,423.352 223.274,424.686 220,427.5C 219.228,427.355 218.561,427.022 218,426.5C 214.528,431.502 215.028,436.336 219.5,441C 219.265,441.873 218.931,442.707 218.5,443.5C 222.795,449.14 228.461,452.806 235.5,454.5C 236.705,455.577 237.372,456.91 237.5,458.5C 215.764,449.7 203.097,433.7 199.5,410.5 Z"/></g>
<g><path style="opacity:1" fill="#edecec" d="M 231.5,423.5 C 235.857,423.586 240.19,423.92 244.5,424.5C 259.008,425.975 273.341,425.642 287.5,423.5C 290.167,423.5 292.833,423.5 295.5,423.5C 293.981,424.378 293.147,425.378 293,426.5C 291.699,426.04 290.366,425.706 289,425.5C 286.046,425.594 285.879,426.094 288.5,427C 281.13,428.134 273.963,429.967 267,432.5C 265.856,432.089 264.689,431.756 263.5,431.5C 258.578,434.281 253.578,436.781 248.5,439C 249.448,439.483 250.448,439.649 251.5,439.5C 251.719,440.675 251.386,441.675 250.5,442.5C 248.554,440.913 247.054,441.246 246,443.5C 245.333,446.833 245.333,450.167 246,453.5C 252.839,456.465 259.839,459.132 267,461.5C 267.414,461.043 267.914,460.709 268.5,460.5C 280.582,463.361 292.582,463.028 304.5,459.5C 307.996,460.61 311.329,460.11 314.5,458C 312.699,457.683 312.366,457.016 313.5,456C 320.044,455.295 326.21,453.462 332,450.5C 334.273,454.655 335.439,454.322 335.5,449.5C 340.594,448.758 344.927,446.591 348.5,443C 350.134,442.506 351.801,442.34 353.5,442.5C 336.157,455.613 316.491,463.446 294.5,466C 278.982,467.37 263.648,466.37 248.5,463C 244.551,461.943 240.884,460.443 237.5,458.5C 237.372,456.91 236.705,455.577 235.5,454.5C 228.461,452.806 222.795,449.14 218.5,443.5C 218.931,442.707 219.265,441.873 219.5,441C 215.028,436.336 214.528,431.502 218,426.5C 218.561,427.022 219.228,427.355 220,427.5C 223.274,424.686 227.108,423.352 231.5,423.5 Z"/></g>
</svg>
