<?xml version="1.0" encoding="UTF-8"?>
<!DOCTYPE svg PUBLIC "-//W3C//DTD SVG 1.1//EN" "http://www.w3.org/Graphics/SVG/1.1/DTD/svg11.dtd">
<svg xmlns="http://www.w3.org/2000/svg" version="1.1" width="535px" height="535px" style="shape-rendering:geometricPrecision; text-rendering:geometricPrecision; image-rendering:optimizeQuality; fill-rule:evenodd; clip-rule:evenodd" xmlns:xlink="http://www.w3.org/1999/xlink">
<g><path style="opacity:0.991" fill="#e2f3a4" d="M 534.5,238.5 C 534.5,257.833 534.5,277.167 534.5,296.5C 521.485,386.415 476.152,454.582 398.5,501C 366.296,518.124 332.296,529.291 296.5,534.5C 277.167,534.5 257.833,534.5 238.5,534.5C 147.149,521.268 78.3157,474.935 32,395.5C 0.651218,336.383 -8.01545,274.05 6,208.5C 23.7225,135.834 63.8891,79.3337 126.5,39C 199.782,-3.71404 276.782,-11.714 357.5,15C 443.49,48.3222 499.656,109.156 526,197.5C 529.169,211.246 532.002,224.913 534.5,238.5 Z"/></g>
<g><path style="opacity:1" fill="#c4d26e" d="M 313.5,85.5 C 312.708,87.2572 311.375,88.5905 309.5,89.5C 308.808,88.9747 308.308,88.3081 308,87.5C 305.961,89.8745 303.628,91.8745 301,93.5C 300.383,94.4491 300.549,95.2825 301.5,96C 300.552,96.4828 299.552,96.6495 298.5,96.5C 298.5,95.5 298.5,94.5 298.5,93.5C 296.194,93.9926 293.861,94.3259 291.5,94.5C 288.455,94.4921 285.455,94.1587 282.5,93.5C 273.211,92.0126 263.711,91.3459 254,91.5C 247.657,91.5004 241.491,91.8338 235.5,92.5C 232.142,93.5269 230.475,95.8602 230.5,99.5C 224.479,95.3389 221.312,89.6722 221,82.5C 221.662,81.0161 222.496,79.6828 223.5,78.5C 225.734,76.5541 228.401,75.3874 231.5,75C 259.719,72.5808 287.053,76.0808 313.5,85.5 Z"/></g>
<g><path style="opacity:1" fill="#e1ef8b" d="M 223.5,78.5 C 222.496,79.6828 221.662,81.0161 221,82.5C 221.312,89.6722 224.479,95.3389 230.5,99.5C 243.497,109.493 257.497,117.826 272.5,124.5C 273.703,126.395 274.869,128.395 276,130.5C 276.333,129.833 276.667,129.167 277,128.5C 278.36,130.105 279.86,131.605 281.5,133C 280.944,133.383 280.611,133.883 280.5,134.5C 276.521,132.82 272.521,130.487 268.5,127.5C 267.808,128.025 267.308,128.692 267,129.5C 265.173,128.341 263.507,127.008 262,125.5C 260.111,126.097 258.278,126.431 256.5,126.5C 255.833,125.5 255.167,124.5 254.5,123.5C 253.646,124.522 252.646,125.355 251.5,126C 252.654,126.914 252.487,127.747 251,128.5C 247.983,126.055 245.149,126.388 242.5,129.5C 244.284,130.606 246.118,130.606 248,129.5C 249.947,131.104 251.78,132.104 253.5,132.5C 251.833,134.5 250.167,136.5 248.5,138.5C 250.332,141.946 249.665,143.446 246.5,143C 247.535,144.507 247.368,146.007 246,147.5C 245.586,147.043 245.086,146.709 244.5,146.5C 243.3,147.531 241.966,148.365 240.5,149C 241.5,149.333 242.5,149.667 243.5,150C 242.359,150.741 242.359,151.575 243.5,152.5C 245.524,154.358 247.691,156.025 250,157.5C 251.566,156.939 252.899,157.606 254,159.5C 254.308,158.692 254.808,158.025 255.5,157.5C 257.683,159.85 260.016,162.017 262.5,164C 261.944,164.383 261.611,164.883 261.5,165.5C 260.198,164.193 258.865,164.193 257.5,165.5C 255.167,164.167 252.833,162.833 250.5,161.5C 246.486,162.586 243.32,161.253 241,157.5C 240.692,158.308 240.192,158.975 239.5,159.5C 232.794,155.746 227.294,150.746 223,144.5C 222.085,145.328 221.419,146.328 221,147.5C 217.691,143.85 214.191,141.184 210.5,139.5C 214.656,146.514 220.323,152.681 227.5,158C 226.748,158.671 226.414,159.504 226.5,160.5C 213.916,154.112 203.082,145.445 194,134.5C 190.419,130.091 189.085,125.091 190,119.5C 191.016,118.366 191.683,118.699 192,120.5C 192.743,117.18 193.91,114.013 195.5,111C 195.164,109.97 194.497,109.47 193.5,109.5C 194.688,108.636 195.855,107.636 197,106.5C 202.939,94.3955 211.772,85.0622 223.5,78.5 Z"/></g>
<g><path style="opacity:1" fill="#e17d35" d="M 235.5,92.5 C 234.696,96.0727 236.029,98.906 239.5,101C 250.955,106.751 262.288,112.585 273.5,118.5C 278.18,121.842 283.18,124.675 288.5,127C 289.267,128.47 289.933,129.97 290.5,131.5C 284.5,129.167 278.5,126.833 272.5,124.5C 257.497,117.826 243.497,109.493 230.5,99.5C 230.475,95.8602 232.142,93.5269 235.5,92.5 Z"/></g>
<g><path style="opacity:1" fill="#d7682b" d="M 282.5,93.5 C 285.455,94.1587 288.455,94.4921 291.5,94.5C 294.5,95.8333 297.5,97.1667 300.5,98.5C 300.062,98.4346 299.728,98.6012 299.5,99C 301.044,99.2896 302.377,99.9563 303.5,101C 302.464,102.617 301.297,102.784 300,101.5C 297.724,103.307 297.557,104.807 299.5,106C 298.272,109.963 296.438,113.796 294,117.5C 293.132,120.485 292.799,123.485 293,126.5C 299.248,129.541 305.748,131.874 312.5,133.5C 316.565,135.589 320.898,137.423 325.5,139C 323.292,139.191 321.292,139.691 319.5,140.5C 317.708,140.634 316.042,140.301 314.5,139.5C 306.499,136.833 298.499,134.166 290.5,131.5C 289.933,129.97 289.267,128.47 288.5,127C 283.18,124.675 278.18,121.842 273.5,118.5C 273.461,117.417 273.127,116.417 272.5,115.5C 273.5,114.667 274.5,113.833 275.5,113C 274.044,112.577 273.544,111.744 274,110.5C 277.312,105.121 280.812,100.621 284.5,97C 281.467,95.1556 278.134,94.1556 274.5,94C 277.146,93.5026 279.813,93.3359 282.5,93.5 Z"/></g>
<g><path style="opacity:1" fill="#d9702d" d="M 282.5,93.5 C 279.813,93.3359 277.146,93.5026 274.5,94C 278.134,94.1556 281.467,95.1556 284.5,97C 280.812,100.621 277.312,105.121 274,110.5C 273.544,111.744 274.044,112.577 275.5,113C 274.5,113.833 273.5,114.667 272.5,115.5C 273.127,116.417 273.461,117.417 273.5,118.5C 262.288,112.585 250.955,106.751 239.5,101C 236.029,98.906 234.696,96.0727 235.5,92.5C 241.491,91.8338 247.657,91.5004 254,91.5C 263.711,91.3459 273.211,92.0126 282.5,93.5 Z"/></g>
<g><path style="opacity:1" fill="#b9c662" d="M 313.5,85.5 C 335.118,90.8145 355.785,98.4812 375.5,108.5C 372.762,107.965 370.928,108.965 370,111.5C 369.676,109.431 368.842,109.098 367.5,110.5C 366.522,110.023 365.689,109.357 365,108.5C 358.956,108.572 352.956,109.572 347,111.5C 346.333,110.167 345.333,109.167 344,108.5C 342.887,109.711 341.72,109.711 340.5,108.5C 339.522,108.977 338.689,109.643 338,110.5C 336,109.167 334.333,107.5 333,105.5C 332.667,106.167 332.333,106.833 332,107.5C 329.752,107.142 327.252,106.475 324.5,105.5C 323.893,105.624 323.56,105.957 323.5,106.5C 318.844,104.84 314.177,103.174 309.5,101.5C 306.785,99.9281 303.785,98.9281 300.5,98.5C 297.5,97.1667 294.5,95.8333 291.5,94.5C 293.861,94.3259 296.194,93.9926 298.5,93.5C 298.5,94.5 298.5,95.5 298.5,96.5C 299.552,96.6495 300.552,96.4828 301.5,96C 300.549,95.2825 300.383,94.4491 301,93.5C 303.628,91.8745 305.961,89.8745 308,87.5C 308.308,88.3081 308.808,88.9747 309.5,89.5C 311.375,88.5905 312.708,87.2572 313.5,85.5 Z"/></g>
<g><path style="opacity:1" fill="#d06027" d="M 300.5,98.5 C 303.785,98.9281 306.785,99.9281 309.5,101.5C 309.062,101.435 308.728,101.601 308.5,102C 311.056,104.124 311.889,106.624 311,109.5C 312.557,108.795 313.723,109.461 314.5,111.5C 313.372,116.867 312.205,122.533 311,128.5C 310.5,129.667 309.667,130.5 308.5,131C 310.066,131.608 311.4,132.442 312.5,133.5C 305.748,131.874 299.248,129.541 293,126.5C 292.799,123.485 293.132,120.485 294,117.5C 296.438,113.796 298.272,109.963 299.5,106C 297.557,104.807 297.724,103.307 300,101.5C 301.297,102.784 302.464,102.617 303.5,101C 302.377,99.9563 301.044,99.2896 299.5,99C 299.728,98.6012 300.062,98.4346 300.5,98.5 Z"/></g>
<g><path style="opacity:1" fill="#cb5724" d="M 309.5,101.5 C 314.177,103.174 318.844,104.84 323.5,106.5C 329.293,109.23 334.96,112.23 340.5,115.5C 338.014,116.95 338.347,118.116 341.5,119C 340.54,120.419 339.707,121.919 339,123.5C 337.513,122.747 337.346,121.914 338.5,121C 337.256,120.544 336.423,121.044 336,122.5C 335.667,122.167 335.333,121.833 335,121.5C 334.5,122.667 333.667,123.5 332.5,124C 333.354,125.881 333.021,127.714 331.5,129.5C 329.994,130.747 328.494,130.747 327,129.5C 327.035,133.245 326.035,133.912 324,131.5C 323.682,133.061 322.849,134.228 321.5,135C 324.063,136.079 326.729,136.579 329.5,136.5C 329.33,137.822 329.663,138.989 330.5,140C 328.19,140.497 325.857,140.663 323.5,140.5C 322.167,140.5 320.833,140.5 319.5,140.5C 321.292,139.691 323.292,139.191 325.5,139C 320.898,137.423 316.565,135.589 312.5,133.5C 311.4,132.442 310.066,131.608 308.5,131C 309.667,130.5 310.5,129.667 311,128.5C 312.205,122.533 313.372,116.867 314.5,111.5C 313.723,109.461 312.557,108.795 311,109.5C 311.889,106.624 311.056,104.124 308.5,102C 308.728,101.601 309.062,101.435 309.5,101.5 Z"/></g>
<g><path style="opacity:1" fill="#c45021" d="M 340.5,115.5 C 344.696,116.785 348.696,118.452 352.5,120.5C 354.808,122.471 357.142,124.471 359.5,126.5C 359.5,126.833 359.5,127.167 359.5,127.5C 359.5,127.833 359.5,128.167 359.5,128.5C 356.353,128.737 353.353,129.57 350.5,131C 345.48,134.032 340.48,137.032 335.5,140C 332.568,140.953 329.568,141.453 326.5,141.5C 325.209,141.737 324.209,141.404 323.5,140.5C 325.857,140.663 328.19,140.497 330.5,140C 329.663,138.989 329.33,137.822 329.5,136.5C 326.729,136.579 324.063,136.079 321.5,135C 322.849,134.228 323.682,133.061 324,131.5C 326.035,133.912 327.035,133.245 327,129.5C 328.494,130.747 329.994,130.747 331.5,129.5C 333.021,127.714 333.354,125.881 332.5,124C 333.667,123.5 334.5,122.667 335,121.5C 335.333,121.833 335.667,122.167 336,122.5C 336.423,121.044 337.256,120.544 338.5,121C 337.346,121.914 337.513,122.747 339,123.5C 339.707,121.919 340.54,120.419 341.5,119C 338.347,118.116 338.014,116.95 340.5,115.5 Z"/></g>
<g><path style="opacity:1" fill="#adb958" d="M 375.5,108.5 C 388.774,114.386 400.607,122.386 411,132.5C 411.464,133.094 411.631,133.761 411.5,134.5C 411.833,135.833 412.167,137.167 412.5,138.5C 411.095,136.621 409.428,136.288 407.5,137.5C 406.5,137 405.5,136.5 404.5,136C 405.696,135.346 405.696,134.846 404.5,134.5C 402.843,136.579 400.843,136.746 398.5,135C 397.057,133.933 395.724,132.766 394.5,131.5C 392.729,132.035 392.396,132.869 393.5,134C 392.5,134.5 391.5,135 390.5,135.5C 389.12,134.024 387.453,133.024 385.5,132.5C 384.808,133.025 384.308,133.692 384,134.5C 383.333,133.167 382.333,132.167 381,131.5C 380.667,130.167 380.333,128.833 380,127.5C 377.572,127.214 375.072,127.214 372.5,127.5C 368.136,125.156 363.47,123.656 358.5,123C 358.833,122.667 359.167,122.333 359.5,122C 357.269,121.378 355.435,120.211 354,118.5C 353.283,119.044 352.783,119.711 352.5,120.5C 348.696,118.452 344.696,116.785 340.5,115.5C 334.96,112.23 329.293,109.23 323.5,106.5C 323.56,105.957 323.893,105.624 324.5,105.5C 327.252,106.475 329.752,107.142 332,107.5C 332.333,106.833 332.667,106.167 333,105.5C 334.333,107.5 336,109.167 338,110.5C 338.689,109.643 339.522,108.977 340.5,108.5C 341.72,109.711 342.887,109.711 344,108.5C 345.333,109.167 346.333,110.167 347,111.5C 352.956,109.572 358.956,108.572 365,108.5C 365.689,109.357 366.522,110.023 367.5,110.5C 368.842,109.098 369.676,109.431 370,111.5C 370.928,108.965 372.762,107.965 375.5,108.5 Z"/></g>
<g><path style="opacity:1" fill="#e3f38b" d="M 280.5,134.5 C 281.63,134.469 282.963,134.802 284.5,135.5C 285.696,135.154 285.696,134.654 284.5,134C 285.167,133.333 285.833,133.333 286.5,134C 286.833,135 287.167,136 287.5,137C 289.081,137.707 290.581,138.54 292,139.5C 292.333,139.167 292.667,138.833 293,138.5C 294.105,143.206 296.938,146.373 301.5,148C 303.567,148.536 305.401,148.036 307,146.5C 308.342,150.214 307.509,153.548 304.5,156.5C 302.631,158.889 300.797,158.889 299,156.5C 299.113,159.972 298.779,163.305 298,166.5C 297.667,166.167 297.333,165.833 297,165.5C 294.721,167.163 292.387,168.83 290,170.5C 288.667,167.833 287.333,167.833 286,170.5C 283.617,168.725 280.95,167.392 278,166.5C 275.658,167.178 273.324,166.845 271,165.5C 270.333,166.167 269.667,166.833 269,167.5C 268,166.167 267,166.167 266,167.5C 264.378,166.901 262.878,166.234 261.5,165.5C 261.611,164.883 261.944,164.383 262.5,164C 260.016,162.017 257.683,159.85 255.5,157.5C 254.808,158.025 254.308,158.692 254,159.5C 252.899,157.606 251.566,156.939 250,157.5C 247.691,156.025 245.524,154.358 243.5,152.5C 242.359,151.575 242.359,150.741 243.5,150C 242.5,149.667 241.5,149.333 240.5,149C 241.966,148.365 243.3,147.531 244.5,146.5C 245.086,146.709 245.586,147.043 246,147.5C 247.368,146.007 247.535,144.507 246.5,143C 249.665,143.446 250.332,141.946 248.5,138.5C 250.167,136.5 251.833,134.5 253.5,132.5C 251.78,132.104 249.947,131.104 248,129.5C 246.118,130.606 244.284,130.606 242.5,129.5C 245.149,126.388 247.983,126.055 251,128.5C 252.487,127.747 252.654,126.914 251.5,126C 252.646,125.355 253.646,124.522 254.5,123.5C 255.167,124.5 255.833,125.5 256.5,126.5C 258.278,126.431 260.111,126.097 262,125.5C 263.507,127.008 265.173,128.341 267,129.5C 267.308,128.692 267.808,128.025 268.5,127.5C 272.521,130.487 276.521,132.82 280.5,134.5 Z"/></g>
<g><path style="opacity:1" fill="#a5b153" d="M 412.5,138.5 C 414.448,142.606 413.115,145.273 408.5,146.5C 408.511,145.559 408.011,144.892 407,144.5C 405.012,144.525 403.012,144.525 401,144.5C 400.653,142.82 399.653,141.82 398,141.5C 396.265,142.682 395.265,144.349 395,146.5C 392.734,144.766 390.568,143.1 388.5,141.5C 387.193,142.816 385.693,143.816 384,144.5C 384.497,142.802 384.33,141.135 383.5,139.5C 381.577,138.692 379.577,138.192 377.5,138C 372.29,132.783 366.29,128.95 359.5,126.5C 357.142,124.471 354.808,122.471 352.5,120.5C 352.783,119.711 353.283,119.044 354,118.5C 355.435,120.211 357.269,121.378 359.5,122C 359.167,122.333 358.833,122.667 358.5,123C 363.47,123.656 368.136,125.156 372.5,127.5C 375.072,127.214 377.572,127.214 380,127.5C 380.333,128.833 380.667,130.167 381,131.5C 382.333,132.167 383.333,133.167 384,134.5C 384.308,133.692 384.808,133.025 385.5,132.5C 387.453,133.024 389.12,134.024 390.5,135.5C 391.5,135 392.5,134.5 393.5,134C 392.396,132.869 392.729,132.035 394.5,131.5C 395.724,132.766 397.057,133.933 398.5,135C 400.843,136.746 402.843,136.579 404.5,134.5C 405.696,134.846 405.696,135.346 404.5,136C 405.5,136.5 406.5,137 407.5,137.5C 409.428,136.288 411.095,136.621 412.5,138.5 Z"/></g>
<g><path style="opacity:1" fill="#98a34d" d="M 360.5,128.5 C 362.394,129.048 364.06,130.048 365.5,131.5C 367.972,134.115 369.638,137.115 370.5,140.5C 369.325,140.281 368.325,140.614 367.5,141.5C 369.359,143.192 371.359,144.692 373.5,146C 372.66,147.666 373.16,147.833 375,146.5C 375.928,148.335 377.094,148.668 378.5,147.5C 379.167,148.5 379.833,149.5 380.5,150.5C 380.402,149.384 380.902,148.384 382,147.5C 383.011,147.892 383.511,148.559 383.5,149.5C 386.936,148.053 389.27,149.053 390.5,152.5C 389.5,152.5 388.5,152.5 387.5,152.5C 371.97,151.642 356.637,149.642 341.5,146.5C 338.572,146.435 335.905,145.768 333.5,144.5C 340.321,144.992 346.988,144.325 353.5,142.5C 355.046,139.452 357.38,137.286 360.5,136C 359.864,133.606 359.864,131.106 360.5,128.5 Z"/></g>
<g><path style="opacity:1" fill="#849653" d="M 179.5,128.5 C 181.011,131.005 182.345,133.672 183.5,136.5C 182.833,136.5 182.5,136.833 182.5,137.5C 181.5,136.167 180.5,134.833 179.5,133.5C 179.5,131.833 179.5,130.167 179.5,128.5 Z"/></g>
<g><path style="opacity:1" fill="#e2ee7f" d="M 272.5,124.5 C 278.5,126.833 284.5,129.167 290.5,131.5C 298.499,134.166 306.499,136.833 314.5,139.5C 314.082,140.222 313.416,140.722 312.5,141C 314.833,143.667 317.167,146.333 319.5,149C 318.833,149.333 318.167,149.667 317.5,150C 319.957,151.512 319.957,152.846 317.5,154C 319.917,155.144 320.584,156.81 319.5,159C 319.996,160.996 320.996,162.663 322.5,164C 321.833,165 321.167,166 320.5,167C 321.019,169.026 321.353,171.026 321.5,173C 320.448,174.119 319.281,174.619 318,174.5C 317.333,173.833 316.667,173.167 316,172.5C 314.833,175 313,176.833 310.5,178C 307.823,178.249 305.49,179.249 303.5,181C 300.854,181.497 298.187,181.664 295.5,181.5C 295.657,182.873 295.49,184.207 295,185.5C 291.618,185.852 288.284,185.185 285,183.5C 284.29,184.973 283.124,185.64 281.5,185.5C 274.4,183.117 267.4,180.451 260.5,177.5C 260.415,176.005 261.081,175.005 262.5,174.5C 263.833,175.167 265.167,175.833 266.5,176.5C 269.314,173.908 272.147,173.908 275,176.5C 276.587,175.33 278.253,174.33 280,173.5C 282.098,175.636 284.432,175.636 287,173.5C 287.414,173.957 287.914,174.291 288.5,174.5C 290.851,172.316 293.351,170.316 296,168.5C 296.945,168.905 297.612,169.572 298,170.5C 298.979,168.68 300.479,167.513 302.5,167C 302.167,166.667 301.833,166.333 301.5,166C 302.579,162.85 303.579,159.684 304.5,156.5C 307.509,153.548 308.342,150.214 307,146.5C 305.401,148.036 303.567,148.536 301.5,148C 296.938,146.373 294.105,143.206 293,138.5C 292.667,138.833 292.333,139.167 292,139.5C 290.581,138.54 289.081,137.707 287.5,137C 287.167,136 286.833,135 286.5,134C 285.833,133.333 285.167,133.333 284.5,134C 285.696,134.654 285.696,135.154 284.5,135.5C 282.963,134.802 281.63,134.469 280.5,134.5C 280.611,133.883 280.944,133.383 281.5,133C 279.86,131.605 278.36,130.105 277,128.5C 276.667,129.167 276.333,129.833 276,130.5C 274.869,128.395 273.703,126.395 272.5,124.5 Z"/></g>
<g><path style="opacity:1" fill="#e2ef85" d="M 261.5,165.5 C 262.878,166.234 264.378,166.901 266,167.5C 267,166.167 268,166.167 269,167.5C 269.667,166.833 270.333,166.167 271,165.5C 273.324,166.845 275.658,167.178 278,166.5C 280.95,167.392 283.617,168.725 286,170.5C 287.333,167.833 288.667,167.833 290,170.5C 292.387,168.83 294.721,167.163 297,165.5C 297.333,165.833 297.667,166.167 298,166.5C 298.779,163.305 299.113,159.972 299,156.5C 300.797,158.889 302.631,158.889 304.5,156.5C 303.579,159.684 302.579,162.85 301.5,166C 301.833,166.333 302.167,166.667 302.5,167C 300.479,167.513 298.979,168.68 298,170.5C 297.612,169.572 296.945,168.905 296,168.5C 293.351,170.316 290.851,172.316 288.5,174.5C 287.914,174.291 287.414,173.957 287,173.5C 284.432,175.636 282.098,175.636 280,173.5C 278.253,174.33 276.587,175.33 275,176.5C 272.147,173.908 269.314,173.908 266.5,176.5C 265.167,175.833 263.833,175.167 262.5,174.5C 261.081,175.005 260.415,176.005 260.5,177.5C 248.643,172.905 237.309,167.238 226.5,160.5C 226.414,159.504 226.748,158.671 227.5,158C 220.323,152.681 214.656,146.514 210.5,139.5C 214.191,141.184 217.691,143.85 221,147.5C 221.419,146.328 222.085,145.328 223,144.5C 227.294,150.746 232.794,155.746 239.5,159.5C 240.192,158.975 240.692,158.308 241,157.5C 243.32,161.253 246.486,162.586 250.5,161.5C 252.833,162.833 255.167,164.167 257.5,165.5C 258.865,164.193 260.198,164.193 261.5,165.5 Z"/></g>
<g><path style="opacity:1" fill="#a6451e" d="M 359.5,128.5 C 359.435,130.696 358.768,132.696 357.5,134.5C 352.825,137.84 347.825,140.673 342.5,143C 338.514,143.499 334.514,143.666 330.5,143.5C 328.901,143.768 327.568,143.434 326.5,142.5C 326.5,142.167 326.5,141.833 326.5,141.5C 329.568,141.453 332.568,140.953 335.5,140C 340.48,137.032 345.48,134.032 350.5,131C 353.353,129.57 356.353,128.737 359.5,128.5 Z"/></g>
<g><path style="opacity:1" fill="#ae7837" d="M 319.5,140.5 C 320.833,140.5 322.167,140.5 323.5,140.5C 324.209,141.404 325.209,141.737 326.5,141.5C 326.5,141.833 326.5,142.167 326.5,142.5C 323.848,142.59 321.515,141.924 319.5,140.5 Z"/></g>
<g><path style="opacity:1" fill="#88873f" d="M 359.5,127.5 C 360.167,127.5 360.5,127.833 360.5,128.5C 359.864,131.106 359.864,133.606 360.5,136C 357.38,137.286 355.046,139.452 353.5,142.5C 346.988,144.325 340.321,144.992 333.5,144.5C 332.209,144.737 331.209,144.404 330.5,143.5C 334.514,143.666 338.514,143.499 342.5,143C 347.825,140.673 352.825,137.84 357.5,134.5C 358.768,132.696 359.435,130.696 359.5,128.5C 359.5,128.167 359.5,127.833 359.5,127.5 Z"/></g>
<g><path style="opacity:1" fill="#e0ee88" d="M 182.5,118.5 C 182.087,124.092 183.587,129.092 187,133.5C 195.602,143.436 205.436,151.936 216.5,159C 238.587,171.752 261.587,182.252 285.5,190.5C 284.167,191.833 282.833,193.167 281.5,194.5C 278.888,193.629 276.221,192.963 273.5,192.5C 266.225,188.703 258.558,185.703 250.5,183.5C 246.74,180.461 242.406,178.461 237.5,177.5C 231.649,173.406 225.315,170.073 218.5,167.5C 210.39,161.933 202.39,156.099 194.5,150C 190.226,145.928 186.56,141.428 183.5,136.5C 182.345,133.672 181.011,131.005 179.5,128.5C 180.21,124.975 181.21,121.642 182.5,118.5 Z"/></g>
<g><path style="opacity:1" fill="#dde473" d="M 314.5,139.5 C 316.042,140.301 317.708,140.634 319.5,140.5C 321.515,141.924 323.848,142.59 326.5,142.5C 327.568,143.434 328.901,143.768 330.5,143.5C 331.209,144.404 332.209,144.737 333.5,144.5C 335.905,145.768 338.572,146.435 341.5,146.5C 345.699,147.971 350.033,149.305 354.5,150.5C 354.953,151.458 355.619,152.292 356.5,153C 355.549,153.718 355.383,154.551 356,155.5C 356.814,157.282 357.981,158.782 359.5,160C 358.185,161.395 358.519,162.395 360.5,163C 358.606,164.079 358.273,165.413 359.5,167C 358.5,167.333 357.5,167.667 356.5,168C 357.672,168.419 358.672,169.085 359.5,170C 358.35,172.462 357.017,174.796 355.5,177C 357.442,179.924 356.775,182.591 353.5,185C 351.018,186.969 348.518,188.136 346,188.5C 344.16,187.167 343.66,187.334 344.5,189C 338.581,190.196 332.581,190.862 326.5,191C 325.464,192.617 324.297,192.784 323,191.5C 321.155,193.35 319.155,193.683 317,192.5C 316.544,193.744 317.044,194.577 318.5,195C 316.711,195.52 315.044,195.187 313.5,194C 315.595,193.444 315.762,192.944 314,192.5C 312.234,193.233 310.401,193.567 308.5,193.5C 303.12,192.291 297.787,190.958 292.5,189.5C 288.707,188.569 285.041,187.235 281.5,185.5C 283.124,185.64 284.29,184.973 285,183.5C 288.284,185.185 291.618,185.852 295,185.5C 295.49,184.207 295.657,182.873 295.5,181.5C 298.187,181.664 300.854,181.497 303.5,181C 305.49,179.249 307.823,178.249 310.5,178C 313,176.833 314.833,175 316,172.5C 316.667,173.167 317.333,173.833 318,174.5C 319.281,174.619 320.448,174.119 321.5,173C 321.353,171.026 321.019,169.026 320.5,167C 321.167,166 321.833,165 322.5,164C 320.996,162.663 319.996,160.996 319.5,159C 320.584,156.81 319.917,155.144 317.5,154C 319.957,152.846 319.957,151.512 317.5,150C 318.167,149.667 318.833,149.333 319.5,149C 317.167,146.333 314.833,143.667 312.5,141C 313.416,140.722 314.082,140.222 314.5,139.5 Z"/></g>
<g><path style="opacity:1" fill="#cad365" d="M 354.5,150.5 C 363.003,151.239 371.336,152.739 379.5,155C 379.043,155.414 378.709,155.914 378.5,156.5C 380.086,158.67 381.42,161.004 382.5,163.5C 381.975,164.192 381.308,164.692 380.5,165C 380.578,168.914 380.912,172.581 381.5,176C 378.294,185.289 371.961,191.455 362.5,194.5C 355.162,196.445 347.829,197.945 340.5,199C 345.072,200.373 349.739,201.206 354.5,201.5C 349.297,202.625 343.964,202.458 338.5,201C 328.219,199.097 318.219,196.597 308.5,193.5C 310.401,193.567 312.234,193.233 314,192.5C 315.762,192.944 315.595,193.444 313.5,194C 315.044,195.187 316.711,195.52 318.5,195C 317.044,194.577 316.544,193.744 317,192.5C 319.155,193.683 321.155,193.35 323,191.5C 324.297,192.784 325.464,192.617 326.5,191C 332.581,190.862 338.581,190.196 344.5,189C 343.66,187.334 344.16,187.167 346,188.5C 348.518,188.136 351.018,186.969 353.5,185C 356.775,182.591 357.442,179.924 355.5,177C 357.017,174.796 358.35,172.462 359.5,170C 358.672,169.085 357.672,168.419 356.5,168C 357.5,167.667 358.5,167.333 359.5,167C 358.273,165.413 358.606,164.079 360.5,163C 358.519,162.395 358.185,161.395 359.5,160C 357.981,158.782 356.814,157.282 356,155.5C 355.383,154.551 355.549,153.718 356.5,153C 355.619,152.292 354.953,151.458 354.5,150.5 Z"/></g>
<g><path style="opacity:1" fill="#bac55c" d="M 341.5,146.5 C 356.637,149.642 371.97,151.642 387.5,152.5C 388.802,157.457 391.135,162.291 394.5,167C 393.834,169.594 392.834,172.427 391.5,175.5C 392.04,176.748 392.707,177.915 393.5,179C 391.072,180.162 390.405,181.829 391.5,184C 390.804,185.893 389.97,187.726 389,189.5C 385.123,191.524 381.29,193.69 377.5,196C 369.125,197.916 361.458,199.749 354.5,201.5C 349.739,201.206 345.072,200.373 340.5,199C 347.829,197.945 355.162,196.445 362.5,194.5C 371.961,191.455 378.294,185.289 381.5,176C 380.912,172.581 380.578,168.914 380.5,165C 381.308,164.692 381.975,164.192 382.5,163.5C 381.42,161.004 380.086,158.67 378.5,156.5C 378.709,155.914 379.043,155.414 379.5,155C 371.336,152.739 363.003,151.239 354.5,150.5C 350.033,149.305 345.699,147.971 341.5,146.5 Z"/></g>
<g><path style="opacity:1" fill="#444d29" d="M 183.5,136.5 C 186.56,141.428 190.226,145.928 194.5,150C 202.39,156.099 210.39,161.933 218.5,167.5C 205.319,161.244 193.986,152.577 184.5,141.5C 183.833,140.167 183.167,138.833 182.5,137.5C 182.5,136.833 182.833,136.5 183.5,136.5 Z"/></g>
<g><path style="opacity:1" fill="#c6d36c" d="M 193.5,109.5 C 194.497,109.47 195.164,109.97 195.5,111C 193.91,114.013 192.743,117.18 192,120.5C 191.683,118.699 191.016,118.366 190,119.5C 189.085,125.091 190.419,130.091 194,134.5C 203.082,145.445 213.916,154.112 226.5,160.5C 237.309,167.238 248.643,172.905 260.5,177.5C 267.4,180.451 274.4,183.117 281.5,185.5C 285.041,187.235 288.707,188.569 292.5,189.5C 291.957,189.56 291.624,189.893 291.5,190.5C 292.243,191.182 292.909,191.849 293.5,192.5C 290.779,192.037 288.112,191.371 285.5,190.5C 261.587,182.252 238.587,171.752 216.5,159C 205.436,151.936 195.602,143.436 187,133.5C 183.587,129.092 182.087,124.092 182.5,118.5C 184.792,113.85 188.458,110.85 193.5,109.5 Z"/></g>
<g><path style="opacity:1" fill="#d0e290" d="M 183.5,162.5 C 187.472,166.807 191.472,171.141 195.5,175.5C 194.105,183.281 192.271,191.281 190,199.5C 189.346,198.304 188.846,198.304 188.5,199.5C 190.904,201.598 190.571,203.432 187.5,205C 189.891,205.691 189.891,206.691 187.5,208C 187.944,209.533 188.277,211.033 188.5,212.5C 187.249,213.631 186.249,214.964 185.5,216.5C 186.223,218.782 186.557,221.116 186.5,223.5C 183.203,223.329 182.869,223.995 185.5,225.5C 184.109,225.109 183.109,225.942 182.5,228C 183.357,228.689 184.023,229.522 184.5,230.5C 182.422,232.39 181.089,234.724 180.5,237.5C 181.262,237.911 182.262,238.077 183.5,238C 182.456,241.523 180.622,245.023 178,248.5C 176.842,253.489 175.676,258.489 174.5,263.5C 174.667,264.167 174.833,264.833 175,265.5C 175.718,264.549 176.551,264.383 177.5,265C 175.5,266.333 173.5,267.667 171.5,269C 173.087,269.862 174.754,270.529 176.5,271C 175.289,272.113 175.289,273.28 176.5,274.5C 173.328,277.046 173.161,280.046 176,283.5C 177.183,282.269 178.349,282.269 179.5,283.5C 177.765,286.129 177.432,288.796 178.5,291.5C 177.672,293.908 176.672,296.242 175.5,298.5C 176.781,301.432 176.114,303.932 173.5,306C 174.423,308.048 173.923,309.881 172,311.5C 171.162,310.001 170.329,309.668 169.5,310.5C 163.795,307.081 161.962,302.081 164,295.5C 164.791,294.255 165.291,292.922 165.5,291.5C 168.579,289.263 170.079,286.263 170,282.5C 161.221,290.98 158.888,289.314 163,277.5C 163.972,275.695 165.139,274.028 166.5,272.5C 165.656,267.193 165.823,261.86 167,256.5C 170.685,231.682 175.185,207.015 180.5,182.5C 180.028,180.693 179.694,178.86 179.5,177C 180.462,171.855 181.296,166.688 182,161.5C 182.383,162.056 182.883,162.389 183.5,162.5 Z"/></g>
<g><path style="opacity:1" fill="#727e40" d="M 218.5,167.5 C 225.315,170.073 231.649,173.406 237.5,177.5C 230.411,175.457 224.078,172.124 218.5,167.5 Z"/></g>
<g><path style="opacity:1" fill="#c4d270" d="M 184.5,141.5 C 193.986,152.577 205.319,161.244 218.5,167.5C 224.078,172.124 230.411,175.457 237.5,177.5C 242.406,178.461 246.74,180.461 250.5,183.5C 252.5,184.833 254.5,186.167 256.5,187.5C 254.158,187.775 254.158,188.608 256.5,190C 260.403,190.456 263.403,192.29 265.5,195.5C 263.641,199.066 264.641,201.4 268.5,202.5C 270.282,199.77 272.615,199.103 275.5,200.5C 276.167,199.5 276.833,198.5 277.5,197.5C 280.016,198.33 282.35,199.33 284.5,200.5C 283.868,203.365 282.368,205.698 280,207.5C 277.239,206.501 275.906,204.501 276,201.5C 275.167,202.333 274.333,203.167 273.5,204C 275.283,205.067 275.783,206.567 275,208.5C 271.293,212.893 267.126,213.06 262.5,209C 260.866,208.506 259.199,208.34 257.5,208.5C 235.443,200.138 214.776,189.138 195.5,175.5C 191.472,171.141 187.472,166.807 183.5,162.5C 182.575,155.475 182.908,148.475 184.5,141.5 Z"/></g>
<g><path style="opacity:1" fill="#d7e998" d="M 195.5,175.5 C 214.776,189.138 235.443,200.138 257.5,208.5C 265.526,212.619 273.859,215.953 282.5,218.5C 282.714,220.144 282.38,221.644 281.5,223C 283.947,224.229 284.113,225.729 282,227.5C 280.005,225.171 278.838,225.838 278.5,229.5C 279.737,230.281 280.737,231.281 281.5,232.5C 280.086,233.624 278.586,234.624 277,235.5C 276.297,237.78 275.131,239.78 273.5,241.5C 276.304,242.305 279.138,242.972 282,243.5C 283.054,244.482 283.554,245.649 283.5,247C 282.833,247.333 282.167,247.667 281.5,248C 281.5,250 281.5,252 281.5,254C 278.765,255.782 277.765,258.115 278.5,261C 276.167,262.243 275.5,263.909 276.5,266C 275.975,266.692 275.308,267.192 274.5,267.5C 274.167,266.167 273.833,264.833 273.5,263.5C 271.724,264.315 271.057,265.482 271.5,267C 272.949,268.117 274.616,268.784 276.5,269C 275.672,269.915 274.672,270.581 273.5,271C 287.493,276.829 301.16,283.496 314.5,291C 315.685,292.353 317.019,293.52 318.5,294.5C 318.043,295.298 317.376,295.631 316.5,295.5C 309.005,290.363 301.005,286.029 292.5,282.5C 283.452,277.89 274.619,273.557 266,269.5C 252.477,267.428 238.644,265.595 224.5,264C 220.129,263.172 215.795,263.339 211.5,264.5C 212.747,266.042 212.747,267.542 211.5,269C 212.672,269.419 213.672,270.085 214.5,271C 224.838,272.389 235.171,273.722 245.5,275C 247.725,275.561 249.725,276.561 251.5,278C 250.5,278.333 249.5,278.667 248.5,279C 252.36,280.612 255.86,282.112 259,283.5C 257.135,288.362 255.635,293.528 254.5,299C 254.063,301.217 254.063,303.551 254.5,306C 251.636,308.011 251.302,310.178 253.5,312.5C 252.335,313.584 251.002,314.417 249.5,315C 250.308,315.308 250.975,315.808 251.5,316.5C 250.687,317.814 249.687,318.981 248.5,320C 249.184,321.693 250.184,323.193 251.5,324.5C 249.783,325.793 248.116,327.626 246.5,330C 246.521,334.545 246.854,339.045 247.5,343.5C 244.418,349.587 245.085,350.42 249.5,346C 248.612,344.283 249.279,343.116 251.5,342.5C 252.91,342.868 253.91,343.701 254.5,345C 249.663,343.493 249.329,344.826 253.5,349C 251.368,349.918 250.701,351.251 251.5,353C 253.167,353.667 254.833,353.667 256.5,353C 255.304,352.346 255.304,351.846 256.5,351.5C 257.262,352.628 257.929,353.795 258.5,355C 265.432,356.789 272.432,357.789 279.5,358C 278.289,357.107 278.289,356.274 279.5,355.5C 280.429,356.689 280.762,358.022 280.5,359.5C 281.833,359.5 283.167,359.5 284.5,359.5C 284.281,358.325 284.614,357.325 285.5,356.5C 286.275,358.396 287.275,360.063 288.5,361.5C 272.697,359.633 257.03,356.966 241.5,353.5C 240.833,353.5 240.167,353.5 239.5,353.5C 233.702,350.436 227.702,347.603 221.5,345C 222.167,344.667 222.833,344.333 223.5,344C 217.441,341.206 211.108,339.373 204.5,338.5C 199.976,336.957 195.976,334.623 192.5,331.5C 184.297,325.207 176.63,318.207 169.5,310.5C 170.329,309.668 171.162,310.001 172,311.5C 173.923,309.881 174.423,308.048 173.5,306C 176.114,303.932 176.781,301.432 175.5,298.5C 176.672,296.242 177.672,293.908 178.5,291.5C 177.432,288.796 177.765,286.129 179.5,283.5C 178.349,282.269 177.183,282.269 176,283.5C 173.161,280.046 173.328,277.046 176.5,274.5C 175.289,273.28 175.289,272.113 176.5,271C 174.754,270.529 173.087,269.862 171.5,269C 173.5,267.667 175.5,266.333 177.5,265C 176.551,264.383 175.718,264.549 175,265.5C 174.833,264.833 174.667,264.167 174.5,263.5C 175.676,258.489 176.842,253.489 178,248.5C 180.622,245.023 182.456,241.523 183.5,238C 182.262,238.077 181.262,237.911 180.5,237.5C 181.089,234.724 182.422,232.39 184.5,230.5C 184.023,229.522 183.357,228.689 182.5,228C 183.109,225.942 184.109,225.109 185.5,225.5C 182.869,223.995 183.203,223.329 186.5,223.5C 186.557,221.116 186.223,218.782 185.5,216.5C 186.249,214.964 187.249,213.631 188.5,212.5C 188.277,211.033 187.944,209.533 187.5,208C 189.891,206.691 189.891,205.691 187.5,205C 190.571,203.432 190.904,201.598 188.5,199.5C 188.846,198.304 189.346,198.304 190,199.5C 192.271,191.281 194.105,183.281 195.5,175.5 Z"/></g>
<g><path style="opacity:1" fill="#afba56" d="M 355.5,206.5 C 334.4,203.687 313.733,199.021 293.5,192.5C 292.909,191.849 292.243,191.182 291.5,190.5C 291.624,189.893 291.957,189.56 292.5,189.5C 297.787,190.958 303.12,192.291 308.5,193.5C 318.219,196.597 328.219,199.097 338.5,201C 343.964,202.458 349.297,202.625 354.5,201.5C 361.458,199.749 369.125,197.916 377.5,196C 381.29,193.69 385.123,191.524 389,189.5C 389.97,187.726 390.804,185.893 391.5,184C 390.405,181.829 391.072,180.162 393.5,179C 392.707,177.915 392.04,176.748 391.5,175.5C 392.834,172.427 393.834,169.594 394.5,167C 391.135,162.291 388.802,157.457 387.5,152.5C 388.5,152.5 389.5,152.5 390.5,152.5C 394.507,150.936 398.341,151.269 402,153.5C 403.113,158.342 404.28,163.176 405.5,168C 404.621,170.299 405.288,172.299 407.5,174C 406.167,176 404.5,177.667 402.5,179C 402.833,179.333 403.167,179.667 403.5,180C 401.547,182.953 400.047,186.119 399,189.5C 395.637,192.522 391.97,195.188 388,197.5C 387.667,197.167 387.333,196.833 387,196.5C 384.28,197.223 382.113,198.723 380.5,201C 371.478,202.223 371.811,203.223 381.5,204C 372.167,204.333 362.833,204.667 353.5,205C 354.416,205.278 355.082,205.778 355.5,206.5 Z"/></g>
<g><path style="opacity:1" fill="#8f9c4f" d="M 250.5,183.5 C 258.558,185.703 266.225,188.703 273.5,192.5C 267.64,191.435 261.973,189.768 256.5,187.5C 254.5,186.167 252.5,184.833 250.5,183.5 Z"/></g>
<g><path style="opacity:1" fill="#dbe374" d="M 285.5,190.5 C 288.112,191.371 290.779,192.037 293.5,192.5C 313.733,199.021 334.4,203.687 355.5,206.5C 355.918,207.222 356.584,207.722 357.5,208C 355.114,208.284 354.448,209.284 355.5,211C 354.207,211.49 352.873,211.657 351.5,211.5C 350.167,211.5 348.833,211.5 347.5,211.5C 337.257,209.696 326.924,207.696 316.5,205.5C 316.5,204.833 316.167,204.5 315.5,204.5C 304.161,201.498 292.827,198.498 281.5,195.5C 281.5,195.167 281.5,194.833 281.5,194.5C 282.833,193.167 284.167,191.833 285.5,190.5 Z"/></g>
<g><path style="opacity:1" fill="#c0d482" d="M 179.5,133.5 C 180.5,134.833 181.5,136.167 182.5,137.5C 183.167,138.833 183.833,140.167 184.5,141.5C 182.908,148.475 182.575,155.475 183.5,162.5C 182.883,162.389 182.383,162.056 182,161.5C 181.296,166.688 180.462,171.855 179.5,177C 179.694,178.86 180.028,180.693 180.5,182.5C 175.185,207.015 170.685,231.682 167,256.5C 165.823,261.86 165.656,267.193 166.5,272.5C 165.139,274.028 163.972,275.695 163,277.5C 158.888,289.314 161.221,290.98 170,282.5C 170.079,286.263 168.579,289.263 165.5,291.5C 165.607,289.621 165.107,289.288 164,290.5C 162.52,294.733 161.02,298.733 159.5,302.5C 157.399,299.873 156.066,296.873 155.5,293.5C 156.117,293.611 156.617,293.944 157,294.5C 163.246,261.267 169.246,227.933 175,194.5C 175.834,189.839 176.168,185.172 176,180.5C 175.261,182.221 174.427,183.887 173.5,185.5C 172.833,182.358 172.166,179.358 171.5,176.5C 173.632,162.041 176.298,147.707 179.5,133.5 Z"/></g>
<g><path style="opacity:1" fill="#7c863c" d="M 419.5,178.5 C 420.976,180.769 422.476,183.102 424,185.5C 424.333,190.167 424.667,194.833 425,199.5C 425.513,200.527 426.013,201.527 426.5,202.5C 421.62,202.317 416.286,202.983 410.5,204.5C 407.25,204.192 403.917,204.025 400.5,204C 403.932,202.456 407.266,200.789 410.5,199C 409.692,198.692 409.025,198.192 408.5,197.5C 409.859,195.308 411.692,193.641 414,192.5C 416.151,187.839 417.984,183.172 419.5,178.5 Z"/></g>
<g><path style="opacity:1" fill="#818d45" d="M 281.5,195.5 C 292.827,198.498 304.161,201.498 315.5,204.5C 312.234,205.264 308.9,204.931 305.5,203.5C 297.099,201.74 289.099,199.074 281.5,195.5 Z"/></g>
<g><path style="opacity:1" fill="#a0ac4e" d="M 359.5,127.5 C 359.5,127.167 359.5,126.833 359.5,126.5C 366.29,128.95 372.29,132.783 377.5,138C 379.577,138.192 381.577,138.692 383.5,139.5C 384.33,141.135 384.497,142.802 384,144.5C 385.693,143.816 387.193,142.816 388.5,141.5C 390.568,143.1 392.734,144.766 395,146.5C 395.265,144.349 396.265,142.682 398,141.5C 399.653,141.82 400.653,142.82 401,144.5C 403.012,144.525 405.012,144.525 407,144.5C 408.011,144.892 408.511,145.559 408.5,146.5C 413.115,145.273 414.448,142.606 412.5,138.5C 412.167,137.167 411.833,135.833 411.5,134.5C 413.316,136.118 414.649,138.118 415.5,140.5C 414.234,142.895 413.568,145.562 413.5,148.5C 415.868,159.635 416.035,170.302 414,180.5C 412.351,183.436 410.851,186.436 409.5,189.5C 405.126,193.202 400.459,196.535 395.5,199.5C 394.614,200.325 394.281,201.325 394.5,202.5C 396.199,202.34 397.866,202.506 399.5,203C 392.256,204.652 384.923,205.652 377.5,206C 383.239,207.074 388.906,207.907 394.5,208.5C 381.451,208.649 368.451,207.983 355.5,206.5C 355.082,205.778 354.416,205.278 353.5,205C 362.833,204.667 372.167,204.333 381.5,204C 371.811,203.223 371.478,202.223 380.5,201C 382.113,198.723 384.28,197.223 387,196.5C 387.333,196.833 387.667,197.167 388,197.5C 391.97,195.188 395.637,192.522 399,189.5C 400.047,186.119 401.547,182.953 403.5,180C 403.167,179.667 402.833,179.333 402.5,179C 404.5,177.667 406.167,176 407.5,174C 405.288,172.299 404.621,170.299 405.5,168C 404.28,163.176 403.113,158.342 402,153.5C 398.341,151.269 394.507,150.936 390.5,152.5C 389.27,149.053 386.936,148.053 383.5,149.5C 383.511,148.559 383.011,147.892 382,147.5C 380.902,148.384 380.402,149.384 380.5,150.5C 379.833,149.5 379.167,148.5 378.5,147.5C 377.094,148.668 375.928,148.335 375,146.5C 373.16,147.833 372.66,147.666 373.5,146C 371.359,144.692 369.359,143.192 367.5,141.5C 368.325,140.614 369.325,140.281 370.5,140.5C 369.638,137.115 367.972,134.115 365.5,131.5C 364.06,130.048 362.394,129.048 360.5,128.5C 360.5,127.833 360.167,127.5 359.5,127.5 Z"/></g>
<g><path style="opacity:1" fill="#8c9745" d="M 415.5,140.5 C 420.457,152.735 421.791,165.402 419.5,178.5C 417.984,183.172 416.151,187.839 414,192.5C 411.692,193.641 409.859,195.308 408.5,197.5C 409.025,198.192 409.692,198.692 410.5,199C 407.266,200.789 403.932,202.456 400.5,204C 403.917,204.025 407.25,204.192 410.5,204.5C 416.286,202.983 421.62,202.317 426.5,202.5C 431.166,205.866 431.666,209.866 428,214.5C 427.329,215.252 426.496,215.586 425.5,215.5C 426.141,214.518 426.807,213.518 427.5,212.5C 425.604,211.534 423.604,211.201 421.5,211.5C 412.459,210.892 403.459,209.892 394.5,208.5C 388.906,207.907 383.239,207.074 377.5,206C 384.923,205.652 392.256,204.652 399.5,203C 397.866,202.506 396.199,202.34 394.5,202.5C 394.281,201.325 394.614,200.325 395.5,199.5C 400.459,196.535 405.126,193.202 409.5,189.5C 410.851,186.436 412.351,183.436 414,180.5C 416.035,170.302 415.868,159.635 413.5,148.5C 413.568,145.562 414.234,142.895 415.5,140.5 Z"/></g>
<g><path style="opacity:1" fill="#bec85e" d="M 355.5,206.5 C 368.451,207.983 381.451,208.649 394.5,208.5C 403.459,209.892 412.459,210.892 421.5,211.5C 419.374,212.126 417.707,213.459 416.5,215.5C 414.604,216.466 412.604,216.799 410.5,216.5C 409.5,216.5 408.5,216.5 407.5,216.5C 403.188,215.752 398.854,215.086 394.5,214.5C 379.907,215.059 365.573,214.059 351.5,211.5C 352.873,211.657 354.207,211.49 355.5,211C 354.448,209.284 355.114,208.284 357.5,208C 356.584,207.722 355.918,207.222 355.5,206.5 Z"/></g>
<g><path style="opacity:1" fill="#394022" d="M 347.5,211.5 C 348.833,211.5 350.167,211.5 351.5,211.5C 365.573,214.059 379.907,215.059 394.5,214.5C 387.352,215.492 380.019,215.825 372.5,215.5C 368.434,215.693 364.434,215.36 360.5,214.5C 354.778,214.102 349.111,213.269 343.5,212C 344.793,211.51 346.127,211.343 347.5,211.5 Z"/></g>
<g><path style="opacity:1" fill="#b7c562" d="M 284.5,200.5 C 289.748,201.437 294.915,202.771 300,204.5C 301.876,205.619 302.709,207.286 302.5,209.5C 305.216,209.678 307.883,210.178 310.5,211C 309.012,212.717 307.179,213.884 305,214.5C 304.316,215.784 304.483,216.951 305.5,218C 300.864,222.212 295.864,222.545 290.5,219C 291.711,218.107 291.711,217.274 290.5,216.5C 289.452,217.548 288.452,218.548 287.5,219.5C 285.883,218.962 284.216,218.629 282.5,218.5C 273.859,215.953 265.526,212.619 257.5,208.5C 259.199,208.34 260.866,208.506 262.5,209C 267.126,213.06 271.293,212.893 275,208.5C 275.783,206.567 275.283,205.067 273.5,204C 274.333,203.167 275.167,202.333 276,201.5C 275.906,204.501 277.239,206.501 280,207.5C 282.368,205.698 283.868,203.365 284.5,200.5 Z"/></g>
<g><path style="opacity:1" fill="#b2bd59" d="M 421.5,211.5 C 423.604,211.201 425.604,211.534 427.5,212.5C 426.807,213.518 426.141,214.518 425.5,215.5C 425.389,216.117 425.056,216.617 424.5,217C 421.081,217.248 417.747,217.748 414.5,218.5C 413.167,217.833 411.833,217.167 410.5,216.5C 412.604,216.799 414.604,216.466 416.5,215.5C 417.707,213.459 419.374,212.126 421.5,211.5 Z"/></g>
<g><path style="opacity:1" fill="#abb95b" d="M 256.5,187.5 C 261.973,189.768 267.64,191.435 273.5,192.5C 276.221,192.963 278.888,193.629 281.5,194.5C 281.5,194.833 281.5,195.167 281.5,195.5C 289.099,199.074 297.099,201.74 305.5,203.5C 305.082,204.222 304.416,204.722 303.5,205C 306.353,206.43 309.353,207.263 312.5,207.5C 312.33,208.822 312.663,209.989 313.5,211C 317.373,211.836 321.207,212.669 325,213.5C 325.181,215.674 324.348,217.507 322.5,219C 324.167,219.333 325.833,219.667 327.5,220C 322.928,223.994 322.928,227.161 327.5,229.5C 313.903,227.189 300.57,223.856 287.5,219.5C 288.452,218.548 289.452,217.548 290.5,216.5C 291.711,217.274 291.711,218.107 290.5,219C 295.864,222.545 300.864,222.212 305.5,218C 304.483,216.951 304.316,215.784 305,214.5C 307.179,213.884 309.012,212.717 310.5,211C 307.883,210.178 305.216,209.678 302.5,209.5C 302.709,207.286 301.876,205.619 300,204.5C 294.915,202.771 289.748,201.437 284.5,200.5C 282.35,199.33 280.016,198.33 277.5,197.5C 276.833,198.5 276.167,199.5 275.5,200.5C 272.615,199.103 270.282,199.77 268.5,202.5C 264.641,201.4 263.641,199.066 265.5,195.5C 263.403,192.29 260.403,190.456 256.5,190C 254.158,188.608 254.158,187.775 256.5,187.5 Z"/></g>
<g><path style="opacity:1" fill="#96a44e" d="M 305.5,203.5 C 308.9,204.931 312.234,205.264 315.5,204.5C 316.167,204.5 316.5,204.833 316.5,205.5C 318.277,206.6 320.277,207.434 322.5,208C 321.5,208.333 320.5,208.667 319.5,209C 321.594,210.352 323.927,210.852 326.5,210.5C 326.5,211.5 326.5,212.5 326.5,213.5C 339.158,212.498 350.491,214.998 360.5,221C 358.865,222.748 356.865,223.915 354.5,224.5C 359.438,225.204 360.772,228.204 358.5,233.5C 355.833,233.5 353.167,233.5 350.5,233.5C 342.849,232.28 335.182,230.947 327.5,229.5C 322.928,227.161 322.928,223.994 327.5,220C 325.833,219.667 324.167,219.333 322.5,219C 324.348,217.507 325.181,215.674 325,213.5C 321.207,212.669 317.373,211.836 313.5,211C 312.663,209.989 312.33,208.822 312.5,207.5C 309.353,207.263 306.353,206.43 303.5,205C 304.416,204.722 305.082,204.222 305.5,203.5 Z"/></g>
<g><path style="opacity:1" fill="#879346" d="M 316.5,205.5 C 326.924,207.696 337.257,209.696 347.5,211.5C 346.127,211.343 344.793,211.51 343.5,212C 349.111,213.269 354.778,214.102 360.5,214.5C 361.446,218.335 363.779,219.335 367.5,217.5C 368.799,218.09 369.632,219.09 370,220.5C 372.213,219.24 374.713,218.574 377.5,218.5C 379.833,218.667 382.167,218.833 384.5,219C 385.11,220.947 385.943,222.781 387,224.5C 387.615,227.045 387.115,229.378 385.5,231.5C 384.914,231.291 384.414,230.957 384,230.5C 378.495,231.978 372.995,232.978 367.5,233.5C 365.5,233.5 363.5,233.5 361.5,233.5C 360.5,233.5 359.5,233.5 358.5,233.5C 360.772,228.204 359.438,225.204 354.5,224.5C 356.865,223.915 358.865,222.748 360.5,221C 350.491,214.998 339.158,212.498 326.5,213.5C 326.5,212.5 326.5,211.5 326.5,210.5C 323.927,210.852 321.594,210.352 319.5,209C 320.5,208.667 321.5,208.333 322.5,208C 320.277,207.434 318.277,206.6 316.5,205.5 Z"/></g>
<g><path style="opacity:1" fill="#5e6936" d="M 394.5,214.5 C 398.854,215.086 403.188,215.752 407.5,216.5C 406.833,218.167 406.167,219.833 405.5,221.5C 404.178,221.33 403.011,221.663 402,222.5C 399.52,220.834 396.687,220.001 393.5,220C 394.337,218.989 394.67,217.822 394.5,216.5C 386.981,216.825 379.648,216.492 372.5,215.5C 380.019,215.825 387.352,215.492 394.5,214.5 Z"/></g>
<g><path style="opacity:1" fill="#d1e391" d="M 282.5,218.5 C 284.216,218.629 285.883,218.962 287.5,219.5C 300.57,223.856 313.903,227.189 327.5,229.5C 335.182,230.947 342.849,232.28 350.5,233.5C 348.631,234.165 346.631,234.831 344.5,235.5C 343.846,237.115 343.346,238.782 343,240.5C 341.491,241.09 339.991,241.756 338.5,242.5C 339.582,242.749 340.915,242.915 342.5,243C 341.266,245.924 339.599,248.591 337.5,251C 338.167,251.333 338.833,251.667 339.5,252C 338.821,253.929 337.821,255.929 336.5,258C 338.274,260.244 338.44,262.41 337,264.5C 327.436,261.86 326.936,264.027 335.5,271C 335.167,271.333 334.833,271.667 334.5,272C 335.516,272.519 336.182,273.353 336.5,274.5C 335.301,275.575 334.134,276.575 333,277.5C 332.316,273.907 330.816,273.573 328.5,276.5C 328.838,278.655 328.838,280.989 328.5,283.5C 330.484,283.383 332.15,284.05 333.5,285.5C 331.833,285.5 330.167,285.5 328.5,285.5C 329.183,288.461 330.016,288.795 331,286.5C 332.824,287.749 332.657,288.915 330.5,290C 331.167,290.333 331.833,290.667 332.5,291C 330.408,291.953 330.075,293.286 331.5,295C 330.572,295.388 329.905,296.055 329.5,297C 330.187,298.162 330.353,299.328 330,300.5C 327.971,298.74 325.804,297.573 323.5,297C 325.566,298.696 327.066,300.529 328,302.5C 323.886,300.531 320.052,298.197 316.5,295.5C 317.376,295.631 318.043,295.298 318.5,294.5C 317.019,293.52 315.685,292.353 314.5,291C 301.16,283.496 287.493,276.829 273.5,271C 274.672,270.581 275.672,269.915 276.5,269C 274.616,268.784 272.949,268.117 271.5,267C 271.057,265.482 271.724,264.315 273.5,263.5C 273.833,264.833 274.167,266.167 274.5,267.5C 275.308,267.192 275.975,266.692 276.5,266C 275.5,263.909 276.167,262.243 278.5,261C 277.765,258.115 278.765,255.782 281.5,254C 281.5,252 281.5,250 281.5,248C 282.167,247.667 282.833,247.333 283.5,247C 283.554,245.649 283.054,244.482 282,243.5C 279.138,242.972 276.304,242.305 273.5,241.5C 275.131,239.78 276.297,237.78 277,235.5C 278.586,234.624 280.086,233.624 281.5,232.5C 280.737,231.281 279.737,230.281 278.5,229.5C 278.838,225.838 280.005,225.171 282,227.5C 284.113,225.729 283.947,224.229 281.5,223C 282.38,221.644 282.714,220.144 282.5,218.5 Z"/></g>
<g><path style="opacity:1" fill="#b2c776" d="M 171.5,176.5 C 172.166,179.358 172.833,182.358 173.5,185.5C 174.427,183.887 175.261,182.221 176,180.5C 176.168,185.172 175.834,189.839 175,194.5C 169.246,227.933 163.246,261.267 157,294.5C 156.617,293.944 156.117,293.611 155.5,293.5C 154.833,292.833 154.167,292.167 153.5,291.5C 152.355,287.689 152.188,283.689 153,279.5C 159.053,244.995 165.22,210.662 171.5,176.5 Z"/></g>
<g><path style="opacity:1" fill="#798641" d="M 360.5,214.5 C 364.434,215.36 368.434,215.693 372.5,215.5C 379.648,216.492 386.981,216.825 394.5,216.5C 394.67,217.822 394.337,218.989 393.5,220C 396.687,220.001 399.52,220.834 402,222.5C 403.011,221.663 404.178,221.33 405.5,221.5C 404.42,223.996 403.086,226.33 401.5,228.5C 399.426,229.514 397.426,230.514 395.5,231.5C 391.613,231.646 387.946,232.313 384.5,233.5C 378.833,233.5 373.167,233.5 367.5,233.5C 372.995,232.978 378.495,231.978 384,230.5C 384.414,230.957 384.914,231.291 385.5,231.5C 387.115,229.378 387.615,227.045 387,224.5C 385.943,222.781 385.11,220.947 384.5,219C 382.167,218.833 379.833,218.667 377.5,218.5C 374.713,218.574 372.213,219.24 370,220.5C 369.632,219.09 368.799,218.09 367.5,217.5C 363.779,219.335 361.446,218.335 360.5,214.5 Z"/></g>
<g><path style="opacity:1" fill="#cadd8b" d="M 350.5,233.5 C 353.167,233.5 355.833,233.5 358.5,233.5C 359.5,233.5 360.5,233.5 361.5,233.5C 369.323,234.329 377.323,234.829 385.5,235C 383.206,239.085 380.54,242.919 377.5,246.5C 379.022,248.156 378.689,249.323 376.5,250C 377.641,250.741 377.641,251.575 376.5,252.5C 377.025,253.192 377.692,253.692 378.5,254C 377.376,254.249 376.376,254.749 375.5,255.5C 373.741,259.435 371.741,263.268 369.5,267C 369.833,267.333 370.167,267.667 370.5,268C 368.99,270.009 367.323,271.842 365.5,273.5C 364.553,276.023 364.553,278.689 365.5,281.5C 364.205,285.962 361.872,289.796 358.5,293C 357.576,294.15 357.576,295.15 358.5,296C 356.606,297.101 355.939,298.434 356.5,300C 352.388,306.146 349.554,313.313 348,321.5C 347,320.5 346,319.5 345,318.5C 345.59,321.283 346.423,324.117 347.5,327C 346.815,329.795 346.315,332.628 346,335.5C 344.758,337.859 343.258,339.859 341.5,341.5C 341.496,339.158 340.663,337.158 339,335.5C 337.71,339.73 337.21,344.064 337.5,348.5C 337.06,351.38 336.06,354.046 334.5,356.5C 330.683,358.788 326.683,359.788 322.5,359.5C 319.026,361.062 315.36,361.895 311.5,362C 304.654,362.821 297.987,362.654 291.5,361.5C 295.846,361.666 300.179,361.499 304.5,361C 303.137,359.055 302.303,356.888 302,354.5C 301,355.833 300,357.167 299,358.5C 298.83,356.017 299.664,353.851 301.5,352C 300.551,351.383 299.718,351.549 299,352.5C 298.257,350.559 298.424,348.726 299.5,347C 296.736,345.456 296.903,344.289 300,343.5C 300.765,340.804 301.932,338.304 303.5,336C 302.551,335.383 301.718,335.549 301,336.5C 301.148,335.175 300.982,334.008 300.5,333C 303.959,333.734 304.293,332.734 301.5,330C 303.166,326.292 304.833,322.625 306.5,319C 306.167,318.667 305.833,318.333 305.5,318C 306.773,315.059 308.773,312.726 311.5,311C 310.251,309.176 309.085,309.343 308,311.5C 307.815,309.174 308.982,307.84 311.5,307.5C 313.538,309.276 315.704,310.943 318,312.5C 318.167,312 318.333,311.5 318.5,311C 317.576,309.85 317.576,308.85 318.5,308C 310.48,300.988 301.647,295.155 292,290.5C 290.632,288.506 290.132,286.506 290.5,284.5C 290.855,283.478 291.522,282.811 292.5,282.5C 301.005,286.029 309.005,290.363 316.5,295.5C 320.052,298.197 323.886,300.531 328,302.5C 327.066,300.529 325.566,298.696 323.5,297C 325.804,297.573 327.971,298.74 330,300.5C 330.353,299.328 330.187,298.162 329.5,297C 329.905,296.055 330.572,295.388 331.5,295C 330.075,293.286 330.408,291.953 332.5,291C 331.833,290.667 331.167,290.333 330.5,290C 332.657,288.915 332.824,287.749 331,286.5C 330.016,288.795 329.183,288.461 328.5,285.5C 330.167,285.5 331.833,285.5 333.5,285.5C 332.15,284.05 330.484,283.383 328.5,283.5C 328.838,280.989 328.838,278.655 328.5,276.5C 330.816,273.573 332.316,273.907 333,277.5C 334.134,276.575 335.301,275.575 336.5,274.5C 336.182,273.353 335.516,272.519 334.5,272C 334.833,271.667 335.167,271.333 335.5,271C 326.936,264.027 327.436,261.86 337,264.5C 338.44,262.41 338.274,260.244 336.5,258C 337.821,255.929 338.821,253.929 339.5,252C 338.833,251.667 338.167,251.333 337.5,251C 339.599,248.591 341.266,245.924 342.5,243C 340.915,242.915 339.582,242.749 338.5,242.5C 339.991,241.756 341.491,241.09 343,240.5C 343.346,238.782 343.846,237.115 344.5,235.5C 346.631,234.831 348.631,234.165 350.5,233.5 Z"/></g>
<g><path style="opacity:1" fill="#bbcf7e" d="M 361.5,233.5 C 363.5,233.5 365.5,233.5 367.5,233.5C 373.167,233.5 378.833,233.5 384.5,233.5C 386.5,233.5 388.5,233.5 390.5,233.5C 390.19,237.268 389.357,240.935 388,244.5C 382.158,255.361 377.491,266.695 374,278.5C 369.803,288.561 364.803,298.227 359,307.5C 358.408,311.276 357.408,314.943 356,318.5C 353.319,320.527 351.653,323.193 351,326.5C 350.333,327.833 349.667,327.833 349,326.5C 349.339,332.821 347.839,338.488 344.5,343.5C 343.604,346.144 342.771,348.81 342,351.5C 341.502,348.183 341.335,344.85 341.5,341.5C 343.258,339.859 344.758,337.859 346,335.5C 346.315,332.628 346.815,329.795 347.5,327C 346.423,324.117 345.59,321.283 345,318.5C 346,319.5 347,320.5 348,321.5C 349.554,313.313 352.388,306.146 356.5,300C 355.939,298.434 356.606,297.101 358.5,296C 357.576,295.15 357.576,294.15 358.5,293C 361.872,289.796 364.205,285.962 365.5,281.5C 364.553,278.689 364.553,276.023 365.5,273.5C 367.323,271.842 368.99,270.009 370.5,268C 370.167,267.667 369.833,267.333 369.5,267C 371.741,263.268 373.741,259.435 375.5,255.5C 376.376,254.749 377.376,254.249 378.5,254C 377.692,253.692 377.025,253.192 376.5,252.5C 377.641,251.575 377.641,250.741 376.5,250C 378.689,249.323 379.022,248.156 377.5,246.5C 380.54,242.919 383.206,239.085 385.5,235C 377.323,234.829 369.323,234.329 361.5,233.5 Z"/></g>
<g><path style="opacity:1" fill="#9aae64" d="M 401.5,228.5 C 402.043,228.56 402.376,228.893 402.5,229.5C 400.52,231.795 399.353,234.461 399,237.5C 393.125,249.582 386.958,261.582 380.5,273.5C 385.101,260.562 390.601,247.895 397,235.5C 397.844,233.537 397.344,232.204 395.5,231.5C 397.426,230.514 399.426,229.514 401.5,228.5 Z"/></g>
<g><path style="opacity:1" fill="#d4e593" d="M 292.5,282.5 C 291.522,282.811 290.855,283.478 290.5,284.5C 290.132,286.506 290.632,288.506 292,290.5C 301.647,295.155 310.48,300.988 318.5,308C 317.576,308.85 317.576,309.85 318.5,311C 318.333,311.5 318.167,312 318,312.5C 315.704,310.943 313.538,309.276 311.5,307.5C 308.982,307.84 307.815,309.174 308,311.5C 309.085,309.343 310.251,309.176 311.5,311C 308.773,312.726 306.773,315.059 305.5,318C 305.833,318.333 306.167,318.667 306.5,319C 304.833,322.625 303.166,326.292 301.5,330C 304.293,332.734 303.959,333.734 300.5,333C 300.982,334.008 301.148,335.175 301,336.5C 301.718,335.549 302.551,335.383 303.5,336C 301.932,338.304 300.765,340.804 300,343.5C 296.903,344.289 296.736,345.456 299.5,347C 298.424,348.726 298.257,350.559 299,352.5C 299.718,351.549 300.551,351.383 301.5,352C 299.664,353.851 298.83,356.017 299,358.5C 300,357.167 301,355.833 302,354.5C 302.303,356.888 303.137,359.055 304.5,361C 300.179,361.499 295.846,361.666 291.5,361.5C 290.5,361.5 289.5,361.5 288.5,361.5C 287.275,360.063 286.275,358.396 285.5,356.5C 284.614,357.325 284.281,358.325 284.5,359.5C 283.167,359.5 281.833,359.5 280.5,359.5C 280.762,358.022 280.429,356.689 279.5,355.5C 278.289,356.274 278.289,357.107 279.5,358C 272.432,357.789 265.432,356.789 258.5,355C 257.929,353.795 257.262,352.628 256.5,351.5C 255.304,351.846 255.304,352.346 256.5,353C 254.833,353.667 253.167,353.667 251.5,353C 250.701,351.251 251.368,349.918 253.5,349C 249.329,344.826 249.663,343.493 254.5,345C 253.91,343.701 252.91,342.868 251.5,342.5C 249.279,343.116 248.612,344.283 249.5,346C 245.085,350.42 244.418,349.587 247.5,343.5C 246.854,339.045 246.521,334.545 246.5,330C 248.116,327.626 249.783,325.793 251.5,324.5C 250.184,323.193 249.184,321.693 248.5,320C 249.687,318.981 250.687,317.814 251.5,316.5C 250.975,315.808 250.308,315.308 249.5,315C 251.002,314.417 252.335,313.584 253.5,312.5C 251.302,310.178 251.636,308.011 254.5,306C 254.063,303.551 254.063,301.217 254.5,299C 255.635,293.528 257.135,288.362 259,283.5C 255.86,282.112 252.36,280.612 248.5,279C 249.5,278.667 250.5,278.333 251.5,278C 249.725,276.561 247.725,275.561 245.5,275C 235.171,273.722 224.838,272.389 214.5,271C 213.672,270.085 212.672,269.419 211.5,269C 212.747,267.542 212.747,266.042 211.5,264.5C 215.795,263.339 220.129,263.172 224.5,264C 238.644,265.595 252.477,267.428 266,269.5C 274.619,273.557 283.452,277.89 292.5,282.5 Z"/></g>
<g><path style="opacity:1" fill="#809252" d="M 407.5,216.5 C 408.5,216.5 409.5,216.5 410.5,216.5C 411.833,217.167 413.167,217.833 414.5,218.5C 393.849,262.122 373.349,305.788 353,349.5C 352.292,350.381 351.458,351.047 350.5,351.5C 350.565,351.062 350.399,350.728 350,350.5C 347.823,353.523 344.989,355.523 341.5,356.5C 346.098,348.354 350.598,340.021 355,331.5C 362.929,314.206 370.929,296.872 379,279.5C 379.813,277.564 380.313,275.564 380.5,273.5C 386.958,261.582 393.125,249.582 399,237.5C 399.353,234.461 400.52,231.795 402.5,229.5C 402.376,228.893 402.043,228.56 401.5,228.5C 403.086,226.33 404.42,223.996 405.5,221.5C 406.167,219.833 406.833,218.167 407.5,216.5 Z"/></g>
<g><path style="opacity:1" fill="#9eb268" d="M 165.5,291.5 C 165.291,292.922 164.791,294.255 164,295.5C 161.962,302.081 163.795,307.081 169.5,310.5C 176.63,318.207 184.297,325.207 192.5,331.5C 179.369,324.375 168.369,314.709 159.5,302.5C 161.02,298.733 162.52,294.733 164,290.5C 165.107,289.288 165.607,289.621 165.5,291.5 Z"/></g>
<g><path style="opacity:1" fill="#c7da88" d="M 165.5,316.5 C 164.355,317.793 164.689,318.959 166.5,320C 165.351,321.604 165.351,323.27 166.5,325C 163.809,330.78 162.809,336.78 163.5,343C 160.776,346.676 160.11,350.676 161.5,355C 158.36,360.015 157.36,365.015 158.5,370C 154.383,384.529 151.717,399.363 150.5,414.5C 149.685,413.571 148.852,412.571 148,411.5C 147.333,406.5 147.333,401.5 148,396.5C 152.28,369.487 156.78,342.487 161.5,315.5C 161.406,313.311 160.739,311.311 159.5,309.5C 160.355,308.707 161.189,309.04 162,310.5C 163.421,312.405 164.588,314.405 165.5,316.5 Z"/></g>
<g><path style="opacity:1" fill="#d8e998" d="M 165.5,316.5 C 169.513,321.512 174.179,325.845 179.5,329.5C 193.904,340.374 209.57,349.207 226.5,356C 236.425,359.197 246.425,362.197 256.5,365C 266.36,367.477 276.36,368.977 286.5,369.5C 286.833,369.5 287.167,369.5 287.5,369.5C 288.952,370.302 290.618,370.802 292.5,371C 291.584,371.374 290.75,371.874 290,372.5C 286.111,370.666 284.444,371.666 285,375.5C 283.829,373.384 282.329,372.718 280.5,373.5C 281.73,375.933 282.73,378.433 283.5,381C 282.138,385.448 280.471,389.781 278.5,394C 279.622,395.613 279.122,396.78 277,397.5C 276.821,400.553 276.321,403.553 275.5,406.5C 273.739,405.965 272.406,404.965 271.5,403.5C 272.598,402.399 272.765,401.066 272,399.5C 267.167,396 262.333,392.5 257.5,389C 258.908,388.685 260.241,389.018 261.5,390C 264.736,392.868 268.236,395.368 272,397.5C 273.868,395.35 275.035,393.183 275.5,391C 273.068,389.913 273.402,389.413 276.5,389.5C 276.64,387.876 275.973,386.71 274.5,386C 275.448,385.517 276.448,385.351 277.5,385.5C 277.016,380.924 277.016,376.591 277.5,372.5C 268.22,370.531 258.554,368.531 248.5,366.5C 247.576,370.941 246.242,375.275 244.5,379.5C 245.04,380.748 245.707,381.915 246.5,383C 243.949,383.002 241.949,383.836 240.5,385.5C 236.186,384.261 232.019,382.595 228,380.5C 226.238,380.944 226.405,381.444 228.5,382C 221.523,381.409 214.523,380.576 207.5,379.5C 205.611,379.436 203.944,379.936 202.5,381C 203.167,381.333 203.833,381.667 204.5,382C 202.423,382.192 200.423,382.692 198.5,383.5C 208.711,384.709 218.711,386.875 228.5,390C 227.892,390.87 227.059,391.37 226,391.5C 223.425,389.679 220.759,389.346 218,390.5C 217.316,391.784 217.483,392.951 218.5,394C 217.458,396.557 216.125,398.89 214.5,401C 215.613,403.849 214.946,406.349 212.5,408.5C 212.5,410.5 212.5,412.5 212.5,414.5C 211.305,419.225 209.638,423.725 207.5,428C 207.957,428.414 208.291,428.914 208.5,429.5C 205.678,434.307 203.345,439.307 201.5,444.5C 202.933,446.809 202.266,448.309 199.5,449C 203.677,451.059 208.01,452.726 212.5,454C 211.552,454.483 210.552,454.649 209.5,454.5C 191.977,449.573 176.31,441.24 162.5,429.5C 157.779,425.047 153.779,420.047 150.5,414.5C 151.717,399.363 154.383,384.529 158.5,370C 157.36,365.015 158.36,360.015 161.5,355C 160.11,350.676 160.776,346.676 163.5,343C 162.809,336.78 163.809,330.78 166.5,325C 165.351,323.27 165.351,321.604 166.5,320C 164.689,318.959 164.355,317.793 165.5,316.5 Z"/></g>
<g><path style="opacity:1" fill="#a7bc6e" d="M 395.5,231.5 C 397.344,232.204 397.844,233.537 397,235.5C 390.601,247.895 385.101,260.562 380.5,273.5C 380.313,275.564 379.813,277.564 379,279.5C 370.929,296.872 362.929,314.206 355,331.5C 350.598,340.021 346.098,348.354 341.5,356.5C 333.712,359.85 325.712,362.184 317.5,363.5C 306.167,363.5 294.833,363.5 283.5,363.5C 269.21,361.631 255.21,358.297 241.5,353.5C 257.03,356.966 272.697,359.633 288.5,361.5C 289.5,361.5 290.5,361.5 291.5,361.5C 297.987,362.654 304.654,362.821 311.5,362C 315.36,361.895 319.026,361.062 322.5,359.5C 326.683,359.788 330.683,358.788 334.5,356.5C 335.329,357.332 336.162,356.999 337,355.5C 339.643,351.772 340.477,347.772 339.5,343.5C 338.83,345.291 338.163,346.958 337.5,348.5C 337.21,344.064 337.71,339.73 339,335.5C 340.663,337.158 341.496,339.158 341.5,341.5C 341.335,344.85 341.502,348.183 342,351.5C 342.771,348.81 343.604,346.144 344.5,343.5C 347.839,338.488 349.339,332.821 349,326.5C 349.667,327.833 350.333,327.833 351,326.5C 351.653,323.193 353.319,320.527 356,318.5C 357.408,314.943 358.408,311.276 359,307.5C 364.803,298.227 369.803,288.561 374,278.5C 377.491,266.695 382.158,255.361 388,244.5C 389.357,240.935 390.19,237.268 390.5,233.5C 388.5,233.5 386.5,233.5 384.5,233.5C 387.946,232.313 391.613,231.646 395.5,231.5 Z"/></g>
<g><path style="opacity:1" fill="#a7bb6e" d="M 156.5,301.5 C 162.141,309.108 168.475,316.108 175.5,322.5C 175.062,322.435 174.728,322.601 174.5,323C 176.5,325 178.5,327 180.5,329C 180.272,329.399 179.938,329.565 179.5,329.5C 174.179,325.845 169.513,321.512 165.5,316.5C 164.588,314.405 163.421,312.405 162,310.5C 161.189,309.04 160.355,308.707 159.5,309.5C 160.739,311.311 161.406,313.311 161.5,315.5C 156.78,342.487 152.28,369.487 148,396.5C 147.333,401.5 147.333,406.5 148,411.5C 148.852,412.571 149.685,413.571 150.5,414.5C 153.779,420.047 157.779,425.047 162.5,429.5C 161.261,430.212 160.761,431.212 161,432.5C 163.716,436.234 167.216,438.734 171.5,440C 179.522,445.229 187.855,449.896 196.5,454C 207.325,457.113 217.992,460.28 228.5,463.5C 218.426,462.19 208.593,459.857 199,456.5C 198.235,456.57 197.735,456.903 197.5,457.5C 180.033,450.853 165.199,440.52 153,426.5C 149.479,421.458 146.479,416.125 144,410.5C 142.485,403.233 142.152,395.899 143,388.5C 148.587,359.647 153.087,330.647 156.5,301.5 Z"/></g>
<g><path style="opacity:1" fill="#49542f" d="M 153.5,291.5 C 154.167,292.167 154.833,292.833 155.5,293.5C 156.066,296.873 157.399,299.873 159.5,302.5C 168.369,314.709 179.369,324.375 192.5,331.5C 195.976,334.623 199.976,336.957 204.5,338.5C 215.518,344.838 227.185,349.838 239.5,353.5C 240.167,353.5 240.833,353.5 241.5,353.5C 255.21,358.297 269.21,361.631 283.5,363.5C 282.508,363.328 281.842,363.662 281.5,364.5C 242.232,360.085 206.899,346.085 175.5,322.5C 168.475,316.108 162.141,309.108 156.5,301.5C 155.099,298.296 154.099,294.963 153.5,291.5 Z"/></g>
<g><path style="opacity:1" fill="#b6c97b" d="M 204.5,338.5 C 211.108,339.373 217.441,341.206 223.5,344C 222.833,344.333 222.167,344.667 221.5,345C 227.702,347.603 233.702,350.436 239.5,353.5C 227.185,349.838 215.518,344.838 204.5,338.5 Z"/></g>
<g><path style="opacity:1" fill="#556237" d="M 334.5,356.5 C 336.06,354.046 337.06,351.38 337.5,348.5C 338.163,346.958 338.83,345.291 339.5,343.5C 340.477,347.772 339.643,351.772 337,355.5C 336.162,356.999 335.329,357.332 334.5,356.5 Z"/></g>
<g><path style="opacity:1" fill="#bfd281" d="M 175.5,322.5 C 206.899,346.085 242.232,360.085 281.5,364.5C 290.95,366.14 300.616,366.807 310.5,366.5C 302.552,367.941 294.552,368.941 286.5,369.5C 276.36,368.977 266.36,367.477 256.5,365C 246.425,362.197 236.425,359.197 226.5,356C 209.57,349.207 193.904,340.374 179.5,329.5C 179.938,329.565 180.272,329.399 180.5,329C 178.5,327 176.5,325 174.5,323C 174.728,322.601 175.062,322.435 175.5,322.5 Z"/></g>
<g><path style="opacity:1" fill="#414a2a" d="M 350.5,351.5 C 347.254,355.461 343.254,358.461 338.5,360.5C 333.669,362.198 328.669,363.532 323.5,364.5C 321.735,363.539 319.735,363.205 317.5,363.5C 325.712,362.184 333.712,359.85 341.5,356.5C 344.989,355.523 347.823,353.523 350,350.5C 350.399,350.728 350.565,351.062 350.5,351.5 Z"/></g>
<g><path style="opacity:1" fill="#3e4729" d="M 283.5,363.5 C 294.833,363.5 306.167,363.5 317.5,363.5C 319.735,363.205 321.735,363.539 323.5,364.5C 319.076,364.652 314.743,365.319 310.5,366.5C 300.616,366.807 290.95,366.14 281.5,364.5C 281.842,363.662 282.508,363.328 283.5,363.5 Z"/></g>
<g><path style="opacity:1" fill="#b8cd7b" d="M 321.5,381.5 C 312.163,400.175 302.829,418.842 293.5,437.5C 293.118,433.46 294.118,429.793 296.5,426.5C 295.745,423.781 296.411,421.281 298.5,419C 298.167,418.667 297.833,418.333 297.5,418C 305.267,403.296 312.1,388.129 318,372.5C 318.5,370.667 319.667,369.5 321.5,369C 321.272,368.601 320.938,368.435 320.5,368.5C 323.792,366.236 327.459,365.07 331.5,365C 326.785,369.584 323.452,375.084 321.5,381.5 Z"/></g>
<g><path style="opacity:1" fill="#d3e594" d="M 287.5,369.5 C 296.5,369.5 305.5,369.5 314.5,369.5C 310.305,371.203 304.639,372.203 297.5,372.5C 297.714,374.144 297.38,375.644 296.5,377C 298.125,377.853 298.458,378.853 297.5,380C 299.831,382.2 299.831,384.2 297.5,386C 301.312,387.797 301.479,389.964 298,392.5C 295.135,389.72 292.468,386.72 290,383.5C 288.605,384.815 287.605,384.481 287,382.5C 286.342,384.108 286.842,385.275 288.5,386C 285.833,386.667 285.833,387.333 288.5,388C 286.981,389.218 285.814,390.718 285,392.5C 284.508,393.549 284.674,394.549 285.5,395.5C 285.154,396.696 284.654,396.696 284,395.5C 283.383,396.449 283.549,397.282 284.5,398C 283.833,398.667 283.167,399.333 282.5,400C 283.297,404.372 285.63,408.205 289.5,411.5C 289.023,412.478 288.357,413.311 287.5,414C 288.692,415.912 289.692,417.912 290.5,420C 290.925,425.386 290.425,430.886 289,436.5C 287.883,436.335 286.716,436.002 285.5,435.5C 284.749,436.376 284.249,437.376 284,438.5C 282.03,433.594 279.863,428.761 277.5,424C 273.724,419.22 269.557,414.72 265,410.5C 264.626,411.416 264.126,412.25 263.5,413C 263.607,416.065 263.607,419.065 263.5,422C 261.774,423.53 259.774,424.53 257.5,425C 258.516,425.519 259.182,426.353 259.5,427.5C 258.802,428.863 258.802,430.029 259.5,431C 258.584,431.374 257.75,431.874 257,432.5C 256.333,435.833 255.667,439.167 255,442.5C 254.682,444.061 253.849,445.228 252.5,446C 252.937,448.449 252.937,450.783 252.5,453C 251.944,455.237 250.944,457.237 249.5,459C 251.058,459.21 252.391,459.71 253.5,460.5C 245.493,460.666 237.493,460.5 229.5,460C 222.464,459.077 215.797,457.244 209.5,454.5C 210.552,454.649 211.552,454.483 212.5,454C 208.01,452.726 203.677,451.059 199.5,449C 202.266,448.309 202.933,446.809 201.5,444.5C 203.345,439.307 205.678,434.307 208.5,429.5C 208.291,428.914 207.957,428.414 207.5,428C 209.638,423.725 211.305,419.225 212.5,414.5C 212.5,412.5 212.5,410.5 212.5,408.5C 214.946,406.349 215.613,403.849 214.5,401C 216.125,398.89 217.458,396.557 218.5,394C 217.483,392.951 217.316,391.784 218,390.5C 220.759,389.346 223.425,389.679 226,391.5C 227.059,391.37 227.892,390.87 228.5,390C 218.711,386.875 208.711,384.709 198.5,383.5C 200.423,382.692 202.423,382.192 204.5,382C 203.833,381.667 203.167,381.333 202.5,381C 203.944,379.936 205.611,379.436 207.5,379.5C 214.523,380.576 221.523,381.409 228.5,382C 226.405,381.444 226.238,380.944 228,380.5C 232.019,382.595 236.186,384.261 240.5,385.5C 250.402,392.283 260.735,398.283 271.5,403.5C 272.406,404.965 273.739,405.965 275.5,406.5C 276.321,403.553 276.821,400.553 277,397.5C 279.122,396.78 279.622,395.613 278.5,394C 280.471,389.781 282.138,385.448 283.5,381C 282.73,378.433 281.73,375.933 280.5,373.5C 282.329,372.718 283.829,373.384 285,375.5C 284.444,371.666 286.111,370.666 290,372.5C 290.75,371.874 291.584,371.374 292.5,371C 290.618,370.802 288.952,370.302 287.5,369.5 Z"/></g>
<g><path style="opacity:1" fill="#899d59" d="M 338.5,360.5 C 324.357,390.12 309.69,419.453 294.5,448.5C 293.957,448.44 293.624,448.107 293.5,447.5C 298.391,434.531 304.391,421.697 311.5,409C 314.478,403.516 316.978,397.349 319,390.5C 319.622,388.269 320.789,386.435 322.5,385C 321.663,383.989 321.33,382.822 321.5,381.5C 323.452,375.084 326.785,369.584 331.5,365C 327.459,365.07 323.792,366.236 320.5,368.5C 318.265,368.205 316.265,368.539 314.5,369.5C 305.5,369.5 296.5,369.5 287.5,369.5C 287.167,369.5 286.833,369.5 286.5,369.5C 294.552,368.941 302.552,367.941 310.5,366.5C 314.743,365.319 319.076,364.652 323.5,364.5C 328.669,363.532 333.669,362.198 338.5,360.5 Z"/></g>
<g><path style="opacity:1" fill="#e1f2a3" d="M 271.5,403.5 C 260.735,398.283 250.402,392.283 240.5,385.5C 241.949,383.836 243.949,383.002 246.5,383C 245.707,381.915 245.04,380.748 244.5,379.5C 246.242,375.275 247.576,370.941 248.5,366.5C 258.554,368.531 268.22,370.531 277.5,372.5C 277.016,376.591 277.016,380.924 277.5,385.5C 276.448,385.351 275.448,385.517 274.5,386C 275.973,386.71 276.64,387.876 276.5,389.5C 273.402,389.413 273.068,389.913 275.5,391C 275.035,393.183 273.868,395.35 272,397.5C 268.236,395.368 264.736,392.868 261.5,390C 260.241,389.018 258.908,388.685 257.5,389C 262.333,392.5 267.167,396 272,399.5C 272.765,401.066 272.598,402.399 271.5,403.5 Z"/></g>
<g><path style="opacity:1" fill="#93a75f" d="M 321.5,381.5 C 321.33,382.822 321.663,383.989 322.5,385C 320.789,386.435 319.622,388.269 319,390.5C 316.978,397.349 314.478,403.516 311.5,409C 304.391,421.697 298.391,434.531 293.5,447.5C 293.624,448.107 293.957,448.44 294.5,448.5C 284.691,459.405 272.358,465.571 257.5,467C 236.743,468.485 216.743,465.318 197.5,457.5C 197.735,456.903 198.235,456.57 199,456.5C 208.593,459.857 218.426,462.19 228.5,463.5C 237.839,463.666 247.173,463.5 256.5,463C 260.266,461.971 263.933,460.804 267.5,459.5C 274.127,458.096 280.46,455.929 286.5,453C 290.008,448.337 292.342,443.17 293.5,437.5C 302.829,418.842 312.163,400.175 321.5,381.5 Z"/></g>
<g><path style="opacity:1" fill="#ccdf8c" d="M 314.5,369.5 C 316.265,368.539 318.265,368.205 320.5,368.5C 320.938,368.435 321.272,368.601 321.5,369C 319.667,369.5 318.5,370.667 318,372.5C 312.1,388.129 305.267,403.296 297.5,418C 297.833,418.333 298.167,418.667 298.5,419C 296.411,421.281 295.745,423.781 296.5,426.5C 294.118,429.793 293.118,433.46 293.5,437.5C 292.342,443.17 290.008,448.337 286.5,453C 280.46,455.929 274.127,458.096 267.5,459.5C 262.87,460.229 258.203,460.563 253.5,460.5C 252.391,459.71 251.058,459.21 249.5,459C 250.944,457.237 251.944,455.237 252.5,453C 252.937,450.783 252.937,448.449 252.5,446C 253.849,445.228 254.682,444.061 255,442.5C 255.667,439.167 256.333,435.833 257,432.5C 257.75,431.874 258.584,431.374 259.5,431C 258.802,430.029 258.802,428.863 259.5,427.5C 259.182,426.353 258.516,425.519 257.5,425C 259.774,424.53 261.774,423.53 263.5,422C 263.607,419.065 263.607,416.065 263.5,413C 264.126,412.25 264.626,411.416 265,410.5C 269.557,414.72 273.724,419.22 277.5,424C 279.863,428.761 282.03,433.594 284,438.5C 284.249,437.376 284.749,436.376 285.5,435.5C 286.716,436.002 287.883,436.335 289,436.5C 290.425,430.886 290.925,425.386 290.5,420C 289.692,417.912 288.692,415.912 287.5,414C 288.357,413.311 289.023,412.478 289.5,411.5C 285.63,408.205 283.297,404.372 282.5,400C 283.167,399.333 283.833,398.667 284.5,398C 283.549,397.282 283.383,396.449 284,395.5C 284.654,396.696 285.154,396.696 285.5,395.5C 284.674,394.549 284.508,393.549 285,392.5C 285.814,390.718 286.981,389.218 288.5,388C 285.833,387.333 285.833,386.667 288.5,386C 286.842,385.275 286.342,384.108 287,382.5C 287.605,384.481 288.605,384.815 290,383.5C 292.468,386.72 295.135,389.72 298,392.5C 301.479,389.964 301.312,387.797 297.5,386C 299.831,384.2 299.831,382.2 297.5,380C 298.458,378.853 298.125,377.853 296.5,377C 297.38,375.644 297.714,374.144 297.5,372.5C 304.639,372.203 310.305,371.203 314.5,369.5 Z"/></g>
<g><path style="opacity:1" fill="#b4c978" d="M 162.5,429.5 C 176.31,441.24 191.977,449.573 209.5,454.5C 215.797,457.244 222.464,459.077 229.5,460C 237.493,460.5 245.493,460.666 253.5,460.5C 258.203,460.563 262.87,460.229 267.5,459.5C 263.933,460.804 260.266,461.971 256.5,463C 247.173,463.5 237.839,463.666 228.5,463.5C 217.992,460.28 207.325,457.113 196.5,454C 187.855,449.896 179.522,445.229 171.5,440C 167.216,438.734 163.716,436.234 161,432.5C 160.761,431.212 161.261,430.212 162.5,429.5 Z"/></g>
</svg>
