<?xml version="1.0" encoding="UTF-8"?>
<!DOCTYPE svg PUBLIC "-//W3C//DTD SVG 1.1//EN" "http://www.w3.org/Graphics/SVG/1.1/DTD/svg11.dtd">
<svg xmlns="http://www.w3.org/2000/svg" version="1.1" width="535px" height="535px" style="shape-rendering:geometricPrecision; text-rendering:geometricPrecision; image-rendering:optimizeQuality; fill-rule:evenodd; clip-rule:evenodd" xmlns:xlink="http://www.w3.org/1999/xlink">
<g><path style="opacity:0.994" fill="#d6d165" d="M 243.5,0.5 C 341.108,-4.60798 420.274,30.7254 481,106.5C 532.175,178.725 546.175,257.725 523,343.5C 497.858,422.644 447.358,479.144 371.5,513C 280.748,548.059 194.748,539.059 113.5,486C 32.7445,425.635 -4.75546,344.802 1,243.5C 11.7413,149.449 57.9079,78.9495 139.5,32C 172.235,14.6957 206.902,4.19572 243.5,0.5 Z"/></g>
<g><path style="opacity:1" fill="#e0cfac" d="M 247.5,62.5 C 246.448,62.3505 245.448,62.5172 244.5,63C 246.087,63.8624 247.754,64.5291 249.5,65C 248.944,65.3826 248.611,65.8826 248.5,66.5C 246.5,66.5 244.5,66.5 242.5,66.5C 226.978,62.9204 211.978,64.2538 197.5,70.5C 196.833,70.5 196.167,70.5 195.5,70.5C 210.206,63.1311 225.873,59.9644 242.5,61C 244.382,61.1981 246.048,61.6981 247.5,62.5 Z"/></g>
<g><path style="opacity:1" fill="#ccbda2" d="M 247.5,62.5 C 259.982,64.0666 269.982,69.7333 277.5,79.5C 273.916,77.2606 270.583,74.5939 267.5,71.5C 266.313,70.3473 265.313,70.3473 264.5,71.5C 261.833,71.1667 259.167,70.8333 256.5,70.5C 253.279,70.1039 250.612,68.7705 248.5,66.5C 248.611,65.8826 248.944,65.3826 249.5,65C 247.754,64.5291 246.087,63.8624 244.5,63C 245.448,62.5172 246.448,62.3505 247.5,62.5 Z"/></g>
<g><path style="opacity:1" fill="#c3ad84" d="M 238.5,75.5 C 230.826,75.3336 223.159,75.5003 215.5,76C 211.712,76.874 208.046,78.0407 204.5,79.5C 188.256,84.9115 177.09,95.5781 171,111.5C 170.502,114.817 170.335,118.15 170.5,121.5C 170.283,124.421 170.949,127.087 172.5,129.5C 173.167,130.5 173.833,131.5 174.5,132.5C 173.325,132.719 172.325,132.386 171.5,131.5C 170.253,128.671 168.753,126.005 167,123.5C 166.375,116.993 167.208,110.66 169.5,104.5C 175.521,97.1496 181.854,90.1496 188.5,83.5C 193.958,80.7711 199.291,78.1045 204.5,75.5C 215.763,73.6552 227.096,73.1552 238.5,74C 239.738,74.69 239.738,75.19 238.5,75.5 Z"/></g>
<g><path style="opacity:1" fill="#d6d166" d="M 238.5,75.5 C 246.149,77.8254 253.149,81.492 259.5,86.5C 262.181,90.5278 264.347,94.8611 266,99.5C 266.718,102.407 266.218,105.074 264.5,107.5C 237.334,108.002 212,115.002 188.5,128.5C 187.833,128.5 187.5,128.833 187.5,129.5C 184.331,128.998 181.998,127.331 180.5,124.5C 179.6,119.228 179.267,113.895 179.5,108.5C 183.895,95.4379 192.229,85.7712 204.5,79.5C 208.046,78.0407 211.712,76.874 215.5,76C 223.159,75.5003 230.826,75.3336 238.5,75.5 Z"/></g>
<g><path style="opacity:1" fill="#d8bc8e" d="M 259.5,86.5 C 253.149,81.492 246.149,77.8254 238.5,75.5C 239.738,75.19 239.738,74.69 238.5,74C 227.096,73.1552 215.763,73.6552 204.5,75.5C 207.503,73.7383 210.837,72.5717 214.5,72C 224.522,71.4455 234.522,71.7789 244.5,73C 249.106,75.2823 253.439,77.9489 257.5,81C 258.464,82.7255 259.131,84.5588 259.5,86.5 Z"/></g>
<g><path style="opacity:1" fill="#f5daa9" d="M 242.5,66.5 C 244.121,68.1172 246.121,69.2838 248.5,70C 247.216,70.6838 246.049,70.5171 245,69.5C 242.557,71.6631 240.057,71.8298 237.5,70C 230.5,69.3333 223.5,69.3333 216.5,70C 209.364,71.4562 202.364,73.4562 195.5,76C 193.944,76.7202 192.944,77.8868 192.5,79.5C 173.127,88.2435 163.96,103.244 165,124.5C 166.635,127.632 168.468,130.632 170.5,133.5C 173.443,134.244 176.443,134.744 179.5,135C 177.959,136.371 176.625,137.871 175.5,139.5C 174.833,139.833 174.167,140.167 173.5,140.5C 173.209,139.351 172.376,138.684 171,138.5C 168.073,140.42 165.406,142.753 163,145.5C 162.414,142.981 161.247,140.981 159.5,139.5C 159.5,139.167 159.5,138.833 159.5,138.5C 155,117.499 160.666,99.6655 176.5,85C 183.6,80.1326 190.6,75.2992 197.5,70.5C 211.978,64.2538 226.978,62.9204 242.5,66.5 Z"/></g>
<g><path style="opacity:1" fill="#b8a482" d="M 256.5,70.5 C 259.167,70.8333 261.833,71.1667 264.5,71.5C 268.111,75.9419 272.278,79.9419 277,83.5C 281.213,89.5771 284.213,95.9104 286,102.5C 286.667,101.167 287.333,101.167 288,102.5C 289.782,109.981 291.615,117.314 293.5,124.5C 293.891,131.921 293.391,139.254 292,146.5C 290.266,147.249 288.433,147.749 286.5,148C 285.115,149.649 283.449,150.816 281.5,151.5C 282.26,150.107 282.926,148.607 283.5,147C 284.054,139.998 283.387,132.998 281.5,126C 281.833,125.667 282.167,125.333 282.5,125C 280.006,123.088 280.173,121.254 283,119.5C 283.805,116.304 283.638,113.304 282.5,110.5C 280.28,106.485 279.113,102.151 279,97.5C 277.209,93.5613 274.709,90.228 271.5,87.5C 266.814,81.4855 261.814,75.8188 256.5,70.5 Z"/></g>
<g><path style="opacity:1" fill="#ebca98" d="M 242.5,66.5 C 244.5,66.5 246.5,66.5 248.5,66.5C 250.612,68.7705 253.279,70.1039 256.5,70.5C 261.814,75.8188 266.814,81.4855 271.5,87.5C 275.892,96.0086 278.892,105.009 280.5,114.5C 274.128,114.125 267.795,113.459 261.5,112.5C 261.5,111.833 261.5,111.167 261.5,110.5C 262.833,109.833 263.833,108.833 264.5,107.5C 266.218,105.074 266.718,102.407 266,99.5C 264.347,94.8611 262.181,90.5278 259.5,86.5C 259.131,84.5588 258.464,82.7255 257.5,81C 253.439,77.9489 249.106,75.2823 244.5,73C 234.522,71.7789 224.522,71.4455 214.5,72C 210.837,72.5717 207.503,73.7383 204.5,75.5C 200.142,75.9189 196.142,77.2523 192.5,79.5C 192.944,77.8868 193.944,76.7202 195.5,76C 202.364,73.4562 209.364,71.4562 216.5,70C 223.5,69.3333 230.5,69.3333 237.5,70C 240.057,71.8298 242.557,71.6631 245,69.5C 246.049,70.5171 247.216,70.6838 248.5,70C 246.121,69.2838 244.121,68.1172 242.5,66.5 Z"/></g>
<g><path style="opacity:1" fill="#dac194" d="M 204.5,75.5 C 199.291,78.1045 193.958,80.7711 188.5,83.5C 181.854,90.1496 175.521,97.1496 169.5,104.5C 167.208,110.66 166.375,116.993 167,123.5C 168.753,126.005 170.253,128.671 171.5,131.5C 172.325,132.386 173.325,132.719 174.5,132.5C 177.287,133.477 180.287,133.81 183.5,133.5C 181.627,136.603 178.961,138.603 175.5,139.5C 176.625,137.871 177.959,136.371 179.5,135C 176.443,134.744 173.443,134.244 170.5,133.5C 168.468,130.632 166.635,127.632 165,124.5C 163.96,103.244 173.127,88.2435 192.5,79.5C 196.142,77.2523 200.142,75.9189 204.5,75.5 Z"/></g>
<g><path style="opacity:1" fill="#a5957b" d="M 204.5,79.5 C 192.229,85.7712 183.895,95.4379 179.5,108.5C 178.518,111.962 178.185,115.629 178.5,119.5C 177.178,119.67 176.011,119.337 175,118.5C 174.683,120.301 174.016,120.634 173,119.5C 172.292,120.381 171.458,121.047 170.5,121.5C 170.335,118.15 170.502,114.817 171,111.5C 177.09,95.5781 188.256,84.9115 204.5,79.5 Z"/></g>
<g><path style="opacity:1" fill="#f9e9b7" d="M 195.5,70.5 C 196.167,70.5 196.833,70.5 197.5,70.5C 190.6,75.2992 183.6,80.1326 176.5,85C 160.666,99.6655 155,117.499 159.5,138.5C 153.032,106.104 165.032,83.4369 195.5,70.5 Z"/></g>
<g><path style="opacity:1" fill="#b8aa91" d="M 277.5,79.5 C 282.556,84.5869 286.39,90.5869 289,97.5C 291.8,105.965 293.633,114.631 294.5,123.5C 293.833,123.5 293.5,123.833 293.5,124.5C 291.615,117.314 289.782,109.981 288,102.5C 287.333,101.167 286.667,101.167 286,102.5C 284.213,95.9104 281.213,89.5771 277,83.5C 272.278,79.9419 268.111,75.9419 264.5,71.5C 265.313,70.3473 266.313,70.3473 267.5,71.5C 270.583,74.5939 273.916,77.2606 277.5,79.5 Z"/></g>
<g><path style="opacity:1" fill="#decaa6" d="M 244.5,112.5 C 243.391,113.29 242.058,113.79 240.5,114C 241.833,114.333 243.167,114.667 244.5,115C 241.691,116.093 239.024,117.26 236.5,118.5C 234.609,119.536 232.776,119.536 231,118.5C 228.339,122.449 225.172,123.116 221.5,120.5C 213.975,123.074 206.308,125.24 198.5,127C 194.133,130.623 189.133,132.789 183.5,133.5C 184.527,131.806 185.861,130.473 187.5,129.5C 187.5,128.833 187.833,128.5 188.5,128.5C 188.56,129.043 188.893,129.376 189.5,129.5C 206.68,119.957 225.013,114.291 244.5,112.5 Z"/></g>
<g><path style="opacity:1" fill="#cfc3ab" d="M 264.5,107.5 C 263.833,108.833 262.833,109.833 261.5,110.5C 255.857,110.156 250.19,110.822 244.5,112.5C 225.013,114.291 206.68,119.957 189.5,129.5C 188.893,129.376 188.56,129.043 188.5,128.5C 212,115.002 237.334,108.002 264.5,107.5 Z"/></g>
<g><path style="opacity:1" fill="#d5bc91" d="M 261.5,110.5 C 261.5,111.167 261.5,111.833 261.5,112.5C 260.262,112.81 260.262,113.31 261.5,114C 260.24,115.113 259.073,115.28 258,114.5C 256.244,116.059 256.244,117.726 258,119.5C 258.451,117.071 259.285,116.904 260.5,119C 260.167,119.333 259.833,119.667 259.5,120C 260.068,121.652 261.401,123.318 263.5,125C 260.737,126.821 258.237,128.988 256,131.5C 255.833,132.333 255.667,133.167 255.5,134C 256.464,137.867 257.797,141.534 259.5,145C 259.481,148.915 259.314,153.081 259,157.5C 254.468,160.122 249.635,161.955 244.5,163C 243.429,163.852 242.429,164.685 241.5,165.5C 238.098,166.635 234.765,167.968 231.5,169.5C 220.605,172.307 209.605,174.64 198.5,176.5C 199.671,175.655 201.005,174.989 202.5,174.5C 205.865,173.96 209.198,173.294 212.5,172.5C 216.624,171.471 220.624,170.137 224.5,168.5C 230.761,167.633 236.761,165.966 242.5,163.5C 242.822,161.278 242.155,159.444 240.5,158C 241.358,156.43 242.025,154.763 242.5,153C 241.837,151.323 241.837,149.49 242.5,147.5C 242.291,146.006 241.624,144.839 240.5,144C 243.167,143.333 243.167,142.667 240.5,142C 240.404,140.627 240.57,139.127 241,137.5C 240.346,138.696 239.846,138.696 239.5,137.5C 244.414,134.384 248.414,130.384 251.5,125.5C 249.868,125.762 248.701,124.762 248,122.5C 247.667,122.833 247.333,123.167 247,123.5C 246.626,122.584 246.126,121.75 245.5,121C 242.278,120.801 239.278,119.968 236.5,118.5C 239.024,117.26 241.691,116.093 244.5,115C 243.167,114.667 241.833,114.333 240.5,114C 242.058,113.79 243.391,113.29 244.5,112.5C 250.19,110.822 255.857,110.156 261.5,110.5 Z"/></g>
<g><path style="opacity:1" fill="#baa988" d="M 179.5,108.5 C 179.267,113.895 179.6,119.228 180.5,124.5C 180.631,125.376 180.298,126.043 179.5,126.5C 176.913,127.054 174.58,128.054 172.5,129.5C 170.949,127.087 170.283,124.421 170.5,121.5C 171.458,121.047 172.292,120.381 173,119.5C 174.016,120.634 174.683,120.301 175,118.5C 176.011,119.337 177.178,119.67 178.5,119.5C 178.185,115.629 178.518,111.962 179.5,108.5 Z"/></g>
<g><path style="opacity:1" fill="#cab288" d="M 271.5,87.5 C 274.709,90.228 277.209,93.5613 279,97.5C 279.113,102.151 280.28,106.485 282.5,110.5C 284.359,119.315 281.359,121.649 273.5,117.5C 273.167,117.667 272.833,117.833 272.5,118C 274.616,119.171 275.282,120.671 274.5,122.5C 271.145,123.516 267.812,124.516 264.5,125.5C 264.966,127.201 264.966,128.701 264.5,130C 266.941,133.983 268.608,138.316 269.5,143C 268.857,147.115 268.524,151.282 268.5,155.5C 266.821,155.285 265.821,155.952 265.5,157.5C 257.732,160.778 249.732,163.444 241.5,165.5C 242.429,164.685 243.429,163.852 244.5,163C 249.635,161.955 254.468,160.122 259,157.5C 259.314,153.081 259.481,148.915 259.5,145C 257.797,141.534 256.464,137.867 255.5,134C 255.667,133.167 255.833,132.333 256,131.5C 258.237,128.988 260.737,126.821 263.5,125C 261.401,123.318 260.068,121.652 259.5,120C 259.833,119.667 260.167,119.333 260.5,119C 259.285,116.904 258.451,117.071 258,119.5C 256.244,117.726 256.244,116.059 258,114.5C 259.073,115.28 260.24,115.113 261.5,114C 260.262,113.31 260.262,112.81 261.5,112.5C 267.795,113.459 274.128,114.125 280.5,114.5C 278.892,105.009 275.892,96.0086 271.5,87.5 Z"/></g>
<g><path style="opacity:1" fill="#c2ac84" d="M 282.5,110.5 C 283.638,113.304 283.805,116.304 283,119.5C 280.173,121.254 280.006,123.088 282.5,125C 282.167,125.333 281.833,125.667 281.5,126C 283.387,132.998 284.054,139.998 283.5,147C 282.926,148.607 282.26,150.107 281.5,151.5C 280.833,152.167 280.167,152.833 279.5,153.5C 274.833,154.833 270.167,156.167 265.5,157.5C 265.821,155.952 266.821,155.285 268.5,155.5C 268.524,151.282 268.857,147.115 269.5,143C 268.608,138.316 266.941,133.983 264.5,130C 264.966,128.701 264.966,127.201 264.5,125.5C 267.812,124.516 271.145,123.516 274.5,122.5C 275.282,120.671 274.616,119.171 272.5,118C 272.833,117.833 273.167,117.667 273.5,117.5C 281.359,121.649 284.359,119.315 282.5,110.5 Z"/></g>
<g><path style="opacity:1" fill="#c4b59c" d="M 180.5,124.5 C 181.998,127.331 184.331,128.998 187.5,129.5C 185.861,130.473 184.527,131.806 183.5,133.5C 180.287,133.81 177.287,133.477 174.5,132.5C 173.833,131.5 173.167,130.5 172.5,129.5C 174.58,128.054 176.913,127.054 179.5,126.5C 180.298,126.043 180.631,125.376 180.5,124.5 Z"/></g>
<g><path style="opacity:1" fill="#ead1a3" d="M 221.5,120.5 C 220.319,122.067 218.653,122.901 216.5,123C 217.253,124.487 218.086,124.654 219,123.5C 219.483,124.448 219.649,125.448 219.5,126.5C 223.433,126.223 227.267,125.556 231,124.5C 234.7,127.459 236.866,130.959 237.5,135C 236.692,135.308 236.025,135.808 235.5,136.5C 231.468,137.794 227.635,139.461 224,141.5C 223.296,143.278 222.796,145.112 222.5,147C 223.758,151.771 224.758,156.437 225.5,161C 224.833,161.333 224.167,161.667 223.5,162C 223.968,163.822 224.301,165.989 224.5,168.5C 220.624,170.137 216.624,171.471 212.5,172.5C 213.292,170.743 214.625,169.409 216.5,168.5C 215.994,164.013 215.328,159.346 214.5,154.5C 214.532,152.241 214.866,150.075 215.5,148C 213.579,146.969 213.579,145.469 215.5,143.5C 220.483,143.034 223.816,140.534 225.5,136C 224.49,131.663 221.99,130.497 218,132.5C 217.626,131.584 217.126,130.75 216.5,130C 208.645,130.173 201.145,132.006 194,135.5C 193.667,135.167 193.333,134.833 193,134.5C 187.266,137.191 181.432,139.691 175.5,142C 174.748,142.671 174.414,143.504 174.5,144.5C 173.402,145.397 173.402,146.23 174.5,147C 172.627,148.704 170.96,150.537 169.5,152.5C 168.522,152.811 167.855,153.478 167.5,154.5C 172.17,161.843 176.837,169.176 181.5,176.5C 187.164,177.629 192.831,177.629 198.5,176.5C 195.493,178.175 192.16,178.841 188.5,178.5C 185.102,178.82 181.768,178.487 178.5,177.5C 173.538,169.234 168.871,160.901 164.5,152.5C 166.731,147.934 169.731,143.934 173.5,140.5C 174.167,140.167 174.833,139.833 175.5,139.5C 178.961,138.603 181.627,136.603 183.5,133.5C 189.133,132.789 194.133,130.623 198.5,127C 206.308,125.24 213.975,123.074 221.5,120.5 Z"/></g>
<g><path style="opacity:1" fill="#e0c699" d="M 236.5,118.5 C 239.278,119.968 242.278,120.801 245.5,121C 246.126,121.75 246.626,122.584 247,123.5C 247.333,123.167 247.667,122.833 248,122.5C 248.701,124.762 249.868,125.762 251.5,125.5C 248.414,130.384 244.414,134.384 239.5,137.5C 239.846,138.696 240.346,138.696 241,137.5C 240.57,139.127 240.404,140.627 240.5,142C 243.167,142.667 243.167,143.333 240.5,144C 241.624,144.839 242.291,146.006 242.5,147.5C 241.837,149.49 241.837,151.323 242.5,153C 242.025,154.763 241.358,156.43 240.5,158C 242.155,159.444 242.822,161.278 242.5,163.5C 236.761,165.966 230.761,167.633 224.5,168.5C 224.301,165.989 223.968,163.822 223.5,162C 224.167,161.667 224.833,161.333 225.5,161C 224.758,156.437 223.758,151.771 222.5,147C 222.796,145.112 223.296,143.278 224,141.5C 227.635,139.461 231.468,137.794 235.5,136.5C 236.025,135.808 236.692,135.308 237.5,135C 236.866,130.959 234.7,127.459 231,124.5C 227.267,125.556 223.433,126.223 219.5,126.5C 219.649,125.448 219.483,124.448 219,123.5C 218.086,124.654 217.253,124.487 216.5,123C 218.653,122.901 220.319,122.067 221.5,120.5C 225.172,123.116 228.339,122.449 231,118.5C 232.776,119.536 234.609,119.536 236.5,118.5 Z"/></g>
<g><path style="opacity:1" fill="#fdf0be" d="M 173.5,140.5 C 169.731,143.934 166.731,147.934 164.5,152.5C 164.5,152.833 164.5,153.167 164.5,153.5C 162.462,149.06 160.796,144.393 159.5,139.5C 161.247,140.981 162.414,142.981 163,145.5C 165.406,142.753 168.073,140.42 171,138.5C 172.376,138.684 173.209,139.351 173.5,140.5 Z"/></g>
<g><path style="opacity:1" fill="#fee9b7" d="M 209.5,144.5 C 196.999,148.055 184.499,151.722 172,155.5C 170.251,155.252 169.418,154.252 169.5,152.5C 170.96,150.537 172.627,148.704 174.5,147C 173.402,146.23 173.402,145.397 174.5,144.5C 183.553,140.481 192.72,137.481 202,135.5C 204.9,135.9 207.733,136.566 210.5,137.5C 211.779,139.146 213.445,140.313 215.5,141C 214.084,143.265 212.084,144.431 209.5,144.5 Z"/></g>
<g><path style="opacity:1" fill="#a6997f" d="M 294.5,123.5 C 295.655,130.321 295.821,137.321 295,144.5C 293.961,145.244 293.461,146.244 293.5,147.5C 291.118,148.351 289.118,149.684 287.5,151.5C 284.833,152.167 282.167,152.833 279.5,153.5C 280.167,152.833 280.833,152.167 281.5,151.5C 283.449,150.816 285.115,149.649 286.5,148C 288.433,147.749 290.266,147.249 292,146.5C 293.391,139.254 293.891,131.921 293.5,124.5C 293.5,123.833 293.833,123.5 294.5,123.5 Z"/></g>
<g><path style="opacity:1" fill="#f3d8a7" d="M 212.5,172.5 C 209.198,173.294 205.865,173.96 202.5,174.5C 203.172,173.733 204.005,173.066 205,172.5C 205.024,167.848 203.691,163.181 201,158.5C 200.333,156.833 200.333,155.167 201,153.5C 201.889,154.888 202.389,154.722 202.5,153C 201.871,150.827 202.538,148.827 204.5,147C 206.315,146.243 207.981,145.41 209.5,144.5C 212.084,144.431 214.084,143.265 215.5,141C 213.445,140.313 211.779,139.146 210.5,137.5C 207.733,136.566 204.9,135.9 202,135.5C 192.72,137.481 183.553,140.481 174.5,144.5C 174.414,143.504 174.748,142.671 175.5,142C 181.432,139.691 187.266,137.191 193,134.5C 193.333,134.833 193.667,135.167 194,135.5C 201.145,132.006 208.645,130.173 216.5,130C 217.126,130.75 217.626,131.584 218,132.5C 221.99,130.497 224.49,131.663 225.5,136C 223.816,140.534 220.483,143.034 215.5,143.5C 213.579,145.469 213.579,146.969 215.5,148C 214.866,150.075 214.532,152.241 214.5,154.5C 215.328,159.346 215.994,164.013 216.5,168.5C 214.625,169.409 213.292,170.743 212.5,172.5 Z"/></g>
<g><path style="opacity:1" fill="#f9dfae" d="M 209.5,144.5 C 207.981,145.41 206.315,146.243 204.5,147C 202.538,148.827 201.871,150.827 202.5,153C 202.389,154.722 201.889,154.888 201,153.5C 200.333,155.167 200.333,156.833 201,158.5C 203.691,163.181 205.024,167.848 205,172.5C 204.005,173.066 203.172,173.733 202.5,174.5C 201.005,174.989 199.671,175.655 198.5,176.5C 192.831,177.629 187.164,177.629 181.5,176.5C 176.837,169.176 172.17,161.843 167.5,154.5C 167.855,153.478 168.522,152.811 169.5,152.5C 169.418,154.252 170.251,155.252 172,155.5C 184.499,151.722 196.999,148.055 209.5,144.5 Z"/></g>
<g><path style="opacity:1" fill="#b6a689" d="M 293.5,147.5 C 303.05,158.749 309.383,171.749 312.5,186.5C 311.662,186.842 311.328,187.508 311.5,188.5C 310.738,190.262 309.404,191.262 307.5,191.5C 307.923,190.735 308.257,189.902 308.5,189C 306.336,182.872 304.169,176.705 302,170.5C 296.516,164.052 291.683,157.719 287.5,151.5C 289.118,149.684 291.118,148.351 293.5,147.5 Z"/></g>
<g><path style="opacity:1" fill="#baa480" d="M 287.5,151.5 C 291.683,157.719 296.516,164.052 302,170.5C 304.169,176.705 306.336,182.872 308.5,189C 308.257,189.902 307.923,190.735 307.5,191.5C 305.034,192.298 303.034,193.631 301.5,195.5C 298.514,195.903 295.848,196.903 293.5,198.5C 292.391,198.557 291.391,198.89 290.5,199.5C 290.904,198.244 291.571,197.077 292.5,196C 291.389,192.699 290.056,189.532 288.5,186.5C 288.709,185.914 289.043,185.414 289.5,185C 287.873,182.246 286.373,179.412 285,176.5C 283.013,175.782 281.179,174.782 279.5,173.5C 277.497,169.891 275.497,166.224 273.5,162.5C 272.675,161.614 271.675,161.281 270.5,161.5C 270.527,159.801 271.194,158.467 272.5,157.5C 274.833,156.167 277.167,154.833 279.5,153.5C 282.167,152.833 284.833,152.167 287.5,151.5 Z"/></g>
<g><path style="opacity:1" fill="#968566" d="M 279.5,153.5 C 277.167,154.833 274.833,156.167 272.5,157.5C 270.447,157.402 268.78,158.069 267.5,159.5C 260.222,161.259 253.222,163.593 246.5,166.5C 241.462,167.343 236.462,168.343 231.5,169.5C 234.765,167.968 238.098,166.635 241.5,165.5C 249.732,163.444 257.732,160.778 265.5,157.5C 270.167,156.167 274.833,154.833 279.5,153.5 Z"/></g>
<g><path style="opacity:1" fill="#d0b88d" d="M 267.5,159.5 C 266.4,160.558 265.066,161.392 263.5,162C 265.769,164.023 268.436,164.856 271.5,164.5C 271.798,167.265 272.798,169.765 274.5,172C 273.892,174.184 274.559,176.184 276.5,178C 275.542,179.147 275.875,180.147 277.5,181C 277.167,181.333 276.833,181.667 276.5,182C 279.243,187.741 282.243,193.741 285.5,200C 284.944,201.011 284.278,201.844 283.5,202.5C 276.448,204.68 269.448,207.013 262.5,209.5C 263.122,207.665 264.456,206.498 266.5,206C 264.153,200.094 261.486,193.927 258.5,187.5C 259.823,184.724 259.656,181.724 258,178.5C 256.353,174.945 254.186,171.779 251.5,169C 249.167,168.667 246.833,168.333 244.5,168C 245.416,167.722 246.082,167.222 246.5,166.5C 253.222,163.593 260.222,161.259 267.5,159.5 Z"/></g>
<g><path style="opacity:1" fill="#c4ad85" d="M 272.5,157.5 C 271.194,158.467 270.527,159.801 270.5,161.5C 271.675,161.281 272.675,161.614 273.5,162.5C 275.497,166.224 277.497,169.891 279.5,173.5C 281.179,174.782 283.013,175.782 285,176.5C 286.373,179.412 287.873,182.246 289.5,185C 289.043,185.414 288.709,185.914 288.5,186.5C 290.056,189.532 291.389,192.699 292.5,196C 291.571,197.077 290.904,198.244 290.5,199.5C 288.847,199.66 287.514,200.326 286.5,201.5C 286.5,201.833 286.5,202.167 286.5,202.5C 285.5,202.5 284.5,202.5 283.5,202.5C 284.278,201.844 284.944,201.011 285.5,200C 282.243,193.741 279.243,187.741 276.5,182C 276.833,181.667 277.167,181.333 277.5,181C 275.875,180.147 275.542,179.147 276.5,178C 274.559,176.184 273.892,174.184 274.5,172C 272.798,169.765 271.798,167.265 271.5,164.5C 268.436,164.856 265.769,164.023 263.5,162C 265.066,161.392 266.4,160.558 267.5,159.5C 268.78,158.069 270.447,157.402 272.5,157.5 Z"/></g>
<g><path style="opacity:1" fill="#fce0ae" d="M 221.5,173.5 C 221.082,174.222 220.416,174.722 219.5,175C 222.615,175.724 225.282,177.224 227.5,179.5C 229.135,182.364 230.135,185.53 230.5,189C 228.161,191.339 225.828,193.672 223.5,196C 225.521,198.043 225.854,200.043 224.5,202C 226.531,205.232 228.198,208.732 229.5,212.5C 228.332,213.906 228.665,215.072 230.5,216C 229.619,216.708 228.953,217.542 228.5,218.5C 226.833,219.167 225.167,219.833 223.5,220.5C 220.794,220.575 218.127,220.908 215.5,221.5C 215.286,219.856 215.62,218.356 216.5,217C 215.299,216.097 214.465,214.931 214,213.5C 213.035,208.464 211.535,203.63 209.5,199C 211.993,196.92 214.659,195.086 217.5,193.5C 218.641,191.579 218.808,189.579 218,187.5C 216.456,184.829 215.29,181.996 214.5,179C 211.305,178.819 208.305,178.319 205.5,177.5C 210.712,175.79 216.045,174.456 221.5,173.5 Z"/></g>
<g><path style="opacity:1" fill="#ab9876" d="M 231.5,169.5 C 230.5,170.167 229.5,170.833 228.5,171.5C 225.933,171.721 223.599,172.388 221.5,173.5C 216.045,174.456 210.712,175.79 205.5,177.5C 204.209,177.263 203.209,177.596 202.5,178.5C 197.5,179.167 192.5,179.833 187.5,180.5C 186.833,180.5 186.167,180.5 185.5,180.5C 184.127,180.657 182.793,180.49 181.5,180C 184.036,179.814 186.369,179.314 188.5,178.5C 192.16,178.841 195.493,178.175 198.5,176.5C 209.605,174.64 220.605,172.307 231.5,169.5 Z"/></g>
<g><path style="opacity:1" fill="#fde9b7" d="M 205.5,177.5 C 208.305,178.319 211.305,178.819 214.5,179C 215.29,181.996 216.456,184.829 218,187.5C 218.808,189.579 218.641,191.579 217.5,193.5C 214.659,195.086 211.993,196.92 209.5,199C 211.535,203.63 213.035,208.464 214,213.5C 214.465,214.931 215.299,216.097 216.5,217C 215.62,218.356 215.286,219.856 215.5,221.5C 214.833,221.5 214.5,221.833 214.5,222.5C 214.167,222.5 213.833,222.5 213.5,222.5C 209.613,222.646 205.946,223.313 202.5,224.5C 202.167,224.5 201.833,224.5 201.5,224.5C 196.833,224.5 192.167,224.5 187.5,224.5C 186.431,216.754 184.931,209.087 183,201.5C 182.5,194.842 182.334,188.175 182.5,181.5C 183.791,181.737 184.791,181.404 185.5,180.5C 186.167,180.5 186.833,180.5 187.5,180.5C 187.918,181.222 188.584,181.722 189.5,182C 187.996,183.337 186.996,185.004 186.5,187C 186.583,190.362 186.75,193.862 187,197.5C 188.161,199.665 189.994,200.665 192.5,200.5C 199.595,200.114 205.928,197.781 211.5,193.5C 211.754,191.087 211.754,188.754 211.5,186.5C 209.528,184.585 208.528,182.251 208.5,179.5C 206.265,179.795 204.265,179.461 202.5,178.5C 203.209,177.596 204.209,177.263 205.5,177.5 Z"/></g>
<g><path style="opacity:1" fill="#fef2bf" d="M 202.5,178.5 C 204.265,179.461 206.265,179.795 208.5,179.5C 208.528,182.251 209.528,184.585 211.5,186.5C 211.754,188.754 211.754,191.087 211.5,193.5C 205.928,197.781 199.595,200.114 192.5,200.5C 189.994,200.665 188.161,199.665 187,197.5C 186.75,193.862 186.583,190.362 186.5,187C 186.996,185.004 187.996,183.337 189.5,182C 188.584,181.722 187.918,181.222 187.5,180.5C 192.5,179.833 197.5,179.167 202.5,178.5 Z"/></g>
<g><path style="opacity:1" fill="#e3c99c" d="M 246.5,166.5 C 246.082,167.222 245.416,167.722 244.5,168C 246.833,168.333 249.167,168.667 251.5,169C 254.186,171.779 256.353,174.945 258,178.5C 259.656,181.724 259.823,184.724 258.5,187.5C 261.486,193.927 264.153,200.094 266.5,206C 264.456,206.498 263.122,207.665 262.5,209.5C 260.597,209.796 258.93,210.463 257.5,211.5C 256.167,212.167 254.833,212.833 253.5,213.5C 251.5,213.833 249.5,214.167 247.5,214.5C 245.194,214.993 242.861,215.326 240.5,215.5C 242.279,213.656 244.612,212.99 247.5,213.5C 247.351,212.448 247.517,211.448 248,210.5C 248.654,211.696 249.154,211.696 249.5,210.5C 248.685,208.724 247.518,208.057 246,208.5C 245.24,204.917 243.74,201.251 241.5,197.5C 242.002,196.284 242.335,195.117 242.5,194C 241.5,193 240.5,192 239.5,191C 242.014,188.943 243.347,186.61 243.5,184C 242.552,183.517 241.552,183.351 240.5,183.5C 240.244,181.063 239.577,178.729 238.5,176.5C 234.966,174.841 231.633,173.174 228.5,171.5C 229.5,170.833 230.5,170.167 231.5,169.5C 236.462,168.343 241.462,167.343 246.5,166.5 Z"/></g>
<g><path style="opacity:1" fill="#b8b2ac" d="M 311.5,188.5 C 312.043,188.56 312.376,188.893 312.5,189.5C 310.164,192.989 310.497,195.822 313.5,198C 311.109,199.309 311.109,200.309 313.5,201C 313.167,201.333 312.833,201.667 312.5,202C 313.938,205.953 315.272,209.953 316.5,214C 315.167,215.84 315.334,216.34 317,215.5C 317.236,217.764 317.736,219.931 318.5,222C 318.167,222.333 317.833,222.667 317.5,223C 318.308,223.308 318.975,223.808 319.5,224.5C 319.782,227.256 319.782,230.089 319.5,233C 320.328,233.915 321.328,234.581 322.5,235C 322.043,235.414 321.709,235.914 321.5,236.5C 322.76,239.717 324.093,242.884 325.5,246C 324.941,246.725 324.608,247.558 324.5,248.5C 327.272,260.595 330.439,272.261 334,283.5C 334.333,283.167 334.667,282.833 335,282.5C 336.016,288.214 337.849,293.714 340.5,299C 339.626,301.035 339.293,303.368 339.5,306C 340.025,306.692 340.692,307.192 341.5,307.5C 342.161,310.992 343.494,314.158 345.5,317C 344.549,317.718 344.383,318.551 345,319.5C 346.666,318.66 346.833,319.16 345.5,321C 348.001,322.418 347.668,323.418 344.5,324C 345.328,324.915 346.328,325.581 347.5,326C 346.397,327.68 346.73,329.18 348.5,330.5C 347.975,331.192 347.308,331.692 346.5,332C 349.147,332.315 349.813,333.482 348.5,335.5C 350.991,336.541 350.991,337.374 348.5,338C 349.204,339.571 350.537,341.238 352.5,343C 350.314,343.604 350.148,344.77 352,346.5C 353.011,345.663 354.178,345.33 355.5,345.5C 356.592,351.037 357.926,356.537 359.5,362C 357.443,365.358 357.776,368.691 360.5,372C 359.5,374.091 360.167,375.757 362.5,377C 361.833,377.333 361.167,377.667 360.5,378C 363.238,380.026 363.904,382.526 362.5,385.5C 363.833,387.833 365.167,390.167 366.5,392.5C 366.167,393.167 365.833,393.833 365.5,394.5C 366.772,398.045 368.106,401.545 369.5,405C 368.939,406.566 369.606,407.899 371.5,409C 369.417,410.32 369.751,411.654 372.5,413C 371.273,414.587 371.606,415.921 373.5,417C 373.056,418.533 372.723,420.033 372.5,421.5C 373.908,424.299 375.241,427.132 376.5,430C 375.6,434.133 374.933,438.3 374.5,442.5C 373.925,444.411 372.925,446.078 371.5,447.5C 370.725,444.437 370.725,441.437 371.5,438.5C 370.96,437.252 370.293,436.085 369.5,435C 370.019,432.974 370.353,430.974 370.5,429C 368.63,425.879 366.963,422.212 365.5,418C 366.5,415.909 365.833,414.243 363.5,413C 364.378,410.41 364.378,408.077 363.5,406C 360.778,396.779 357.444,387.779 353.5,379C 353.255,377.089 353.255,375.089 353.5,373C 352.156,369.51 350.489,365.843 348.5,362C 349.553,358.982 348.553,356.648 345.5,355C 346.923,351.047 346.257,347.38 343.5,344C 343.833,343.667 344.167,343.333 344.5,343C 341.553,337.557 340.22,331.89 340.5,326C 337.176,320.859 335.676,315.359 336,309.5C 334.041,307.474 333.207,305.308 333.5,303C 331.934,300.07 331.1,296.903 331,293.5C 327.808,289.091 326.308,284.758 326.5,280.5C 325.018,276.249 323.352,272.082 321.5,268C 321.957,267.586 322.291,267.086 322.5,266.5C 320.448,263.512 319.281,260.179 319,256.5C 318.25,255.874 317.416,255.374 316.5,255C 316.833,254.667 317.167,254.333 317.5,254C 316.903,249.721 315.57,245.721 313.5,242C 314.458,240.853 314.125,239.853 312.5,239C 313.815,237.605 313.481,236.605 311.5,236C 312.285,233.557 312.119,231.057 311,228.5C 309.466,222.223 306.966,216.389 303.5,211C 303.833,210.667 304.167,210.333 304.5,210C 303.313,207.226 301.98,204.559 300.5,202C 301.634,200.984 301.301,200.317 299.5,200C 300.328,199.085 301.328,198.419 302.5,198C 302.116,197.049 301.783,196.216 301.5,195.5C 303.034,193.631 305.034,192.298 307.5,191.5C 309.404,191.262 310.738,190.262 311.5,188.5 Z"/></g>
<g><path style="opacity:1" fill="#beb8b1" d="M 301.5,195.5 C 301.783,196.216 302.116,197.049 302.5,198C 301.328,198.419 300.328,199.085 299.5,200C 301.301,200.317 301.634,200.984 300.5,202C 301.98,204.559 303.313,207.226 304.5,210C 304.167,210.333 303.833,210.667 303.5,211C 306.966,216.389 309.466,222.223 311,228.5C 312.119,231.057 312.285,233.557 311.5,236C 313.481,236.605 313.815,237.605 312.5,239C 314.125,239.853 314.458,240.853 313.5,242C 315.57,245.721 316.903,249.721 317.5,254C 317.167,254.333 316.833,254.667 316.5,255C 317.416,255.374 318.25,255.874 319,256.5C 319.281,260.179 320.448,263.512 322.5,266.5C 322.291,267.086 321.957,267.586 321.5,268C 323.352,272.082 325.018,276.249 326.5,280.5C 326.308,284.758 327.808,289.091 331,293.5C 331.1,296.903 331.934,300.07 333.5,303C 333.207,305.308 334.041,307.474 336,309.5C 335.676,315.359 337.176,320.859 340.5,326C 340.22,331.89 341.553,337.557 344.5,343C 344.167,343.333 343.833,343.667 343.5,344C 346.257,347.38 346.923,351.047 345.5,355C 348.553,356.648 349.553,358.982 348.5,362C 350.489,365.843 352.156,369.51 353.5,373C 353.255,375.089 353.255,377.089 353.5,379C 357.444,387.779 360.778,396.779 363.5,406C 364.378,408.077 364.378,410.41 363.5,413C 365.833,414.243 366.5,415.909 365.5,418C 366.963,422.212 368.63,425.879 370.5,429C 370.353,430.974 370.019,432.974 369.5,435C 370.293,436.085 370.96,437.252 371.5,438.5C 370.725,441.437 370.725,444.437 371.5,447.5C 370.833,448.833 369.833,449.833 368.5,450.5C 368.489,448.983 367.823,447.816 366.5,447C 367.167,446.333 367.833,445.667 368.5,445C 366.374,442.16 364.707,438.994 363.5,435.5C 363.709,434.914 364.043,434.414 364.5,434C 364.198,432.345 362.864,431.012 360.5,430C 361.087,423.386 359.754,417.053 356.5,411C 351.647,392.112 345.814,373.612 339,355.5C 336.734,347.73 334.9,339.897 333.5,332C 333.833,331.667 334.167,331.333 334.5,331C 328.926,319.264 324.926,307.264 322.5,295C 319.353,287.464 316.686,280.13 314.5,273C 315.022,270.519 315.022,268.186 314.5,266C 312.5,261.333 310.5,256.667 308.5,252C 308.833,251.667 309.167,251.333 309.5,251C 308.534,247.765 307.201,244.765 305.5,242C 306.271,240.002 305.605,238.335 303.5,237C 304.925,235.286 304.592,233.953 302.5,233C 302.848,230.492 302.181,227.992 300.5,225.5C 300.709,224.914 301.043,224.414 301.5,224C 297.962,216.719 295.629,209.052 294.5,201C 297.332,199.092 296.999,198.259 293.5,198.5C 295.848,196.903 298.514,195.903 301.5,195.5 Z"/></g>
<g><path style="opacity:1" fill="#f3d7a7" d="M 228.5,171.5 C 231.633,173.174 234.966,174.841 238.5,176.5C 239.577,178.729 240.244,181.063 240.5,183.5C 241.552,183.351 242.552,183.517 243.5,184C 243.347,186.61 242.014,188.943 239.5,191C 240.5,192 241.5,193 242.5,194C 242.335,195.117 242.002,196.284 241.5,197.5C 243.74,201.251 245.24,204.917 246,208.5C 247.518,208.057 248.685,208.724 249.5,210.5C 249.154,211.696 248.654,211.696 248,210.5C 247.517,211.448 247.351,212.448 247.5,213.5C 244.612,212.99 242.279,213.656 240.5,215.5C 240.5,215.833 240.5,216.167 240.5,216.5C 236.443,216.848 232.443,217.514 228.5,218.5C 228.953,217.542 229.619,216.708 230.5,216C 228.665,215.072 228.332,213.906 229.5,212.5C 228.198,208.732 226.531,205.232 224.5,202C 225.854,200.043 225.521,198.043 223.5,196C 225.828,193.672 228.161,191.339 230.5,189C 230.135,185.53 229.135,182.364 227.5,179.5C 225.282,177.224 222.615,175.724 219.5,175C 220.416,174.722 221.082,174.222 221.5,173.5C 223.599,172.388 225.933,171.721 228.5,171.5 Z"/></g>
<g><path style="opacity:1" fill="#c4beb7" d="M 293.5,198.5 C 296.999,198.259 297.332,199.092 294.5,201C 295.629,209.052 297.962,216.719 301.5,224C 301.043,224.414 300.709,224.914 300.5,225.5C 302.181,227.992 302.848,230.492 302.5,233C 304.592,233.953 304.925,235.286 303.5,237C 305.605,238.335 306.271,240.002 305.5,242C 307.201,244.765 308.534,247.765 309.5,251C 309.167,251.333 308.833,251.667 308.5,252C 310.5,256.667 312.5,261.333 314.5,266C 315.022,268.186 315.022,270.519 314.5,273C 316.686,280.13 319.353,287.464 322.5,295C 324.926,307.264 328.926,319.264 334.5,331C 334.167,331.333 333.833,331.667 333.5,332C 334.9,339.897 336.734,347.73 339,355.5C 345.814,373.612 351.647,392.112 356.5,411C 359.754,417.053 361.087,423.386 360.5,430C 362.864,431.012 364.198,432.345 364.5,434C 364.043,434.414 363.709,434.914 363.5,435.5C 364.707,438.994 366.374,442.16 368.5,445C 367.833,445.667 367.167,446.333 366.5,447C 367.823,447.816 368.489,448.983 368.5,450.5C 366.122,452.878 363.455,454.878 360.5,456.5C 359.957,456.44 359.624,456.107 359.5,455.5C 362.739,451.968 362.073,449.635 357.5,448.5C 356.716,437.578 353.716,426.745 348.5,416C 348.833,415.667 349.167,415.333 349.5,415C 345.066,405.219 341.566,394.719 339,383.5C 337.961,381.254 336.794,379.087 335.5,377C 336.167,376.667 336.833,376.333 337.5,376C 336.128,373.275 335.128,370.609 334.5,368C 335.634,366.984 335.301,366.317 333.5,366C 333.239,364.073 333.239,362.073 333.5,360C 332.453,358.37 331.453,356.704 330.5,355C 330.237,351.01 330.237,347.344 330.5,344C 326.634,331.616 321.968,319.616 316.5,308C 316.833,307.667 317.167,307.333 317.5,307C 316.25,301.29 314.25,295.956 311.5,291C 312.412,288.094 311.746,285.427 309.5,283C 310.089,281.127 309.422,279.46 307.5,278C 307.5,276 307.5,274 307.5,272C 305.52,267.417 303.52,262.75 301.5,258C 298.184,243.091 293.184,227.091 286.5,210C 287.297,207.251 287.297,204.751 286.5,202.5C 286.5,202.167 286.5,201.833 286.5,201.5C 289.346,201.448 291.68,200.448 293.5,198.5 Z"/></g>
<g><path style="opacity:1" fill="#978e82" d="M 293.5,198.5 C 291.68,200.448 289.346,201.448 286.5,201.5C 287.514,200.326 288.847,199.66 290.5,199.5C 291.391,198.89 292.391,198.557 293.5,198.5 Z"/></g>
<g><path style="opacity:1" fill="#dacba6" d="M 164.5,152.5 C 168.871,160.901 173.538,169.234 178.5,177.5C 181.768,178.487 185.102,178.82 188.5,178.5C 186.369,179.314 184.036,179.814 181.5,180C 182.793,180.49 184.127,180.657 185.5,180.5C 184.791,181.404 183.791,181.737 182.5,181.5C 182.334,188.175 182.5,194.842 183,201.5C 184.931,209.087 186.431,216.754 187.5,224.5C 192.167,224.5 196.833,224.5 201.5,224.5C 198.038,225.482 194.371,225.815 190.5,225.5C 189.833,225.5 189.167,225.5 188.5,225.5C 187.833,225.5 187.5,225.833 187.5,226.5C 182.474,211.692 179.974,196.359 180,180.5C 172.8,172.778 167.633,163.778 164.5,153.5C 164.5,153.167 164.5,152.833 164.5,152.5 Z"/></g>
<g><path style="opacity:1" fill="#cac3bc" d="M 283.5,202.5 C 284.5,202.5 285.5,202.5 286.5,202.5C 287.297,204.751 287.297,207.251 286.5,210C 293.184,227.091 298.184,243.091 301.5,258C 303.52,262.75 305.52,267.417 307.5,272C 307.5,274 307.5,276 307.5,278C 309.422,279.46 310.089,281.127 309.5,283C 311.746,285.427 312.412,288.094 311.5,291C 314.25,295.956 316.25,301.29 317.5,307C 317.167,307.333 316.833,307.667 316.5,308C 321.968,319.616 326.634,331.616 330.5,344C 330.237,347.344 330.237,351.01 330.5,355C 331.453,356.704 332.453,358.37 333.5,360C 333.239,362.073 333.239,364.073 333.5,366C 335.301,366.317 335.634,366.984 334.5,368C 335.128,370.609 336.128,373.275 337.5,376C 336.833,376.333 336.167,376.667 335.5,377C 336.794,379.087 337.961,381.254 339,383.5C 341.566,394.719 345.066,405.219 349.5,415C 349.167,415.333 348.833,415.667 348.5,416C 353.716,426.745 356.716,437.578 357.5,448.5C 362.073,449.635 362.739,451.968 359.5,455.5C 359.624,456.107 359.957,456.44 360.5,456.5C 358.882,458.316 356.882,459.649 354.5,460.5C 352.866,459.793 351.532,458.627 350.5,457C 351.167,456.667 351.833,456.333 352.5,456C 351.167,455.333 349.833,454.667 348.5,454C 350.5,453.333 351.833,452 352.5,450C 350.25,449.389 348.583,448.056 347.5,446C 347.833,445.667 348.167,445.333 348.5,445C 342.252,425.796 336.752,405.629 332,384.5C 329.845,379.811 328.179,374.811 327,369.5C 319.345,348.032 312.345,325.699 306,302.5C 296.567,272.589 287.901,242.922 280,213.5C 279.667,214.5 279.333,215.5 279,216.5C 278.483,213.08 277.65,209.747 276.5,206.5C 275.261,206.942 274.261,207.609 273.5,208.5C 270.505,208.294 267.838,208.96 265.5,210.5C 264.209,210.263 263.209,210.596 262.5,211.5C 260.833,211.5 259.167,211.5 257.5,211.5C 258.93,210.463 260.597,209.796 262.5,209.5C 269.448,207.013 276.448,204.68 283.5,202.5 Z"/></g>
<g><path style="opacity:1" fill="#d1cac3" d="M 354.5,460.5 C 349.563,463.596 344.23,465.929 338.5,467.5C 339.622,465.463 339.622,462.963 338.5,460C 339.579,457.845 340.913,455.845 342.5,454C 339.544,448.904 338.211,443.904 338.5,439C 324.746,389.551 309.912,340.051 294,290.5C 290.18,266.98 284.014,244.813 275.5,224C 275.957,223.586 276.291,223.086 276.5,222.5C 275.358,220.622 274.358,218.788 273.5,217C 274.458,215.853 274.125,214.853 272.5,214C 272.69,212.172 273.023,210.338 273.5,208.5C 274.261,207.609 275.261,206.942 276.5,206.5C 277.65,209.747 278.483,213.08 279,216.5C 279.333,215.5 279.667,214.5 280,213.5C 287.901,242.922 296.567,272.589 306,302.5C 312.345,325.699 319.345,348.032 327,369.5C 328.179,374.811 329.845,379.811 332,384.5C 336.752,405.629 342.252,425.796 348.5,445C 348.167,445.333 347.833,445.667 347.5,446C 348.583,448.056 350.25,449.389 352.5,450C 351.833,452 350.5,453.333 348.5,454C 349.833,454.667 351.167,455.333 352.5,456C 351.833,456.333 351.167,456.667 350.5,457C 351.532,458.627 352.866,459.793 354.5,460.5 Z"/></g>
<g><path style="opacity:1" fill="#d7d0c9" d="M 273.5,208.5 C 273.023,210.338 272.69,212.172 272.5,214C 274.125,214.853 274.458,215.853 273.5,217C 274.358,218.788 275.358,220.622 276.5,222.5C 276.291,223.086 275.957,223.586 275.5,224C 284.014,244.813 290.18,266.98 294,290.5C 309.912,340.051 324.746,389.551 338.5,439C 338.211,443.904 339.544,448.904 342.5,454C 340.913,455.845 339.579,457.845 338.5,460C 339.622,462.963 339.622,465.463 338.5,467.5C 334.498,469.61 330.165,470.943 325.5,471.5C 324.631,469.283 324.298,466.95 324.5,464.5C 325.552,464.649 326.552,464.483 327.5,464C 330.498,460.733 333.832,457.899 337.5,455.5C 335.453,443.857 332.286,432.524 328,421.5C 327.208,419.413 326.041,417.579 324.5,416C 324.833,415.667 325.167,415.333 325.5,415C 320.974,402.392 317.307,389.558 314.5,376.5C 314.314,374.42 313.314,372.92 311.5,372C 311.833,371.667 312.167,371.333 312.5,371C 309.669,364.822 307.836,358.322 307,351.5C 305.52,347.385 303.853,343.385 302,339.5C 300.039,324.511 296.039,309.511 290,294.5C 288.003,286.507 286.003,278.507 284,270.5C 283.5,269.333 282.667,268.5 281.5,268C 282.167,267.667 282.833,267.333 283.5,267C 282.941,264.64 281.608,262.307 279.5,260C 279.833,259.667 280.167,259.333 280.5,259C 275.554,242.688 270.554,226.521 265.5,210.5C 267.838,208.96 270.505,208.294 273.5,208.5 Z"/></g>
<g><path style="opacity:1" fill="#ded6cf" d="M 262.5,211.5 C 263.209,210.596 264.209,210.263 265.5,210.5C 270.554,226.521 275.554,242.688 280.5,259C 280.167,259.333 279.833,259.667 279.5,260C 281.608,262.307 282.941,264.64 283.5,267C 282.833,267.333 282.167,267.667 281.5,268C 282.667,268.5 283.5,269.333 284,270.5C 286.003,278.507 288.003,286.507 290,294.5C 296.039,309.511 300.039,324.511 302,339.5C 303.853,343.385 305.52,347.385 307,351.5C 307.836,358.322 309.669,364.822 312.5,371C 312.167,371.333 311.833,371.667 311.5,372C 313.314,372.92 314.314,374.42 314.5,376.5C 317.307,389.558 320.974,402.392 325.5,415C 325.167,415.333 324.833,415.667 324.5,416C 326.041,417.579 327.208,419.413 328,421.5C 332.286,432.524 335.453,443.857 337.5,455.5C 333.832,457.899 330.498,460.733 327.5,464C 326.552,464.483 325.552,464.649 324.5,464.5C 324.298,466.95 324.631,469.283 325.5,471.5C 319.797,473.657 313.797,474.99 307.5,475.5C 305.143,475.663 302.81,475.497 300.5,475C 306.944,474.715 312.944,473.049 318.5,470C 317.672,469.085 316.672,468.419 315.5,468C 315.833,467.667 316.167,467.333 316.5,467C 321.124,464.762 325.458,462.262 329.5,459.5C 329.35,454.095 328.35,448.929 326.5,444C 326.645,443.228 326.978,442.561 327.5,442C 323.529,430.456 319.862,418.789 316.5,407C 315.728,405.779 314.728,404.779 313.5,404C 313.833,403.667 314.167,403.333 314.5,403C 312.71,397.213 310.71,391.547 308.5,386C 308.493,384.417 308.826,382.751 309.5,381C 308.584,380.626 307.75,380.126 307,379.5C 303.285,363.302 299.285,346.969 295,330.5C 293.312,329.675 293.145,328.675 294.5,327.5C 284.69,300.539 276.19,271.873 269,241.5C 264.983,232.634 262.15,223.3 260.5,213.5C 261.376,212.749 262.376,212.249 263.5,212C 263.272,211.601 262.938,211.435 262.5,211.5 Z"/></g>
<g><path style="opacity:1" fill="#e4ddd5" d="M 257.5,211.5 C 259.167,211.5 260.833,211.5 262.5,211.5C 262.938,211.435 263.272,211.601 263.5,212C 262.376,212.249 261.376,212.749 260.5,213.5C 262.15,223.3 264.983,232.634 269,241.5C 276.19,271.873 284.69,300.539 294.5,327.5C 293.145,328.675 293.312,329.675 295,330.5C 299.285,346.969 303.285,363.302 307,379.5C 307.75,380.126 308.584,380.626 309.5,381C 308.826,382.751 308.493,384.417 308.5,386C 310.71,391.547 312.71,397.213 314.5,403C 314.167,403.333 313.833,403.667 313.5,404C 314.728,404.779 315.728,405.779 316.5,407C 319.862,418.789 323.529,430.456 327.5,442C 326.978,442.561 326.645,443.228 326.5,444C 328.35,448.929 329.35,454.095 329.5,459.5C 325.458,462.262 321.124,464.762 316.5,467C 316.167,467.333 315.833,467.667 315.5,468C 316.672,468.419 317.672,469.085 318.5,470C 312.944,473.049 306.944,474.715 300.5,475C 302.81,475.497 305.143,475.663 307.5,475.5C 295.455,477.806 283.789,476.306 272.5,471C 268.332,467.998 264.665,464.498 261.5,460.5C 262.609,460.557 263.609,460.89 264.5,461.5C 267.719,465.672 272.052,467.672 277.5,467.5C 277.5,468.167 277.833,468.5 278.5,468.5C 279.568,469.434 280.901,469.768 282.5,469.5C 283.209,470.404 284.209,470.737 285.5,470.5C 285.71,473.97 286.877,473.97 289,470.5C 289.5,471.667 290.333,472.5 291.5,473C 291.167,473.333 290.833,473.667 290.5,474C 291.996,474.507 293.163,474.007 294,472.5C 294.333,473.167 294.667,473.833 295,474.5C 297.005,473.559 299.005,471.892 301,469.5C 308.68,467.429 316.18,464.262 323.5,460C 322.692,457.912 321.692,455.912 320.5,454C 320.833,453.667 321.167,453.333 321.5,453C 319.477,449.768 317.977,446.268 317,442.5C 311.897,420.852 306.063,400.018 299.5,380C 299.957,379.586 300.291,379.086 300.5,378.5C 293.929,353.29 286.262,328.456 277.5,304C 278.022,303.439 278.355,302.772 278.5,302C 273.61,287.666 268.944,273.333 264.5,259C 264.957,258.586 265.291,258.086 265.5,257.5C 261.425,245.369 257.425,233.202 253.5,221C 254.591,218.893 254.591,216.393 253.5,213.5C 254.833,212.833 256.167,212.167 257.5,211.5 Z"/></g>
<g><path style="opacity:1" fill="#bbb0a1" d="M 247.5,214.5 C 247.5,214.833 247.5,215.167 247.5,215.5C 245.236,216.219 242.903,216.552 240.5,216.5C 240.5,216.167 240.5,215.833 240.5,215.5C 242.861,215.326 245.194,214.993 247.5,214.5 Z"/></g>
<g><path style="opacity:1" fill="#eae2db" d="M 253.5,213.5 C 254.591,216.393 254.591,218.893 253.5,221C 257.425,233.202 261.425,245.369 265.5,257.5C 265.291,258.086 264.957,258.586 264.5,259C 268.944,273.333 273.61,287.666 278.5,302C 278.355,302.772 278.022,303.439 277.5,304C 286.262,328.456 293.929,353.29 300.5,378.5C 300.291,379.086 299.957,379.586 299.5,380C 306.063,400.018 311.897,420.852 317,442.5C 317.977,446.268 319.477,449.768 321.5,453C 321.167,453.333 320.833,453.667 320.5,454C 321.692,455.912 322.692,457.912 323.5,460C 316.18,464.262 308.68,467.429 301,469.5C 299.005,471.892 297.005,473.559 295,474.5C 294.667,473.833 294.333,473.167 294,472.5C 293.163,474.007 291.996,474.507 290.5,474C 290.833,473.667 291.167,473.333 291.5,473C 290.333,472.5 289.5,471.667 289,470.5C 286.877,473.97 285.71,473.97 285.5,470.5C 284.209,470.737 283.209,470.404 282.5,469.5C 292.942,470.045 302.942,468.212 312.5,464C 313.894,463.044 314.561,461.711 314.5,460C 313.043,451.8 310.376,444.133 306.5,437C 307.757,433.019 307.09,429.353 304.5,426C 304.616,424.732 304.949,423.398 305.5,422C 304.743,420.488 303.743,419.154 302.5,418C 302.833,417.667 303.167,417.333 303.5,417C 292.502,382.629 282.168,348.295 272.5,314C 272.833,313.667 273.167,313.333 273.5,313C 269.63,302.724 266.13,292.224 263,281.5C 262.535,280.069 261.701,278.903 260.5,278C 261.022,277.439 261.355,276.772 261.5,276C 259.832,271.631 258.165,267.298 256.5,263C 256.5,261.333 256.5,259.667 256.5,258C 254.299,256.316 253.633,254.316 254.5,252C 252.875,251.147 252.542,250.147 253.5,249C 252.02,246.441 250.687,243.774 249.5,241C 249.833,240.667 250.167,240.333 250.5,240C 248.031,233.559 245.697,227.059 243.5,220.5C 244.767,218.683 246.1,217.016 247.5,215.5C 247.5,215.167 247.5,214.833 247.5,214.5C 249.5,214.167 251.5,213.833 253.5,213.5 Z"/></g>
<g><path style="opacity:1" fill="#bfb29e" d="M 240.5,216.5 C 238.309,217.869 235.975,218.869 233.5,219.5C 230.193,220.051 226.86,220.384 223.5,220.5C 225.167,219.833 226.833,219.167 228.5,218.5C 232.443,217.514 236.443,216.848 240.5,216.5 Z"/></g>
<g><path style="opacity:1" fill="#f0e9e1" d="M 247.5,215.5 C 246.1,217.016 244.767,218.683 243.5,220.5C 245.697,227.059 248.031,233.559 250.5,240C 250.167,240.333 249.833,240.667 249.5,241C 250.687,243.774 252.02,246.441 253.5,249C 252.542,250.147 252.875,251.147 254.5,252C 253.633,254.316 254.299,256.316 256.5,258C 256.5,259.667 256.5,261.333 256.5,263C 258.165,267.298 259.832,271.631 261.5,276C 261.355,276.772 261.022,277.439 260.5,278C 261.701,278.903 262.535,280.069 263,281.5C 266.13,292.224 269.63,302.724 273.5,313C 273.167,313.333 272.833,313.667 272.5,314C 282.168,348.295 292.502,382.629 303.5,417C 303.167,417.333 302.833,417.667 302.5,418C 303.743,419.154 304.743,420.488 305.5,422C 304.949,423.398 304.616,424.732 304.5,426C 307.09,429.353 307.757,433.019 306.5,437C 310.376,444.133 313.043,451.8 314.5,460C 314.561,461.711 313.894,463.044 312.5,464C 302.942,468.212 292.942,470.045 282.5,469.5C 280.901,469.768 279.568,469.434 278.5,468.5C 283.844,468.666 289.177,468.499 294.5,468C 298.468,467.177 302.135,465.677 305.5,463.5C 303.689,457.395 302.023,451.562 300.5,446C 301.634,444.984 301.301,444.317 299.5,444C 299.745,441.911 299.745,439.911 299.5,438C 298.12,436.676 297.786,435.343 298.5,434C 296.675,428.549 295.008,423.049 293.5,417.5C 293.709,416.914 294.043,416.414 294.5,416C 286.974,395.571 280.474,375.071 275,354.5C 274.205,352.099 273.038,349.932 271.5,348C 272.188,343.557 270.854,339.557 267.5,336C 267.833,335.667 268.167,335.333 268.5,335C 261.059,314.907 254.725,294.241 249.5,273C 245.141,259.962 240.807,246.962 236.5,234C 236.957,233.586 237.291,233.086 237.5,232.5C 236.394,228.487 234.727,224.82 232.5,221.5C 232.918,220.778 233.584,220.278 234.5,220C 234.272,219.601 233.938,219.435 233.5,219.5C 235.975,218.869 238.309,217.869 240.5,216.5C 242.903,216.552 245.236,216.219 247.5,215.5 Z"/></g>
<g><path style="opacity:1" fill="#c1b29a" d="M 223.5,220.5 C 223.5,220.833 223.5,221.167 223.5,221.5C 220.518,221.963 217.518,222.296 214.5,222.5C 214.5,221.833 214.833,221.5 215.5,221.5C 218.127,220.908 220.794,220.575 223.5,220.5 Z"/></g>
<g><path style="opacity:1" fill="#fbf2eb" d="M 233.5,219.5 C 233.938,219.435 234.272,219.601 234.5,220C 233.584,220.278 232.918,220.778 232.5,221.5C 230.571,221.231 228.905,221.731 227.5,223C 230.408,235.978 234.075,248.645 238.5,261C 238.043,261.414 237.709,261.914 237.5,262.5C 241.565,272.159 244.231,281.992 245.5,292C 248.462,294.92 249.796,298.253 249.5,302C 260.146,334.221 269.979,366.054 279,397.5C 284.001,412.925 288.835,428.425 293.5,444C 293.355,444.772 293.022,445.439 292.5,446C 296.062,451.985 297.896,458.152 298,464.5C 295.625,466.659 293.125,467.325 290.5,466.5C 292.285,464.823 292.951,462.989 292.5,461C 290.247,454.328 287.581,447.828 284.5,441.5C 285.002,440.284 285.335,439.117 285.5,438C 282.674,432.517 280.34,426.85 278.5,421C 278.833,420.667 279.167,420.333 279.5,420C 278.388,415.025 276.388,410.025 273.5,405C 274.458,403.853 274.125,402.853 272.5,402C 273.188,397.557 271.854,393.557 268.5,390C 268.516,382.433 266.85,375.1 263.5,368C 263.595,364.591 262.595,361.258 260.5,358C 260.957,357.586 261.291,357.086 261.5,356.5C 254.393,337.419 247.893,318.085 242,298.5C 240.053,293.505 237.887,288.672 235.5,284C 235.989,280.592 235.322,277.259 233.5,274C 233.833,273.667 234.167,273.333 234.5,273C 230.812,259.983 227.479,247.15 224.5,234.5C 223.627,232.587 222.627,230.753 221.5,229C 222.536,227.224 222.536,225.391 221.5,223.5C 222.239,223.631 222.906,223.464 223.5,223C 224.738,222.31 224.738,221.81 223.5,221.5C 223.5,221.167 223.5,220.833 223.5,220.5C 226.86,220.384 230.193,220.051 233.5,219.5 Z"/></g>
<g><path style="opacity:1" fill="#c3b399" d="M 213.5,222.5 C 210.124,224.082 206.458,224.749 202.5,224.5C 205.946,223.313 209.613,222.646 213.5,222.5 Z"/></g>
<g><path style="opacity:1" fill="#fef7ef" d="M 221.5,223.5 C 222.536,225.391 222.536,227.224 221.5,229C 222.627,230.753 223.627,232.587 224.5,234.5C 227.479,247.15 230.812,259.983 234.5,273C 234.167,273.333 233.833,273.667 233.5,274C 235.322,277.259 235.989,280.592 235.5,284C 237.887,288.672 240.053,293.505 242,298.5C 247.893,318.085 254.393,337.419 261.5,356.5C 261.291,357.086 260.957,357.586 260.5,358C 262.595,361.258 263.595,364.591 263.5,368C 266.85,375.1 268.516,382.433 268.5,390C 271.854,393.557 273.188,397.557 272.5,402C 274.125,402.853 274.458,403.853 273.5,405C 276.388,410.025 278.388,415.025 279.5,420C 279.167,420.333 278.833,420.667 278.5,421C 280.34,426.85 282.674,432.517 285.5,438C 285.335,439.117 285.002,440.284 284.5,441.5C 287.581,447.828 290.247,454.328 292.5,461C 292.951,462.989 292.285,464.823 290.5,466.5C 286.265,467.436 281.931,467.769 277.5,467.5C 272.052,467.672 267.719,465.672 264.5,461.5C 263.311,457.783 261.811,454.116 260,450.5C 259.28,448.888 259.446,447.388 260.5,446C 256.973,440.042 254.306,433.709 252.5,427C 252.255,425.089 252.255,423.089 252.5,421C 251.109,416.421 249.275,411.921 247,407.5C 237.382,375.899 227.882,344.566 218.5,313.5C 217.5,313.5 216.5,313.5 215.5,313.5C 215.538,302.282 212.704,291.948 207,282.5C 206.171,276.75 204.005,271.75 200.5,267.5C 196.873,253.345 192.873,239.345 188.5,225.5C 189.167,225.5 189.833,225.5 190.5,225.5C 192.674,227.081 195.007,228.581 197.5,230C 201.948,249.482 207.615,268.482 214.5,287C 213.621,289.299 214.288,291.299 216.5,293C 216.167,293.333 215.833,293.667 215.5,294C 216.938,296.595 218.271,299.262 219.5,302C 219.787,306.294 221.12,310.961 223.5,316C 223.152,318.055 223.819,320.055 225.5,322C 224.715,324.443 224.881,326.943 226,329.5C 226.946,332.706 228.446,335.539 230.5,338C 229.949,339.398 229.616,340.732 229.5,342C 231.647,346.565 233.647,351.231 235.5,356C 235.262,358.562 236.262,360.896 238.5,363C 237.978,363.561 237.645,364.228 237.5,365C 242.128,379.676 246.461,394.009 250.5,408C 251.328,408.915 252.328,409.581 253.5,410C 252.978,410.561 252.645,411.228 252.5,412C 253.765,417.219 255.432,421.886 257.5,426C 257.043,426.414 256.709,426.914 256.5,427.5C 258.252,430.32 258.918,433.154 258.5,436C 259.954,438.244 261.288,440.577 262.5,443C 262.888,444.525 262.888,446.192 262.5,448C 263.061,449.676 264.061,451.009 265.5,452C 265.93,464.093 272.596,468.26 285.5,464.5C 281.317,451.244 277.983,438.411 275.5,426C 274.415,423.828 273.081,421.828 271.5,420C 271.553,415.304 270.22,410.804 267.5,406.5C 267.709,405.914 268.043,405.414 268.5,405C 266.072,403.838 265.405,402.171 266.5,400C 260.402,380.214 254.069,360.881 247.5,342C 247.833,341.667 248.167,341.333 248.5,341C 243.386,327.938 239.553,315.105 237,302.5C 236.402,299.692 235.235,297.192 233.5,295C 233.833,294.667 234.167,294.333 234.5,294C 232.877,289.79 230.877,285.79 228.5,282C 228.833,281.667 229.167,281.333 229.5,281C 224.986,268.21 220.986,255.543 217.5,243C 217.957,242.586 218.291,242.086 218.5,241.5C 215.066,236.435 213.899,231.102 215,225.5C 216.897,223.984 219.064,223.317 221.5,223.5 Z"/></g>
<g><path style="opacity:1" fill="#f6eee6" d="M 232.5,221.5 C 234.727,224.82 236.394,228.487 237.5,232.5C 237.291,233.086 236.957,233.586 236.5,234C 240.807,246.962 245.141,259.962 249.5,273C 254.725,294.241 261.059,314.907 268.5,335C 268.167,335.333 267.833,335.667 267.5,336C 270.854,339.557 272.188,343.557 271.5,348C 273.038,349.932 274.205,352.099 275,354.5C 280.474,375.071 286.974,395.571 294.5,416C 294.043,416.414 293.709,416.914 293.5,417.5C 295.008,423.049 296.675,428.549 298.5,434C 297.786,435.343 298.12,436.676 299.5,438C 299.745,439.911 299.745,441.911 299.5,444C 301.301,444.317 301.634,444.984 300.5,446C 302.023,451.562 303.689,457.395 305.5,463.5C 302.135,465.677 298.468,467.177 294.5,468C 289.177,468.499 283.844,468.666 278.5,468.5C 277.833,468.5 277.5,468.167 277.5,467.5C 281.931,467.769 286.265,467.436 290.5,466.5C 293.125,467.325 295.625,466.659 298,464.5C 297.896,458.152 296.062,451.985 292.5,446C 293.022,445.439 293.355,444.772 293.5,444C 288.835,428.425 284.001,412.925 279,397.5C 269.979,366.054 260.146,334.221 249.5,302C 249.796,298.253 248.462,294.92 245.5,292C 244.231,281.992 241.565,272.159 237.5,262.5C 237.709,261.914 238.043,261.414 238.5,261C 234.075,248.645 230.408,235.978 227.5,223C 228.905,221.731 230.571,221.231 232.5,221.5 Z"/></g>
<g><path style="opacity:1" fill="#b2aea7" d="M 312.5,186.5 C 335.089,263.211 357.256,340.211 379,417.5C 380.496,426.489 378.996,434.822 374.5,442.5C 374.933,438.3 375.6,434.133 376.5,430C 375.241,427.132 373.908,424.299 372.5,421.5C 372.723,420.033 373.056,418.533 373.5,417C 371.606,415.921 371.273,414.587 372.5,413C 369.751,411.654 369.417,410.32 371.5,409C 369.606,407.899 368.939,406.566 369.5,405C 368.106,401.545 366.772,398.045 365.5,394.5C 365.833,393.833 366.167,393.167 366.5,392.5C 365.167,390.167 363.833,387.833 362.5,385.5C 363.904,382.526 363.238,380.026 360.5,378C 361.167,377.667 361.833,377.333 362.5,377C 360.167,375.757 359.5,374.091 360.5,372C 357.776,368.691 357.443,365.358 359.5,362C 357.926,356.537 356.592,351.037 355.5,345.5C 354.178,345.33 353.011,345.663 352,346.5C 350.148,344.77 350.314,343.604 352.5,343C 350.537,341.238 349.204,339.571 348.5,338C 350.991,337.374 350.991,336.541 348.5,335.5C 349.813,333.482 349.147,332.315 346.5,332C 347.308,331.692 347.975,331.192 348.5,330.5C 346.73,329.18 346.397,327.68 347.5,326C 346.328,325.581 345.328,324.915 344.5,324C 347.668,323.418 348.001,322.418 345.5,321C 346.833,319.16 346.666,318.66 345,319.5C 344.383,318.551 344.549,317.718 345.5,317C 343.494,314.158 342.161,310.992 341.5,307.5C 340.692,307.192 340.025,306.692 339.5,306C 339.293,303.368 339.626,301.035 340.5,299C 337.849,293.714 336.016,288.214 335,282.5C 334.667,282.833 334.333,283.167 334,283.5C 330.439,272.261 327.272,260.595 324.5,248.5C 324.608,247.558 324.941,246.725 325.5,246C 324.093,242.884 322.76,239.717 321.5,236.5C 321.709,235.914 322.043,235.414 322.5,235C 321.328,234.581 320.328,233.915 319.5,233C 319.782,230.089 319.782,227.256 319.5,224.5C 318.975,223.808 318.308,223.308 317.5,223C 317.833,222.667 318.167,222.333 318.5,222C 317.736,219.931 317.236,217.764 317,215.5C 315.334,216.34 315.167,215.84 316.5,214C 315.272,209.953 313.938,205.953 312.5,202C 312.833,201.667 313.167,201.333 313.5,201C 311.109,200.309 311.109,199.309 313.5,198C 310.497,195.822 310.164,192.989 312.5,189.5C 312.376,188.893 312.043,188.56 311.5,188.5C 311.328,187.508 311.662,186.842 312.5,186.5 Z"/></g>
<g><path style="opacity:1" fill="#e1dcd2" d="M 188.5,225.5 C 192.873,239.345 196.873,253.345 200.5,267.5C 195.721,254.075 191.388,240.408 187.5,226.5C 187.5,225.833 187.833,225.5 188.5,225.5 Z"/></g>
<g><path style="opacity:1" fill="#efe9e1" d="M 200.5,267.5 C 204.005,271.75 206.171,276.75 207,282.5C 212.704,291.948 215.538,302.282 215.5,313.5C 216.5,313.5 217.5,313.5 218.5,313.5C 227.882,344.566 237.382,375.899 247,407.5C 249.275,411.921 251.109,416.421 252.5,421C 252.255,423.089 252.255,425.089 252.5,427C 254.306,433.709 256.973,440.042 260.5,446C 259.446,447.388 259.28,448.888 260,450.5C 261.811,454.116 263.311,457.783 264.5,461.5C 263.609,460.89 262.609,460.557 261.5,460.5C 260.21,459.942 259.377,458.942 259,457.5C 238.988,394.3 219.488,330.966 200.5,267.5 Z"/></g>
<g><path style="opacity:1" fill="#fefbf3" d="M 223.5,221.5 C 224.738,221.81 224.738,222.31 223.5,223C 222.906,223.464 222.239,223.631 221.5,223.5C 219.064,223.317 216.897,223.984 215,225.5C 213.899,231.102 215.066,236.435 218.5,241.5C 218.291,242.086 217.957,242.586 217.5,243C 220.986,255.543 224.986,268.21 229.5,281C 229.167,281.333 228.833,281.667 228.5,282C 230.877,285.79 232.877,289.79 234.5,294C 234.167,294.333 233.833,294.667 233.5,295C 235.235,297.192 236.402,299.692 237,302.5C 239.553,315.105 243.386,327.938 248.5,341C 248.167,341.333 247.833,341.667 247.5,342C 254.069,360.881 260.402,380.214 266.5,400C 265.405,402.171 266.072,403.838 268.5,405C 268.043,405.414 267.709,405.914 267.5,406.5C 270.22,410.804 271.553,415.304 271.5,420C 273.081,421.828 274.415,423.828 275.5,426C 277.983,438.411 281.317,451.244 285.5,464.5C 272.596,468.26 265.93,464.093 265.5,452C 264.061,451.009 263.061,449.676 262.5,448C 262.888,446.192 262.888,444.525 262.5,443C 261.288,440.577 259.954,438.244 258.5,436C 258.918,433.154 258.252,430.32 256.5,427.5C 256.709,426.914 257.043,426.414 257.5,426C 255.432,421.886 253.765,417.219 252.5,412C 252.645,411.228 252.978,410.561 253.5,410C 252.328,409.581 251.328,408.915 250.5,408C 246.461,394.009 242.128,379.676 237.5,365C 237.645,364.228 237.978,363.561 238.5,363C 236.262,360.896 235.262,358.562 235.5,356C 233.647,351.231 231.647,346.565 229.5,342C 229.616,340.732 229.949,339.398 230.5,338C 228.446,335.539 226.946,332.706 226,329.5C 224.881,326.943 224.715,324.443 225.5,322C 223.819,320.055 223.152,318.055 223.5,316C 221.12,310.961 219.787,306.294 219.5,302C 218.271,299.262 216.938,296.595 215.5,294C 215.833,293.667 216.167,293.333 216.5,293C 214.288,291.299 213.621,289.299 214.5,287C 207.615,268.482 201.948,249.482 197.5,230C 195.007,228.581 192.674,227.081 190.5,225.5C 194.371,225.815 198.038,225.482 201.5,224.5C 201.833,224.5 202.167,224.5 202.5,224.5C 206.458,224.749 210.124,224.082 213.5,222.5C 213.833,222.5 214.167,222.5 214.5,222.5C 217.518,222.296 220.518,221.963 223.5,221.5 Z"/></g>
</svg>
