<svg width="14" height="14" viewBox="0 0 14 14" fill="none" xmlns="http://www.w3.org/2000/svg">
<path d="M13.2973 6.35961L7.64043 0.702738C7.55633 0.618638 7.45649 0.551926 7.34661 0.506411C7.23673 0.460896 7.11897 0.437469 7.00003 0.437469C6.8811 0.437469 6.76333 0.460896 6.65346 0.506411C6.54358 0.551926 6.44374 0.618638 6.35964 0.702738L0.702768 6.35961C0.618668 6.44371 0.551956 6.54355 0.506441 6.65342C0.460926 6.7633 0.4375 6.88107 0.4375 7C0.4375 7.11894 0.460926 7.2367 0.506441 7.34658C0.551956 7.45646 0.618668 7.5563 0.702768 7.64039L6.35964 13.2973C6.44374 13.3814 6.54358 13.4481 6.65346 13.4936C6.76333 13.5391 6.8811 13.5625 7.00003 13.5625C7.11897 13.5625 7.23673 13.5391 7.34661 13.4936C7.45649 13.4481 7.55633 13.3814 7.64043 13.2973L13.2973 7.64039C13.3814 7.5563 13.4481 7.45646 13.4936 7.34658C13.5391 7.2367 13.5626 7.11894 13.5626 7C13.5626 6.88107 13.5391 6.7633 13.4936 6.65342C13.4481 6.54355 13.3814 6.44371 13.2973 6.35961ZM9.49707 6.87204L8.18457 8.18454C8.10247 8.26663 7.99113 8.31275 7.87503 8.31275C7.75894 8.31275 7.6476 8.26663 7.5655 8.18454C7.48341 8.10244 7.43729 7.9911 7.43729 7.875C7.43729 7.75891 7.48341 7.64756 7.5655 7.56547L8.13152 7H6.12503C5.89297 7 5.67041 7.09219 5.50632 7.25629C5.34222 7.42038 5.25003 7.64294 5.25003 7.875V8.3125C5.25003 8.42854 5.20394 8.53982 5.12189 8.62186C5.03985 8.70391 4.92857 8.75 4.81253 8.75C4.6965 8.75 4.58522 8.70391 4.50318 8.62186C4.42113 8.53982 4.37503 8.42854 4.37503 8.3125V7.875C4.37503 7.41087 4.55941 6.96576 4.8876 6.63757C5.21579 6.30938 5.66091 6.125 6.12503 6.125H8.13152L7.5655 5.55954C7.48341 5.47744 7.43729 5.3661 7.43729 5.25C7.43729 5.13391 7.48341 5.02256 7.5655 4.94047C7.6476 4.85838 7.75894 4.81226 7.87503 4.81226C7.99113 4.81226 8.10247 4.85838 8.18457 4.94047L9.49707 6.25297C9.53774 6.2936 9.57001 6.34186 9.59203 6.39497C9.61405 6.44808 9.62538 6.50501 9.62538 6.5625C9.62538 6.62 9.61405 6.67693 9.59203 6.73004C9.57001 6.78315 9.53774 6.8314 9.49707 6.87204Z" fill="#39C848"/>
</svg>
