<svg width="30" height="30" viewBox="0 0 30 30" fill="none" xmlns="http://www.w3.org/2000/svg">
<path d="M28.8775 26.6224L22.5703 20.3124C24.4614 17.8481 25.3443 14.7566 25.0399 11.6652C24.7355 8.57379 23.2666 5.71391 20.9311 3.66571C18.5957 1.6175 15.5686 0.534338 12.4639 0.635948C9.35919 0.737557 6.40939 2.01633 4.21286 4.21286C2.01633 6.40939 0.737557 9.35919 0.635948 12.4639C0.534338 15.5686 1.6175 18.5957 3.66571 20.9311C5.71391 23.2666 8.57379 24.7355 11.6652 25.0399C14.7566 25.3443 17.8481 24.4614 20.3124 22.5703L26.625 28.8842C26.7733 29.0324 26.9493 29.15 27.143 29.2302C27.3367 29.3105 27.5443 29.3518 27.7539 29.3518C27.9636 29.3518 28.1712 29.3105 28.3649 29.2302C28.5586 29.15 28.7346 29.0324 28.8828 28.8842C29.0311 28.7359 29.1487 28.5599 29.2289 28.3662C29.3091 28.1725 29.3504 27.9649 29.3504 27.7553C29.3504 27.5456 29.3091 27.338 29.2289 27.1443C29.1487 26.9506 29.0311 26.7746 28.8828 26.6263L28.8775 26.6224ZM3.84369 12.8749C3.84369 11.0887 4.37336 9.34263 5.36573 7.85745C6.3581 6.37226 7.76859 5.21471 9.41883 4.53115C11.0691 3.8476 12.885 3.66875 14.6369 4.01722C16.3887 4.3657 17.998 5.22584 19.261 6.48888C20.524 7.75193 21.3842 9.36114 21.7327 11.113C22.0811 12.8649 21.9023 14.6808 21.2187 16.3311C20.5352 17.9813 19.3776 19.3918 17.8924 20.3841C16.4073 21.3765 14.6612 21.9062 12.8749 21.9062C10.4805 21.9037 8.18476 20.9514 6.4916 19.2583C4.79845 17.5651 3.84615 15.2694 3.84369 12.8749Z" fill="#DDDFE3"/>
</svg>
