<svg width="16" height="16" viewBox="0 0 16 16" fill="none" xmlns="http://www.w3.org/2000/svg">
<path d="M15.5459 13.9541C15.7572 14.1654 15.876 14.4521 15.876 14.751C15.876 15.0499 15.7572 15.3365 15.5459 15.5479C15.3346 15.7592 15.0479 15.8779 14.749 15.8779C14.4501 15.8779 14.1635 15.7592 13.9521 15.5479L7.99996 9.59379L2.0459 15.546C1.83455 15.7573 1.54791 15.8761 1.24902 15.8761C0.950136 15.8761 0.663491 15.7573 0.452147 15.546C0.240802 15.3346 0.12207 15.048 0.12207 14.7491C0.12207 14.4502 0.240803 14.1636 0.452147 13.9522L6.40621 8.00004L0.454022 2.04598C0.242677 1.83464 0.123945 1.54799 0.123945 1.2491C0.123945 0.950219 0.242677 0.663574 0.454022 0.45223C0.665366 0.240885 0.95201 0.122153 1.2509 0.122153C1.54978 0.122153 1.83643 0.240885 2.04777 0.45223L7.99996 6.40629L13.954 0.451292C14.1654 0.239948 14.452 0.121216 14.7509 0.121216C15.0498 0.121216 15.3364 0.239948 15.5478 0.451292C15.7591 0.662636 15.8778 0.949281 15.8778 1.24817C15.8778 1.54705 15.7591 1.8337 15.5478 2.04504L9.59371 8.00004L15.5459 13.9541Z" fill="#2F343E"/>
</svg>
