<svg width="14" height="24" viewBox="0 0 14 24" fill="none" xmlns="http://www.w3.org/2000/svg">
<path d="M13.0613 20.9388C13.3431 21.2205 13.5014 21.6027 13.5014 22.0013C13.5014 22.3998 13.3431 22.782 13.0613 23.0638C12.7795 23.3455 12.3973 23.5039 11.9988 23.5039C11.6003 23.5039 11.2181 23.3455 10.9363 23.0638L0.936299 13.0638C0.796459 12.9244 0.685505 12.7588 0.609797 12.5765C0.534088 12.3942 0.495117 12.1987 0.495117 12.0013C0.495117 11.8038 0.534088 11.6084 0.609797 11.426C0.685505 11.2437 0.796459 11.0781 0.936299 10.9388L10.9363 0.938751C11.2181 0.656959 11.6003 0.49865 11.9988 0.49865C12.3973 0.49865 12.7795 0.656959 13.0613 0.938752C13.3431 1.22054 13.5014 1.60274 13.5014 2.00125C13.5014 2.39977 13.3431 2.78196 13.0613 3.06375L4.12505 12L13.0613 20.9388Z" fill="#101722"/>
</svg>
